<?xml version="1.0" encoding="utf-8"?>
<!-- Generator: Adobe Illustrator 19.1.0, SVG Export Plug-In . SVG Version: 6.00 Build 0)  -->
<svg version="1.1" id="Layer_1" xmlns="http://www.w3.org/2000/svg" xmlns:xlink="http://www.w3.org/1999/xlink" x="0px" y="0px"
	 viewBox="0 0 303.2 39.1" style="enable-background:new 0 0 303.2 39.1;" xml:space="preserve">
<style type="text/css">
	.st0{fill:#FFFFFF;}
</style>
<g>
	<path class="st0" d="M62,29c0,0,0,0.2,0,0.5c0,0.2,0,0.7,0,0.7s-4.1,0-5.3,0c-1.2,0-4.5,0-4.5,0s-0.1-0.5-0.1-0.7
		c0-0.3,0-0.5,0-0.5l2.5-0.3V11l-2.5-0.3c0,0,0-0.3,0-0.6c0-0.2,0.1-0.6,0.1-0.6s3.3,0,4.5,0c2.8,0,10.2,0,11.4,0l0.7,5.6
		c-0.3,0.1-0.6,0.2-1.1,0.1c0,0-1.5-3.7-2.8-4.4c-2,0-4.2,0-6.2,0.2v8.2h4.8l0.9-2.8c0,0,0.2-0.1,0.6-0.1c0.4,0,0.5,0.1,0.5,0.1
		s0,2.5,0,3.7c0,1.2,0,4,0,4s-0.1,0.1-0.5,0.1c-0.4,0-0.6-0.1-0.6-0.1l-1-3.5h-4.8v8.2L62,29z"/>
	<path class="st0" d="M77.4,14.3c3.6,0,5.1,1.7,5.1,4.8c0,2.5-0.1,4.8-0.1,7.6c0,2.1,0.9,1.9,2.5,1.3l0.3,0.8
		c-1.2,1-2.5,1.5-3.9,1.5s-2.5-0.7-2.6-2.2c-0.6,1-2.5,2.3-4.2,2.3c-2.5,0-4.4-1.4-4.4-3.7c0-2.8,2.9-4.5,7.9-4.5h0.5
		c0-0.6,0-2.5,0-2.9c0-2.9-0.9-3.7-2.6-3.7c-0.7,0-1.5,0.2-2.2,0.5c0.4,1.4,0.4,3,0.1,4.3c-1.9,0-2.9-1-2.9-2.4
		C71.1,15.8,74.5,14.3,77.4,14.3z M78.1,23.2c-2.8,0-3.9,1-3.9,3.1c0,1.2,0.7,2.4,2,2.4c0.8,0,1.8-0.5,2.3-1.5c0-1.7,0-2.3,0-3.9
		H78.1z"/>
</g>
<g>
	<path class="st0" d="M93.9,14.3c3.6,0,5.1,1.7,5.1,4.8c0,2.5-0.1,4.8-0.1,7.6c0,2.1,0.9,1.9,2.5,1.3l0.3,0.8
		c-1.2,1-2.5,1.5-3.9,1.5s-2.5-0.7-2.6-2.2c-0.6,1-2.5,2.3-4.2,2.3c-2.5,0-4.4-1.4-4.4-3.7c0-2.8,2.9-4.5,7.9-4.5h0.5
		c0-0.6,0-2.5,0-2.9c0-2.9-0.9-3.7-2.6-3.7c-0.7,0-1.5,0.2-2.2,0.5c0.4,1.4,0.4,3,0.1,4.3c-1.9,0-2.9-1-2.9-2.4
		C87.6,15.8,91.1,14.3,93.9,14.3z M94.7,23.2c-2.8,0-3.9,1-3.9,3.1c0,1.2,0.7,2.4,2,2.4c0.8,0,1.8-0.5,2.3-1.5c0-1.7,0-2.3,0-3.9
		H94.7z"/>
</g>
<g>
	<path class="st0" d="M108.9,16c1.2-1,2.7-1.6,4.3-1.6c4,0,7,2.6,7,7.5c0,5.1-4.6,8.5-9,8.5c-1.5,0-3.1-0.2-4.6-0.6
		c-0.5-0.1-1.9-0.2-1.9-0.2c0.1-1.5,0.1-2.8,0.1-4.3V9l-2.3-0.8c0,0,0-0.2,0-0.4c0-0.3,0-0.5,0-0.5c1.8-0.2,6.4-1,6.4-1
		s-0.1,4.4-0.1,6.5V16z M111.1,29.1c2.7,0,4.9-2.6,4.9-7.1c0-3.4-0.8-6.3-3.9-6.3c-1.3,0-2.4,0.7-3.3,1.6V29
		C109.9,29.1,110.5,29.1,111.1,29.1z"/>
	<path class="st0" d="M138.3,22.1c0,5.6-3.6,8.3-8.1,8.3c-4.3,0-7.9-2.2-7.9-7.8c0-4.2,3.1-8.1,8.1-8.2
		C135.4,14.4,138.3,17.9,138.3,22.1z M134.1,22.1c0-4.4-1.1-6.7-3.7-6.7c-2.6,0-3.9,2.5-3.9,6.9c0,3.7,0.8,7.1,3.7,7.1
		C133.1,29.4,134.1,25.8,134.1,22.1z"/>
	<path class="st0" d="M146.3,18.3v10.4l3.2,0.4c0,0,0,0.2,0,0.5c0,0.2,0,0.6,0,0.6s-3.9,0-5.2,0s-3.9,0-3.9,0s0-0.3,0-0.6
		c0-0.3,0-0.5,0-0.5l2-0.3V16.9l-2.3-0.8c0,0,0-0.2,0-0.4c0-0.3,0-0.5,0-0.5c1.8-0.2,6.2-1,6.2-1v2.6c0.7-1.5,2.6-2.6,3.7-2.6
		c2.1,0,3,1.2,3,3c0,1.3-1.1,2.7-3.3,2.7c-0.3-1.6-0.1-3.6,0-4.5C148.4,15.7,146.7,17.2,146.3,18.3z"/>
	<path class="st0" d="M160.8,14.3h0.3c2.6-0.1,4.8-2.2,6.3-2.2c1.3,0,2,0.9,2,2c0,0.7-0.4,1.5-1.1,1.8c-0.9-1.3-2-1.9-3.4-1.9
		c-0.7,0-1.6,0.3-2,0.4c3,0.6,4.2,2.6,4.2,5c0,2.6-2.3,5.2-6.1,5.2c-1.1,0-2-0.1-2.8-0.4c-0.6,0.5-1,1-1,1.6c0,0.6,0.4,1,1.4,1
		c0.8,0,4.7,0.1,5.4,0.1c3,0,5.2,1,5.2,3.8c0,4.2-4.4,7-8.5,7c-3.8,0-6.8-1-6.8-4.1c0-1.6,1.8-3,3.5-3.7c-2-0.4-2.7-1.6-2.7-2.7
		c0-1.6,1.6-2.6,2.9-3.3c-1.8-0.9-2.5-2.5-2.5-4.4C154.8,17,157,14.3,160.8,14.3z M156.6,33.2c0,2.1,1.5,3.5,4.2,3.5
		c2.4,0,5.4-1.5,5.4-4.4c0-2-1.8-2.2-4.7-2.2c-0.6,0-2.4,0-3.3,0h-0.3C156.9,31,156.6,31.9,156.6,33.2z M160.8,23.9
		c1.1,0,2.5-1.3,2.5-4.4c0-4.1-1.4-4.4-2.5-4.4c-1.1,0-2.3,1.4-2.3,4.5C158.5,23.7,159.7,23.9,160.8,23.9z"/>
	<path class="st0" d="M179.8,11.6c-0.3-0.4-1.5-0.8-2.5-1c0,0,0-0.3,0-0.6c0-0.2,0.1-0.6,0.1-0.6s5.7,0,6.1,0l7.6,16.2l7.5-16.2
		c0.6,0,6.1,0,6.1,0s0.1,0.3,0.1,0.5c0,0.3,0,0.6,0,0.6c-1,0.2-2.2,0.6-2.5,1v17.1L205,29c0,0,0,0.2,0,0.5c0,0.2,0,0.7,0,0.7
		s-3.7,0-4.9,0c-1.2,0-4.1,0-4.1,0s-0.1-0.5-0.1-0.7c0-0.3,0-0.5,0-0.5l2-0.3V14.4l-7.4,16.1H189l-7.6-16.2v7.8c0,2.2,0,4.1,0.2,6.2
		l2.8,0.7c0,0,0,0.3,0,0.6c0,0.2-0.1,0.6-0.1,0.6s-2.3-0.1-3.6-0.1c-1.2,0-3.7,0-3.7,0s-0.1-0.3-0.1-0.6c0-0.3,0-0.5,0-0.5l2.7-0.7
		c0.1-2.1,0.1-4,0.1-6.2V11.6z"/>
	<path class="st0" d="M218.5,16.9l-2.5-0.8c0,0,0-0.2,0-0.4c0-0.3,0-0.5,0-0.5c1.8-0.2,6.4-1,6.4-1v14c0.5,0,2.1,0.1,2.5,0.2
		c0,0,0,0.2,0,0.5s0,0.5,0,0.5c-1.8,0.2-6.4,1-6.4,1v-2.7c-0.9,1.4-3.1,2.7-5.2,2.7c-3.6,0-4.8-2.2-4.8-5.5c0-1.9,0.1-4.1,0.1-8
		l-2.3-0.8c0,0,0-0.2,0-0.4c0-0.3,0-0.5,0-0.5c1.8-0.2,6.2-1,6.2-1c0,6.2,0,7.7,0,10.7c0,2.8,0.7,3.7,2.3,3.7c1.5,0,2.9-0.9,3.7-2
		L218.5,16.9z"/>
	<path class="st0" d="M226.7,29.9c-0.1-2.1-0.2-3.7-0.3-4.9c0.4-0.1,0.6-0.1,1,0c0,0,1.4,3.2,1.9,3.8c0.5,0.2,1.2,0.5,2.2,0.5
		c2.1,0,2.9-0.9,2.9-2.4c0-1.4-1.1-2.2-3-3.1c-3.2-1.5-4.7-2.6-4.7-5.1c0-3,3-4.3,5.9-4.3c1.5,0,3.1,0.4,4.6,0.5c0,0.8,0,2.5,0,4.4
		c-0.4,0.1-0.7,0.1-1.1,0c0,0-0.7-2.5-1.3-3.4c-0.5-0.2-1.1-0.3-1.8-0.3c-2,0-3,1-3,2.2c0,1.4,1.1,1.9,3.3,2.9
		c2.6,1.2,4.7,2.3,4.7,5.3c0,2.9-2.7,4.6-6.3,4.6C229.9,30.5,228.2,29.9,226.7,29.9z"/>
	<path class="st0" d="M254.5,21.4c-1.2,0-2.9,0.1-4.1,0.1c-2.3,0-6.1,0-6.1,0v0.7c0,4.4,1.7,6.6,4.4,6.6c1.6,0,3.4-0.8,4.6-2
		l0.6,0.6c-1.1,1.6-3.1,3.1-6,3.1c-4.3,0-7.8-2.1-7.8-7.7c0-4.5,3.1-8.3,7.7-8.3C252.2,14.3,254.5,17.6,254.5,21.4z M244.4,20.4
		c0.7,0,2.5,0,3.8,0c0.8,0,1.1,0,1.9,0c0.1-1.7,0.1-5-2.2-5C245.6,15.4,244.7,17.2,244.4,20.4z"/>
	<path class="st0" d="M267.8,16.9l-2.5-0.8c0,0,0-0.2,0-0.4c0-0.3,0-0.5,0-0.5c1.8-0.2,6.4-1,6.4-1v14c0.5,0,2.1,0.1,2.5,0.2
		c0,0,0,0.2,0,0.5s0,0.5,0,0.5c-1.8,0.2-6.4,1-6.4,1v-2.7c-0.9,1.4-3.1,2.7-5.2,2.7c-3.6,0-4.8-2.2-4.8-5.5c0-1.9,0.1-4.1,0.1-8
		l-2.3-0.8c0,0,0-0.2,0-0.4c0-0.3,0-0.5,0-0.5c1.8-0.2,6.2-1,6.2-1c0,6.2,0,7.7,0,10.7c0,2.8,0.7,3.7,2.3,3.7c1.5,0,2.9-0.9,3.7-2
		L267.8,16.9z"/>
	<path class="st0" d="M281.6,17.3c0.9-1.4,2.5-2.9,4.9-2.9c2.6,0,3.9,1.2,4.4,3.1c1.1-1.4,3.1-3.1,5.4-3.1c3.6,0,4.8,2.4,4.8,5.5
		c0,2,0,5-0.1,9c0.6,0.1,2.2,0.2,2.6,0.3c0,0,0,0.2,0,0.5c0,0.2,0,0.6,0,0.6s-3.3,0-4.5,0c-1.2,0-2.8,0-3.6,0c0,0,0-0.3,0-0.6
		c0-0.3,0-0.5,0-0.5l1.6-0.2c0-2.1,0.1-4.7,0.1-9c0-2.5-0.7-3.7-2.3-3.7c-1.7,0-3,1.3-3.7,2.4c0,0.4,0.1,0.8,0.1,1.2c0,2,0,5-0.1,9
		c0.6,0.1,2.2,0.2,2.6,0.3c0,0,0,0.2,0,0.5c0,0.2-0.1,0.6-0.1,0.6s-3.3,0-4.5,0s-2.8,0-3.6,0c0,0,0-0.3,0-0.6c0-0.3,0-0.5,0-0.5
		l1.6-0.2c0-2.1,0-4.7,0.1-9c0-2.5-0.6-3.7-2.1-3.7c-1.7,0-2.9,1.3-3.6,2.5v10.2l2.3,0.3c0,0,0,0.2,0,0.5c0,0.2-0.1,0.6-0.1,0.6
		s-3,0-4.2,0s-3.9,0-3.9,0s0-0.3,0-0.6c0-0.3,0-0.5,0-0.5l2-0.3V16.9l-2.3-0.8c0,0,0-0.2,0-0.4c0-0.3,0-0.5,0-0.5
		c1.8-0.2,6.2-1,6.2-1V17.3z"/>
</g>
<g>
	<path class="st0" d="M21.3,1.6c0,0.1,0,0.2,0.1,0.2c0.1,0.1,0.1,0.1,0.2,0c0.1-0.2,0.3-0.1,0.5-0.1c0.2,0.1,0.3,0.1,0.3,0.3
		c0,0.2,0,0.3,0,0.5c0,0.2,0,0.4,0,0.6c0,0.1,0,0.1,0,0.2c0,0.1,0,0.1,0,0.2C22.4,3.8,22.3,4,22,4c-0.1,0-0.2,0-0.3,0
		c-0.1,0-0.2,0-0.2-0.1c-0.2-0.3-0.2-0.6-0.3-0.9c0-0.2-0.3-0.4-0.5-0.5c-0.2,0-0.4-0.1-0.6-0.1c-0.3,0-0.6,0-0.9,0
		c-0.3,0.1-0.5,0.2-0.7,0.3C18.2,3,18,3.3,18,3.7c0,0.2,0,0.4-0.1,0.6c0,0,0,0.1,0,0.1C18,4.6,18,4.7,18,4.9c0,0.4,0,0.8,0.2,1.1
		c0,0.1,0.1,0.2,0.2,0.2c0.3,0.1,0.5,0.3,0.8,0.4c0.1,0,0.2,0,0.3,0c0.4-0.1,0.7-0.1,1.1-0.1c0.3,0,0.5,0,0.4-0.4
		c0-0.3,0.1-0.5,0-0.8c0-0.2,0-0.3-0.2-0.3C20.6,5,20.4,5,20.1,5c-0.1,0-0.2-0.1-0.3-0.1c-0.2-0.1-0.1-0.2,0-0.3
		c0.2-0.2,0.4-0.2,0.7-0.1c0.1,0,0.2,0,0.3,0c0,0,0.1,0,0.1,0c0.3,0.1,0.6,0,0.9,0c0.3,0,0.5,0,0.8,0c0,0,0.1,0,0.1,0
		c0.2,0.1,0.5,0,0.7,0.1c0.1,0,0.3,0,0.4,0.1c0.1,0.1,0.2,0.2,0.2,0.3c-0.1,0.2-0.2,0.2-0.4,0.1c-0.2,0-0.5,0-0.7,0
		c-0.1,0-0.2,0.1-0.2,0.2c0,0.1,0,0.2-0.1,0.3c0,0.1,0,0.3,0,0.4c0,0.1,0,0.2,0,0.4c-0.1,0.2-0.2,0.5,0,0.7c0.1,0.2,0.1,0.4,0.2,0.6
		c0,0,0,0.1,0,0.2c-0.2,0.3-0.3,0.5-0.4,0.8c0,0.1-0.1,0.1-0.2,0.2c0,0-0.1,0.1-0.1,0.1c0,0.1,0.1,0.1,0.2,0.1c0.1,0,0.1,0,0.2,0
		c0.2-0.1,0.4-0.1,0.6-0.2c0.2-0.1,0.4,0,0.6,0.1c0.2,0.1,0.2,0.3,0.2,0.5c0,0,0,0.1,0,0.2c0.1,0.3,0,0.6,0,0.9c0,0.2,0,0.3,0,0.5
		c0,0.1-0.1,0.3-0.2,0.3c-0.1,0-0.3,0.1-0.4-0.1c-0.1-0.1-0.3-0.1-0.4-0.2c-0.2-0.1-0.4-0.2-0.6-0.2c-0.1,0-0.1,0-0.1,0
		c0,0,0,0.1,0,0.2c0.1,0.1,0.1,0.3,0.1,0.5c0,0.2,0.1,0.2,0.2,0.1c0.1-0.1,0.3-0.1,0.4,0c0.1,0.1,0.4,0.1,0.5,0
		c0.1-0.2,0.2-0.2,0.4,0c0.1,0.1,0.2,0.1,0.3,0.1c0.2,0,0.4,0,0.5-0.1c0,0,0.1,0,0.2,0.1c0.1,0.1,0.2,0.3,0.4,0.1c0,0,0.1,0,0.2,0
		c0.1,0,0.2,0,0.3-0.1c0.1-0.1,0.2-0.1,0.3,0c0.2,0.2,0.5,0.3,0.7,0.1c0.1-0.1,0.2-0.1,0.3,0c0.1,0.1,0.1,0.1,0.2,0.1
		c0.1,0,0.1-0.1,0.1-0.2c0-0.2,0-0.5,0-0.7c0-0.3-0.1-0.5,0-0.8c0-0.1,0-0.3-0.1-0.4c0,0,0-0.1-0.1-0.1c-0.2,0-0.2-0.2-0.3-0.2
		c-0.1-0.1-0.1-0.1,0-0.2c0,0,0.1-0.1,0.1-0.1c0.1-0.1,0.2-0.2,0.3,0c0.2,0.2,0.3,0.2,0.6,0.1c0.3-0.1,0.6-0.3,0.9-0.3
		c0.4,0,0.7-0.2,1-0.5c0.2-0.3,0.4-0.7,0.7-0.9c0,0,0.1-0.1,0-0.2c0-0.1-0.1,0-0.2,0c-0.3,0.1-0.6,0.2-0.9,0.3
		c-0.2,0.1-0.5,0.1-0.7,0.2c0,0-0.1,0.1-0.1,0c-0.2,0-0.4,0.1-0.6,0.2c-0.3,0.1-0.4,0.1-0.6-0.2c-0.1-0.2-0.1-0.4-0.2-0.6
		c0-0.2,0-0.3,0-0.5c0-0.2-0.1-0.3-0.1-0.5c-0.1-0.3-0.1-0.5-0.1-0.8c0-0.1,0-0.2-0.1-0.2c-0.1,0-0.1,0.1-0.2,0.1
		c-0.1,0.3-0.3,0.6-0.5,1c0,0,0,0.1-0.1,0.1c-0.4,0.4-0.5,0.9-0.5,1.4c0,0.2,0.1,0.3,0.2,0.4C25.8,8,25.9,8,25.9,8.1
		c0.2,0.2,0.2,0.4-0.1,0.5c-0.1,0.1-0.2,0-0.3-0.1c-0.2-0.1-0.4-0.2-0.6-0.3c0,0,0,0-0.1,0C24.7,8,24.4,8,24.1,8
		c-0.2,0-0.3-0.1-0.4-0.2c-0.2-0.1-0.4-0.2-0.5-0.3c-0.1,0-0.2-0.1-0.2-0.2C23.1,7.2,23.2,7,23.3,7c0.3,0,0.5,0,0.8,0.2
		c0.2,0.1,0.4,0,0.5-0.1c0.3-0.3,0.5-0.7,0.6-1.1c0.1-0.3,0.2-0.7,0.4-1c0.2-0.3,0.3-0.7,0.5-1c0.1-0.1,0.1-0.3,0.1-0.4
		c0-0.1-0.1-0.1-0.1-0.2c-0.3-0.1-0.6-0.2-0.8-0.4c-0.2-0.1-0.2-0.2-0.2-0.4c0.1-0.2,0.3-0.3,0.5-0.2c0.2,0.1,0.4,0.1,0.5,0.2
		c0.1,0,0.2,0.1,0.3,0.2C26.7,3,27,3,27.2,3.1c0.3,0.1,0.6,0.3,0.7,0.6C28,3.8,28,4,28,4.2c0,0.2,0.1,0.4,0.1,0.7c0,0.1,0,0.2,0,0.4
		c0,0.2,0.1,0.4,0.1,0.5c0,0.2,0.1,0.4,0.1,0.6c0,0.1,0.1,0.1,0.2,0.1c0.3-0.1,0.5-0.2,0.8-0.3c0.1,0,0.3-0.1,0.4-0.2
		c0.2-0.1,0.5-0.2,0.7-0.3c0.3-0.2,0.6-0.1,0.8-0.1c0.1,0,0.1,0,0.2,0c0.2,0.1,0.4,0.2,0.5,0.4c0.2,0.2,0.4,0.3,0.7,0.5
		c0.1,0.1,0.2,0.2,0.3,0.2c0.1,0,0.1,0.1,0.2,0.2c0.1,0.1,0.1,0.2,0,0.3c-0.2,0.2-0.2,0.2-0.4,0.1C32.5,7.1,32.2,7,32,6.9
		c-0.1-0.1-0.2,0-0.3,0.1c-0.3,0.4-0.6,0.8-0.9,1.1c-0.2,0.2-0.3,0.3-0.4,0.5c-0.1,0.3-0.3,0.5-0.5,0.7c-0.2,0.2-0.2,0.5-0.4,0.7
		c-0.1,0.1-0.1,0.2,0,0.3c0.1,0.2,0.3,0.3,0.5,0.4c0.1,0.1,0.2,0.2,0.1,0.3c-0.1,0.2-0.2,0.3-0.3,0.4c-0.1,0-0.1,0-0.2-0.1
		c0,0-0.1-0.1-0.1-0.1c-0.2-0.1-0.2-0.1-0.3,0.1c-0.1,0.4-0.1,0.7-0.2,1.1c-0.1,0.5,0,0.9,0,1.4c0,0.1,0,0.1,0,0.2
		c-0.1,0.1-0.1,0.1,0,0.2c0,0,0,0.1,0,0.1c-0.1,0.2-0.1,0.4-0.1,0.5c0,0.4,0,0.8,0,1.2c0,0.1,0,0.2,0,0.3c0,0.1,0,0.2-0.1,0.3
		c-0.1,0-0.1,0.1-0.1,0.2c0,0.1,0.1,0.2,0.2,0.1c0.5-0.1,1,0,1.4,0c0.1,0,0.2,0,0.4,0c0.3,0,0.4,0.2,0.5,0.4c0,0.1,0,0.1,0,0.2
		c0,0.2,0,0.4-0.1,0.6c-0.1,0.2-0.1,0.4-0.1,0.6c0,0.1,0,0.2-0.1,0.2c0,0.1,0,0.2,0,0.2c0.1,0.1,0,0.2,0,0.3
		c-0.1,0.2-0.2,0.5-0.1,0.7c0.1,0.2,0,0.3-0.1,0.4c0,0.2,0,0.4-0.1,0.6c0,0.1,0,0.2-0.1,0.2c0,0-0.1,0.1-0.1,0.1
		c0,0.2,0,0.4-0.1,0.6c-0.1,0.3,0,0.6-0.1,0.9c-0.1,0.4,0,0.8-0.1,1.1c0,0.2-0.1,0.3-0.1,0.5c0,0.1,0,0.2,0,0.2c0,0.1,0,0.2,0,0.3
		c0,0,0,0.1,0,0.2c0.1,0.2,0.1,0.3,0,0.5c0,0.1,0,0.3,0,0.5c0,0.3-0.1,0.5-0.4,0.5c-0.5,0.1-1,0-1.4,0c-0.3,0-0.5,0-0.8,0
		c-0.1,0-0.1,0-0.1,0.1c0,0.1,0,0.1,0.1,0.1c0.1,0,0.1,0.1,0.2,0c0.3-0.1,0.6,0,0.9,0c0.2,0,0.4,0,0.6,0.2c0.2,0.1,0.4,0.2,0.5,0.4
		c0.2,0.1,0.3,0.2,0.5,0.4c0.1,0.1,0.2,0.1,0.2,0c0.1-0.2,0.3-0.3,0.4-0.5c0.1-0.1,0.2-0.1,0.2-0.1c0.2-0.1,0.5-0.3,0.7-0.5
		c0,0,0.1-0.1,0.1-0.1c0.2,0,0.5-0.1,0.7,0c0,0,0.1,0,0.1,0c0.2-0.1,0.4-0.1,0.5,0.1c0,0,0,0,0.1,0c0.3,0,0.5,0.2,0.7,0.4
		c0.1,0.1,0.2,0.3,0.4,0.4c0.3,0.2,0.6,0.4,0.9,0.7c0.1,0.1,0.2,0.1,0.3,0c0.2-0.1,0.3-0.3,0.5-0.5c0.1-0.2,0.3-0.3,0.6-0.4
		c0.2,0,0.4,0.1,0.4,0.3c0,0.1,0,0.1,0,0.2c-0.2,0.2-0.3,0.4-0.5,0.7c-0.3,0.4-0.5,0.8-0.9,1.1c0,0,0,0,0,0c-0.2,0.4-0.5,0.7-0.8,1
		c-0.1,0.1-0.1,0.2-0.1,0.3c-0.1,0.1-0.1,0.1-0.2,0c0,0,0,0,0,0c-0.3,0-0.3-0.2-0.3-0.5c0-0.1,0-0.2,0.1-0.2
		c0.1-0.1,0.2-0.2,0.3-0.3c0,0,0,0,0,0c0.1-0.4,0.1-0.3-0.2-0.6c-0.5-0.4-1-0.7-1.5-1.2c-0.3-0.3-0.7-0.4-1.1-0.3
		c-0.2,0-0.3,0.1-0.5,0.2c-0.2,0.2-0.5,0.5-0.7,0.7c-0.2,0.2-0.3,0.8-0.1,1c0.2,0.3,0.4,0.6,0.7,0.8c0.2,0.2,0.4,0.4,0.6,0.6
		c0.3,0.2,0.5,0.5,0.8,0.7c0.1,0.1,0.2,0,0.2,0c0.1-0.2,0.3-0.3,0.5-0.5c0.2-0.1,0.3-0.1,0.5,0.1c0.1,0.1,0,0.3-0.1,0.4
		c-0.1,0.2-0.3,0.3-0.4,0.5c-0.3,0.3-0.5,0.6-0.8,0.8c-0.1,0.1-0.2,0.2-0.3,0.4c-0.1,0.2-0.3,0.3-0.5,0.5c-0.1,0.1-0.2,0.1-0.3,0
		c-0.2-0.3-0.2-0.4,0.1-0.8c0.1-0.2,0.3-0.2,0.4-0.3c0,0,0,0,0,0c0.1-0.1,0.2-0.2,0.2-0.3c0-0.1-0.1-0.1-0.2-0.2
		c-0.2-0.2-0.5-0.3-0.7-0.6C31.1,32.2,31,32,30.9,32c-0.1-0.1-0.2-0.2-0.3-0.3c-0.2-0.3-0.4-0.5-0.6-0.7c-0.2-0.3-0.3-0.6-0.3-1
		c0-0.3,0-0.5,0.1-0.7c0.1-0.1,0.1-0.2,0.2-0.3c0.1-0.1,0.1-0.2,0.1-0.2c0,0-0.1,0-0.1,0c-0.1,0-0.1,0.1-0.2,0.2c0,0,0,0.1,0,0.1
		c0,0.1-0.1,0.2-0.2,0.1c-0.2-0.2-0.5-0.3-0.7-0.5c-0.3-0.2-0.6-0.4-1-0.3c0,0,0,0-0.1,0c-0.2-0.1-0.5,0-0.7,0.1
		c-0.2,0.1-0.3,0.2-0.5,0.3c-0.3,0.2-0.6,0.3-1,0.4c-0.3,0.1-0.7,0.1-1,0.2c0,0-0.1,0-0.2,0c-0.3-0.1-0.6-0.1-0.9-0.2
		c-0.1-0.1-0.2,0-0.3-0.1c-0.2,0-0.4-0.1-0.5-0.2c-0.1-0.1-0.3-0.1-0.4-0.2c-0.1-0.1-0.2-0.1-0.3-0.1c-0.1-0.1-0.2-0.1-0.3-0.1
		c0,0-0.1,0-0.1,0c-0.2-0.1-0.4-0.1-0.6,0c-0.3,0-0.6,0.1-0.8,0.3c-0.3,0.2-0.6,0.4-0.9,0.5c-0.1,0-0.1,0-0.2,0c0,0-0.1,0-0.1,0
		c-0.2,0.1-0.5,0-0.7,0c-0.1,0-0.2,0-0.3-0.1c-0.3-0.1-0.5-0.2-0.8-0.2c-0.3-0.1-0.5-0.2-0.8-0.4c-0.5-0.2-0.9-0.3-1.5-0.1
		c-0.2,0.1-0.4,0.2-0.6,0.4c-0.2,0.2-0.4,0.2-0.6,0.3c-0.1,0-0.2,0.1-0.2,0.1c-0.3,0.1-0.5,0-0.8-0.1c-0.2-0.1-0.3-0.1-0.5-0.2
		c-0.3-0.1-0.5-0.2-0.7-0.4c-0.1,0-0.1-0.1-0.2-0.1c-0.1,0-0.2-0.1-0.2-0.2c0,0,0-0.1-0.1-0.1c-0.2,0-0.4-0.1-0.6-0.2
		c-0.1,0-0.2,0-0.3-0.1c0,0-0.1,0-0.1,0c-0.3,0.1-0.6-0.2-0.6-0.6c0-0.1,0.1-0.1,0.1-0.1c0.2,0,0.3-0.1,0.4-0.1c0,0,0.1,0,0.1-0.1
		c0,0,0-0.1-0.1-0.1c-0.2-0.2-0.4-0.5-0.4-0.8c0-0.2,0-0.4-0.1-0.6c0-0.1,0-0.1,0-0.2c0-0.1,0-0.3-0.1-0.4c-0.1-0.1-0.1-0.2-0.1-0.3
		c0-0.2,0-0.4-0.1-0.7c-0.1-0.2,0-0.4-0.1-0.6c0-0.1,0-0.1,0-0.2c-0.2-0.4-0.1-0.8-0.3-1.2C9,21.7,9,21.5,9,21.4
		c0-0.3-0.1-0.5-0.1-0.8c0-0.2,0-0.4-0.1-0.6c-0.1-0.4-0.1-0.7-0.2-1.1c0-0.1-0.1-0.3,0-0.5c0-0.3-0.1-0.6,0-0.9c0,0,0-0.1,0-0.1
		c-0.1-0.2-0.1-0.4,0.1-0.6c0.1-0.1,0.1-0.1,0.2-0.1c0.2,0.1,0.3,0,0.5,0c0.3,0,0.7,0.1,1,0c0.1,0,0.3,0,0.4-0.1c0.1,0,0.1,0,0.2,0
		c0.2,0.1,0.3,0,0.5,0c0.1,0,0.2-0.1,0.2-0.2c0-0.1,0-0.2,0-0.3c0-0.1-0.1-0.3,0-0.4c0,0,0-0.1,0-0.1c-0.2-0.3,0-0.6-0.1-0.9
		c0-0.3,0-0.5,0-0.8c0-0.3,0-0.5,0-0.8c0.1-0.5,0-1.1,0-1.6c0-0.1,0-0.3-0.1-0.4c-0.1-0.3,0-0.7-0.1-1c0-0.1,0-0.2-0.1-0.3
		c-0.1-0.1-0.1-0.2,0-0.3c0.1-0.1,0.1-0.2,0-0.3c-0.1-0.2-0.1-0.3-0.1-0.5c0-0.1,0.1-0.1,0.1-0.2c0.1-0.1,0.2-0.1,0.2-0.2
		c0.2-0.2,0.2-0.3,0-0.4c-0.2-0.2-0.3-0.5-0.4-0.8c-0.1-0.3-0.3-0.5-0.5-0.7c-0.2-0.3-0.4-0.6-0.5-0.9C10,5.5,9.9,5.5,9.9,5.5
		C9.6,5.8,9.3,5.8,9,5.9C8.9,6,8.6,5.8,8.6,5.7c-0.1-0.1,0-0.3,0.2-0.4c0.4-0.2,0.8-0.5,1.1-0.7c0.1-0.1,0.2-0.2,0.4-0.3
		c0,0,0.1-0.1,0.1-0.1c0.3-0.1,0.5-0.3,0.8-0.4c0.3-0.1,0.5-0.2,0.7-0.4c0.3-0.1,0.5-0.1,0.8-0.2c0.1-0.1,0.3,0,0.4,0
		c0.2,0,0.5,0,0.7,0.1c0.2,0.1,0.3,0.2,0.5,0.2c0.1,0,0.1,0.1,0.2,0.1c0.1,0.2,0.4,0.4,0.5,0.7c0.1,0.2,0,0.4,0,0.7
		c0,0.3-0.1,0.5-0.3,0.7c-0.1,0.1-0.1,0.1,0,0.2c0,0.1,0.1,0,0.1,0c0.2,0,0.4,0.1,0.6,0c0.3,0.2,0.6,0.2,0.8,0.6
		c0.1,0.2,0.1,0.3,0.3,0.4c0,0,0,0,0,0.1c0,0.2,0.2,0.3,0.4,0.3c0.2,0,0.3,0.1,0.5,0.1c0.1,0,0.1,0,0.2,0c0.1,0,0.2,0,0.2,0.2
		c0,0.1-0.1,0.1-0.1,0.2c-0.2,0.1-0.3,0.2-0.5,0.2c0,0-0.1,0-0.2,0C16.6,8,16.3,8.1,16,8c0,0-0.1,0-0.2,0c0,0-0.1,0-0.1,0
		c-0.3-0.1-0.6-0.2-0.7-0.4c-0.1-0.2-0.2-0.3-0.3-0.5c-0.1-0.1-0.1-0.2-0.2-0.4c-0.2-0.3-0.4-0.3-0.7-0.2c-0.4,0.1-0.7,0.3-1,0.5
		c-0.2,0.1-0.2,0.2,0,0.3c0.1,0.1,0.2,0.2,0.2,0.3c0.1,0.4,0.4,0.4,0.6,0.5c0.2,0.1,0.4,0,0.6,0c0.2-0.1,0.4,0.1,0.5,0.3
		c0,0.1,0,0.1-0.1,0.2C14.2,8.8,14.1,9,14,9.2c0,0,0,0,0,0.1c-0.2,0.5-0.2,1-0.4,1.5c-0.1,0.2,0,0.3,0.3,0.3c0.1,0,0.2,0,0.3,0
		c0.1,0,0.2,0,0.4-0.1c0.1-0.1,0.2,0,0.3,0.1c0.1,0.2,0.3,0.2,0.4,0.2c0.1,0,0.2,0,0.2,0c0.1,0,0.1,0,0.2,0c0.2-0.2,0.4-0.1,0.6,0.1
		c0.1,0.1,0.1,0.1,0.2,0.1c0,0,0.1,0,0.1,0c0.2,0.1,0.4-0.1,0.6-0.2c0.2-0.1,0.3-0.1,0.4,0c0.1,0.1,0.2,0.2,0.4,0.1
		c0.1,0,0.2,0.1,0.4,0.1c0.1,0,0.2,0,0.3-0.1c0.1-0.1,0.2-0.1,0.3,0c0.1,0.1,0.2,0.1,0.3,0.2c0.2,0.1,0.3,0.1,0.3-0.1
		c0-0.2,0.1-0.4,0.1-0.5c0-0.1-0.1-0.2-0.2-0.2c-0.2,0-0.4,0-0.7,0.1c-0.2,0.1-0.4,0.1-0.6,0.1c-0.2,0-0.2-0.2-0.2-0.3
		c0-0.3,0-0.5,0.1-0.8c0.1-0.2,0-0.4-0.1-0.6c0-0.2,0-0.4,0.1-0.6c0-0.1,0.1-0.1,0.2-0.1c0.2,0.1,0.5,0.1,0.7,0.1
		c0.1,0,0.1,0,0.2,0.1c0.1,0.1,0.1,0.1,0.2,0c0.1,0,0-0.1,0-0.2c-0.1-0.3-0.1-0.6-0.2-0.9c0-0.1-0.1-0.2-0.2-0.2
		c-0.3-0.1-0.6-0.2-0.8-0.4c0,0-0.1,0-0.1,0c-0.2,0-0.3-0.1-0.5-0.2c-0.1-0.1-0.2-0.2-0.4-0.2c-0.1,0-0.1,0-0.2-0.1
		c-0.1-0.2-0.3-0.4-0.4-0.6c-0.1-0.3-0.3-0.5-0.3-0.8c0-0.1,0-0.1-0.1-0.2c0,0-0.1-0.1,0-0.1c0.1-0.3,0-0.7,0.1-1
		c0.1-0.4,0.3-0.7,0.6-1c0.2-0.1,0.3-0.3,0.4-0.4c0.3-0.2,0.6-0.5,1.1-0.5c0,0,0.1,0,0.1,0c0.2-0.1,0.3-0.1,0.5-0.1
		c0,0-0.1-0.1-0.1-0.1c0.4,0,0.9,0,1.3,0c0,0-0.1,0.1,0,0.1c0.1,0,0.2,0,0.4,0C21,1.7,21,1.7,21,1.6C21.1,1.6,21.2,1.6,21.3,1.6z
		 M18.7,19.8c0.1,0,0.2,0,0.3,0c0.2,0,0.3-0.1,0.2-0.3c-0.1-0.3-0.1-0.6-0.1-0.9c0-0.2,0-0.3,0-0.5c0.1-0.2,0-0.4,0-0.6
		c0-0.3,0.2-0.5,0.5-0.4c0.1,0,0.2,0,0.3,0c0.2,0,0.5,0,0.7,0c0.4,0,0.7,0,1.1,0c0.4,0.1,0.6,0.4,0.5,0.7c0,0.1,0,0.1,0,0.2
		c0,0.2,0,0.5,0,0.7c0,0.2-0.1,0.3-0.1,0.5c0,0.4-0.1,0.5,0.5,0.5c0.3,0,0.5,0,0.8,0c0.1,0,0.2,0,0.2-0.1c0-0.2,0-0.3,0-0.5
		c0-0.5,0-1,0-1.4c0-0.4-0.1-0.5-0.5-0.4c0,0,0,0,0,0c-0.2,0.1-0.4,0-0.6-0.1c-0.1,0-0.1-0.1-0.1-0.2c-0.1-0.1-0.2-0.2-0.2-0.4
		c0-0.2,0-0.4-0.1-0.5c-0.2-0.3-0.2-0.7-0.4-1c-0.1-0.3-0.2-0.5-0.4-0.8c-0.2-0.2-0.3-0.5-0.6-0.6c-0.1-0.1-0.2-0.1-0.2,0
		c-0.2,0.2-0.3,0.3-0.5,0.5c-0.3,0.3-0.4,0.8-0.7,1.1c0,0,0,0,0,0.1c0,0.3-0.2,0.6-0.4,0.9c-0.1,0.2-0.2,0.3-0.2,0.5
		c0,0.1-0.1,0.2-0.3,0.2c-0.1,0-0.2,0-0.3,0c-0.1,0-0.2,0-0.2,0.1c0,0.1,0,0.1,0.1,0.2c0.1,0,0.1,0.1,0.1,0.2c0,0.4,0,0.9-0.1,1.3
		c0,0.2-0.1,0.4-0.1,0.7c0,0.2,0.1,0.3,0.3,0.3C18.3,19.8,18.5,19.8,18.7,19.8z M24.8,28.3c0.1,0,0.2,0,0.2-0.1
		c0-0.2,0.1-0.2,0.2-0.2c0.2,0,0.4-0.1,0.7-0.2c0.1,0,0.3-0.1,0.4-0.2c0.3-0.2,0.5-0.3,0.8-0.3c0,0,0.1,0,0.1,0c0,0,0.1,0,0.1-0.1
		c0-0.1-0.1-0.1-0.1-0.1c-0.2,0-0.5,0-0.7,0c-0.3-0.1-0.7,0-1-0.1c0,0-0.1,0-0.1,0c-0.5,0-0.9,0.1-1.4,0c-0.1,0-0.2,0.1-0.3,0
		c-0.1,0-0.2-0.1-0.4,0c-0.4,0.1-0.8,0-1.1,0c-0.3,0-0.6,0-0.9,0c-0.5,0-1.1,0-1.6,0c-0.2,0-0.5,0-0.7,0c-0.3,0-0.7,0.1-1,0
		c-0.6-0.1-1.2,0-1.8,0c-0.6,0-1.1,0-1.7,0c-0.3,0-0.5,0-0.8,0.1c-0.1,0-0.1,0-0.2,0c-0.3,0-0.5,0-0.8,0c-0.3,0-0.7-0.1-1-0.1
		c-0.3,0-0.5,0-0.8,0c-0.1,0-0.2,0-0.2,0.1c0,0.1,0.1,0.1,0.2,0.1c0.3-0.1,0.5,0.1,0.8,0.2c0.4,0.2,0.8,0.4,1.1,0.7
		c0.1,0.1,0.4,0,0.5-0.1c0.1-0.1,0.2-0.2,0.3-0.3c0.1,0,0.2-0.1,0.2-0.2c0.1-0.1,0.2-0.2,0.4-0.2c0.1,0,0.2,0,0.3-0.1
		c0,0,0.1-0.1,0.2-0.1c0.5-0.1,1,0,1.4,0c0,0,0.1,0,0.1,0c0.4,0.2,0.7,0.4,1.1,0.6c0.2,0.1,0.4,0.3,0.7,0.2c0.1,0,0.2,0,0.2,0
		c0.1,0,0.1,0,0.2-0.1c0.1-0.1,0.2-0.2,0.3-0.2c0.2,0,0.3-0.1,0.5-0.2c0.2-0.1,0.3-0.3,0.5-0.3c0.4-0.1,0.8-0.1,1.2-0.2
		c0.3,0,0.6,0,0.9,0.1c0.3,0.1,0.7,0.1,1,0.3c0.3,0.2,0.6,0.4,0.9,0.6c0,0,0.1,0.1,0.1,0.1C24.1,28.2,24.4,28.2,24.8,28.3z
		 M13.3,19.8c0.2,0,0.4,0,0.6,0c0.2,0,0.2-0.1,0.2-0.2c0-0.4,0-0.8,0-1.2c0-0.1,0-0.2,0-0.3c-0.1-0.4-0.1-0.7,0.2-1
		c0.1-0.1,0-0.1-0.1-0.1c-0.4,0-0.8-0.2-1.2-0.1c-0.3,0.1-0.6,0-0.8,0c-0.1,0-0.1,0-0.2,0.1c0,0.1,0,0.1,0.1,0.2
		c0.1,0.2,0.2,0.4,0.2,0.6c0,0.3,0,0.6,0,1c0,0.4,0,0.8,0,1.1c0,0.1,0.1,0.2,0.2,0.1C12.8,19.8,13.1,19.8,13.3,19.8z M18.7,9.7
		c0,0.1,0,0.1,0,0.1c0,0.1-0.1,0.1,0,0.2c0.1,0,0.1-0.1,0.2-0.1c0.2-0.1,0.4-0.3,0.7-0.3c0.1,0,0.2,0.1,0.3,0.1
		c0.2-0.1,0.5,0,0.8-0.1c0.1,0,0.1,0,0.2,0c0,0.1,0.1,0.2,0,0.2c-0.1,0.1-0.2,0.3-0.3,0.4c-0.1,0.1-0.1,0.2-0.2,0.3c0,0,0,0.1,0,0.1
		c0.1,0.1,0.1,0.3,0.1,0.4c-0.1,0.4-0.1,0.7-0.5,0.9c-0.1,0.1-0.2,0.1-0.2,0.3c0,0.2-0.1,0.4-0.2,0.4c-0.2,0-0.3,0.1-0.4,0.3
		c0,0-0.1,0.1,0,0.1c0,0.1,0.1,0.1,0.2,0.1c0.1,0,0.1,0,0.2-0.1c0.2-0.2,0.5-0.4,0.7-0.7c0.1-0.1,0.2-0.3,0.4-0.2
		c0.2,0.1,0.3,0.2,0.4,0.3c0.2,0.2,0.3,0.5,0.6,0.7c0.3,0.2,0.4,0.5,0.5,0.7c0.2,0.4,0.5,0.7,0.7,1.1c0.2,0.3,0.2,0.6,0.4,0.8
		c0.1,0.1,0.2,0.2,0.2,0.3c0,0.1,0.1,0.1,0.2,0.1c0.1,0,0.2,0,0.2,0c0.1,0,0.1,0,0.2,0c0-0.1,0-0.1-0.1-0.1c0,0-0.1-0.1-0.1-0.1
		c-0.1,0-0.2-0.1-0.3-0.2c-0.1-0.1-0.2-0.2-0.3-0.3c0,0-0.1-0.1-0.1-0.1c-0.1-0.3-0.2-0.7-0.4-0.9c-0.1-0.1-0.2-0.2-0.2-0.4
		c-0.1-0.3-0.3-0.5-0.5-0.8c-0.2-0.2-0.4-0.4-0.5-0.6c-0.2-0.4-0.6-0.5-0.7-0.8c-0.1-0.1-0.1-0.2,0-0.3c0,0,0.1,0,0.1-0.1
		c0-0.3,0.1-0.6,0.1-0.9c0-0.3-0.1-0.5,0.2-0.7c0,0,0,0,0-0.1c-0.1-0.2,0.1-0.3,0-0.4c-0.1-0.4,0-0.7,0-1.1c0-0.2,0.1-0.4,0.3-0.5
		c0.2-0.1,0.4-0.2,0.6-0.3c0,0,0.1,0,0.1-0.1c0-0.1-0.1-0.1-0.1-0.1c-0.2,0.1-0.3,0-0.5,0c-0.2,0-0.5,0-0.7,0c-0.1,0-0.1,0-0.1,0
		c0,0.1,0,0.1,0,0.1c0.1,0.1,0.2,0.1,0.2,0.2c0.1,0,0.2,0.1,0.1,0.2c-0.1,0.1-0.1,0-0.2,0c-0.2-0.1-0.3-0.3-0.5-0.5
		c0-0.1-0.1-0.1-0.1-0.1c-0.1,0,0,0.1,0,0.2c0.3,0.4,0.3,0.9,0.3,1.4c0,0.2-0.2,0.3-0.4,0.3c-0.3-0.1-0.6-0.1-0.9-0.2
		c0,0-0.1,0-0.1,0c0,0.1,0,0.1,0.1,0.1c0,0,0,0.1,0,0.1c0,0.1-0.1,0-0.1,0C18.7,9.4,18.7,9.4,18.7,9.7C18.7,9.6,18.7,9.7,18.7,9.7z
		 M13.6,5.2c0-0.1,0-0.2-0.1-0.3c-0.1-0.1-0.2-0.1-0.2-0.2c-0.1-0.3-0.2-0.5-0.4-0.7c-0.1-0.1-0.1-0.1-0.2,0C12.4,4,12.2,4.1,12,4.1
		c-0.3,0.1-0.6,0.2-0.9,0.5c-0.1,0.1-0.1,0.2,0,0.3c0.1,0.1,0.2,0.2,0.2,0.3c0.2,0.3,0.3,0.6,0.5,0.9C11.9,6.1,12,6.2,12,6.3
		c0,0.1,0.1,0.1,0.1,0.1c0.1,0,0.3,0.1,0.4-0.1c0.2-0.2,0.5-0.3,0.7-0.4C13.6,5.7,13.6,5.5,13.6,5.2z M15.4,19.8c0.1,0,0.2,0,0.4,0
		c0.1,0,0.2,0,0.2-0.1c0-0.2,0.1-0.1,0.2-0.1c0,0,0.1,0,0.1,0c0.1,0,0.1,0,0.1-0.1c0-0.1,0-0.1-0.1-0.1c-0.1,0-0.1,0-0.2-0.1
		c-0.1-0.1-0.3-0.1-0.2-0.3c0.1-0.2,0.2-0.1,0.3-0.1c0.1,0,0.2,0,0.2-0.1c0-0.1-0.1-0.1-0.1-0.2c-0.2,0-0.3-0.2-0.3-0.3
		c0-0.1,0-0.1,0.1-0.2c0.1,0,0.2,0,0.2,0c0,0,0.1,0.1,0.1,0.1c0.1,0,0.1,0.1,0.2,0c0-0.1,0-0.1-0.1-0.2c-0.1,0-0.2-0.1-0.2-0.1
		c-0.1-0.1-0.1-0.3-0.1-0.3c0.1-0.1,0.2,0,0.3,0c0,0,0.1,0,0.1,0c0.1,0,0.2,0,0.2-0.1c0-0.1,0-0.1-0.1-0.2c-0.4-0.1-0.8,0-1.1-0.1
		c-0.1,0-0.2,0-0.3,0c-0.1,0-0.1,0-0.1,0.1c0,0.1,0.1,0.1,0.1,0.1c0.1,0,0.1,0,0.1,0.1c0,0.1,0,0.2-0.1,0.2
		c-0.2,0.1-0.2,0.3-0.1,0.5c0.1,0.1,0.1,0.3,0,0.3c-0.1,0-0.1,0.1-0.1,0.2c0,0.2,0,0.4-0.1,0.5c-0.1,0.2,0,0.3,0.2,0.3
		C15.2,19.8,15.3,19.8,15.4,19.8z M10.2,17.4C10.1,17.4,10.1,17.4,10.2,17.4c-0.2,0-0.4-0.1-0.4,0.1c0,0.1-0.1,0.1-0.2,0.1
		c-0.1,0-0.2,0-0.2,0.1c0,0.1,0.1,0.1,0.1,0.2C9.6,18,9.7,18,9.7,18.1c0,0.1-0.1,0.1-0.2,0.2c0,0-0.1,0.1-0.1,0.1
		c0,0.1,0.1,0.1,0.1,0.1c0.1,0,0.1,0,0.2,0c0.1,0,0.1,0,0.2,0.1c0,0.1,0,0.1,0,0.2c0,0.1-0.1,0.1-0.2,0.1c-0.1,0-0.1,0-0.1,0.1
		c0,0.1,0,0.1,0.1,0.2c0.2,0.1,0.2,0.2,0.1,0.4c-0.1,0.1-0.1,0.2,0,0.3c0.2,0.2,0.5,0.2,0.7,0c0.1-0.1,0.3-0.2,0.5-0.2
		c0.1,0,0.2,0,0.2-0.1c0-0.1-0.1-0.2-0.2-0.2c0,0,0,0-0.1,0c-0.1,0-0.2,0-0.3-0.1c0,0-0.1-0.1-0.1-0.1c0-0.1,0.1-0.1,0.2-0.1
		c0.1,0,0.2,0,0.3,0c0.1,0,0.2,0,0.2-0.1c0-0.1,0-0.1-0.1-0.2c-0.1,0-0.2-0.1-0.3-0.2c-0.1-0.1-0.1-0.1,0-0.2c0.1-0.1,0.2-0.1,0.3,0
		c0.1,0,0.1,0,0.2,0c0,0,0-0.1,0-0.1c0-0.1-0.1-0.1-0.2-0.1c-0.2,0-0.3-0.1-0.4-0.2c-0.1-0.1-0.1-0.1,0-0.2c0-0.1,0.1-0.1,0.2-0.1
		c0.1,0,0.1,0,0.2,0c0.1,0,0.2,0,0.2-0.1c0-0.1-0.1-0.1-0.2-0.1C10.7,17.4,10.5,17.3,10.2,17.4z M27.3,17.2
		C27.3,17.2,27.3,17.2,27.3,17.2c-0.1,0-0.2,0-0.4,0c-0.1,0-0.1,0-0.1,0.1c0,0.1,0,0,0.1,0.1c0.1,0.1,0.2,0.2,0.2,0.3
		c0.1,0.1,0,0.3,0,0.4c0,0.4,0,0.7,0,1.1c0,0.1,0,0.2,0,0.3c-0.1,0.2,0,0.3,0,0.5c0,0.1,0.1,0.2,0.2,0.2c0.1,0,0.3,0,0.4,0
		c0.2,0,0.4-0.1,0.3-0.3c0-0.2,0-0.5,0-0.7c0-0.2,0-0.4,0-0.6c0-0.3-0.1-0.6,0.2-0.8c0.1-0.1,0-0.2,0-0.2c-0.1,0-0.3-0.1-0.4-0.1
		C27.6,17.2,27.4,17.2,27.3,17.2z M24.3,17.7c-0.1,0-0.2,0-0.2,0c-0.1,0.1-0.2,0.2-0.1,0.3c0.1,0.1,0.1,0.2,0,0.3
		c-0.1,0.1-0.1,0.2,0,0.3c0.1,0.1,0.1,0.2,0,0.3c-0.1,0.2-0.1,0.3,0,0.5c0.1,0.1,0.2,0.2,0.2,0.3c0.1,0.2,0.3,0.3,0.4,0.3
		c0.3,0,0.5-0.1,0.8-0.1c0.1,0,0.1,0,0-0.1c-0.1-0.1-0.2-0.1-0.2-0.1c-0.1-0.1-0.2-0.2-0.1-0.3c0-0.1,0.1-0.2,0.3-0.1
		c0.1,0,0.1,0.1,0.2,0c0-0.1,0-0.1-0.1-0.2c-0.1,0-0.2-0.1-0.3-0.2c-0.1-0.1,0-0.2,0.1-0.3c0.1,0,0.2,0,0.3,0c0.1,0,0.1,0.1,0.2,0
		c0-0.1,0-0.1-0.1-0.2c-0.1,0-0.1,0-0.2,0c-0.1,0-0.2-0.1-0.3-0.2c-0.1-0.2-0.2-0.3-0.4-0.2c-0.1,0-0.2,0-0.2,0
		C24.5,17.7,24.4,17.7,24.3,17.7z M19.6,19.4c0,0.1,0,0.1,0,0.1c0.2,0.1,0.3,0.3,0.4,0.4c0.1,0.1,0.1,0.1,0.2,0
		c0.1-0.1,0.3-0.1,0.4-0.1c0.1,0,0.1-0.1,0.1-0.2c-0.1-0.2-0.1-0.3,0.1-0.4c0.1,0,0.1,0,0.1-0.1c0-0.1-0.1-0.1-0.1-0.1
		c0,0,0,0-0.1,0c-0.1-0.1-0.2-0.1-0.1-0.2c0-0.1,0.1-0.1,0.2-0.1c0.1,0,0.1,0,0.1-0.1c0-0.1,0.1-0.1,0-0.2c-0.1-0.1-0.1-0.1-0.2-0.2
		c-0.1,0-0.2-0.1-0.2-0.2c0-0.1,0.1-0.2,0.3-0.2c0,0,0,0,0,0c0.1,0,0.1,0,0.1-0.1c0-0.1-0.1-0.1-0.1-0.1c-0.3,0.1-0.6,0-0.9,0
		c-0.1,0-0.2-0.1-0.3,0.1c0,0.1,0,0.2,0.1,0.2c0.1,0.1,0.1,0.2,0,0.3c-0.1,0.1-0.1,0.1,0,0.2c0.1,0.1,0.1,0.2,0,0.3
		c-0.1,0.1-0.1,0.1-0.1,0.2C19.6,19.1,19.7,19.2,19.6,19.4z M28.8,20.1c0.2,0,0.4-0.1,0.5-0.1c0.1,0,0.2,0,0.2-0.2
		c0-0.1-0.1-0.2-0.2-0.2c-0.2-0.1-0.2-0.3,0-0.4c0.1-0.1,0.1-0.2,0-0.2c0,0-0.1,0-0.1,0c-0.1,0-0.1-0.1-0.1-0.2
		c0-0.1,0.1-0.1,0.1-0.2c0.1,0,0.1,0,0.2,0c0.1,0,0.2,0,0.2-0.1c0-0.1,0-0.1-0.1-0.1c0,0-0.1,0-0.1,0c-0.1,0-0.1-0.1-0.1-0.2
		c0-0.1,0.1-0.1,0.2-0.1c0,0,0.1,0,0.1,0c0,0,0.1,0,0.1-0.1c0-0.1,0-0.1-0.1-0.1c-0.1-0.1-0.1,0-0.2-0.1c-0.2,0-0.3,0-0.5-0.1
		c-0.1,0-0.2,0-0.2,0c-0.1,0.1,0,0.2,0,0.2c0.1,0.2,0.1,0.3,0,0.4c-0.1,0.1-0.1,0.2,0,0.3c0.1,0.1,0.1,0.2,0,0.3
		c-0.1,0.1-0.1,0.2,0,0.3c0.1,0.1,0.1,0.2,0,0.3c-0.1,0.1-0.1,0.3-0.1,0.4C28.5,20.1,28.7,20.1,28.8,20.1z M21,20.5
		c-0.1,0-0.1,0-0.2,0c-0.1,0-0.2-0.1-0.2,0.1c0,0.1,0.1,0.1,0.2,0.1c0.1,0,0.1,0,0.2,0c0.1,0,0.2,0,0.2,0.1c0.3,0.2,0.6,0.6,0.8,0.9
		c0.1,0.1,0.1,0.1,0.2,0c0.1-0.1,0.2-0.1,0.3-0.2c0.1,0,0.1-0.1,0.1-0.2c0-0.1-0.1-0.2-0.1-0.3c0-0.3-0.2-0.4-0.5-0.4
		C21.7,20.5,21.3,20.5,21,20.5z M14.9,21.5C14.9,21.5,14.9,21.5,14.9,21.5c0,0,0.1,0,0.1,0c0.2,0,0.3-0.1,0.3-0.3
		c0-0.2,0-0.4,0.1-0.6c0.1-0.1,0-0.2-0.1-0.2c-0.3,0-0.6,0-0.9,0c-0.3,0-0.4,0.2-0.3,0.4c0.1,0.1,0.1,0.2,0.1,0.4
		c0,0.2,0.1,0.3,0.3,0.3C14.6,21.5,14.7,21.5,14.9,21.5z M13.1,21.5C13.1,21.5,13.1,21.5,13.1,21.5c0.1,0,0.2,0,0.3,0
		c0.2,0,0.2-0.1,0.2-0.2c0-0.2,0-0.4,0-0.6c0-0.1,0-0.2-0.1-0.1c-0.2,0-0.4,0-0.5,0c-0.3,0-0.3,0-0.5,0.3c-0.1,0.2-0.1,0.3,0,0.4
		c0.1,0.2,0.1,0.3,0.4,0.3C13,21.5,13.1,21.5,13.1,21.5z M18.2,14.2c-0.2,0-0.4,0.2-0.4,0.4c0,0.2-0.1,0.3-0.2,0.3
		c-0.1,0-0.1,0.1-0.2,0.1c-0.2,0.1-0.2,0.3-0.1,0.4c0.1,0,0.2,0.1,0.1,0.2c0,0.1-0.1,0.1-0.2,0.1c-0.2,0-0.4,0.1-0.5,0.2
		c0,0.1-0.1,0.1,0,0.2c0.1,0.1,0.2,0,0.2,0c0.1-0.1,0.2-0.2,0.3-0.1c0.2,0.1,0.3,0,0.3-0.1c0.1-0.1,0.2-0.2,0.2-0.3c0,0,0-0.1,0-0.1
		c0.2-0.3,0.4-0.5,0.5-0.8c0.1-0.1,0.2-0.2,0.1-0.3C18.4,14.2,18.2,14.2,18.2,14.2z M18.8,21.6c0.2-0.1,0.4-0.2,0.5-0.4
		c0.2-0.2,0.4-0.5,0.7-0.6c0,0,0.1,0,0.1-0.1c0-0.1-0.1-0.1-0.1-0.1c0,0-0.1,0-0.1,0c-0.2,0-0.3,0.1-0.5,0c-0.3-0.1-0.6,0-0.7,0.3
		c-0.1,0.2-0.2,0.3-0.2,0.4c0,0.2,0,0.2,0.1,0.3C18.7,21.6,18.7,21.6,18.8,21.6z M27.5,21.3c-0.1-0.2-0.1-0.4-0.2-0.6
		c0-0.1-0.1-0.1-0.2,0c-0.1,0.1-0.2,0.1-0.3,0.1c-0.2,0-0.4-0.1-0.6-0.1c-0.1,0-0.1,0-0.2,0c0,0.1,0,0.1,0,0.2
		c0.2,0.2,0.2,0.4,0.3,0.6c0,0.1,0.1,0.1,0.2,0.1c0.1,0,0.3,0,0.4,0c0.1,0,0.2,0,0.3,0C27.3,21.6,27.5,21.5,27.5,21.3z M27.2,23.3
		c0.1,0,0.2,0,0.2-0.1c0.1-0.3,0-0.5,0.1-0.8c0-0.1,0-0.2-0.1-0.2c-0.2,0-0.4-0.2-0.6,0c0,0,0,0,0,0c-0.2,0-0.3,0.1-0.3,0.2
		c0,0.2,0,0.4,0.1,0.6c0,0.2,0.1,0.3,0.3,0.3C27,23.3,27.1,23.3,27.2,23.3z M16.1,20.5C16.1,20.5,16.1,20.5,16.1,20.5
		c-0.3,0-0.4,0.1-0.3,0.4c0,0.1,0,0.1,0,0.2c0,0.1-0.1,0.1,0,0.2c0.1,0.2,0.2,0.3,0.4,0.3c0.1,0,0.1,0,0.2,0c0.2,0,0.3-0.1,0.3-0.2
		c0-0.2,0-0.4,0.2-0.5c0,0,0.1-0.1,0.1-0.1c0-0.1-0.1-0.1-0.2-0.1C16.5,20.5,16.3,20.5,16.1,20.5z M24.1,21.5
		C24.1,21.4,24.1,21.4,24.1,21.5c-0.1-0.3-0.2-0.5-0.3-0.8c0-0.1-0.1-0.1-0.2-0.1c-0.3,0-0.5-0.1-0.7-0.1c-0.1,0-0.1,0-0.2,0.1
		c0,0.1,0,0.1,0.1,0.2c0.1,0.1,0.2,0.3,0.2,0.5c0.1,0.2,0.3,0.4,0.5,0.3c0.1,0,0.3-0.1,0.4,0C24,21.6,24.1,21.5,24.1,21.5z
		 M25.4,21.6c0.2,0,0.2-0.1,0.2-0.2c0-0.2,0-0.3-0.1-0.5c0-0.2-0.1-0.3-0.3-0.3c-0.2,0-0.4,0-0.7,0c0,0-0.1-0.1-0.1,0
		c0,0.1,0,0.1,0,0.2c0.2,0.2,0.2,0.4,0.2,0.6c0,0.1,0.1,0.1,0.1,0.1C25,21.5,25.3,21.4,25.4,21.6z M13,23.6c-0.2,0-0.2,0-0.3,0.2
		c-0.1,0.2,0,0.3,0,0.4c0,0.2,0.1,0.3,0.3,0.3c0.1,0,0.2,0,0.3,0.1c0.1,0.1,0.1,0,0.2,0c0,0,0-0.1,0-0.1c0-0.2,0-0.4,0-0.6
		c0-0.2,0-0.2-0.2-0.3C13.2,23.5,13.1,23.6,13,23.6z M28.7,23.4c0.1,0,0.1,0,0.2-0.1c0.1-0.1,0.2-0.2,0.3-0.2c0.1,0,0.1,0,0.1-0.1
		c0-0.1-0.1-0.1-0.1-0.1c-0.2,0-0.3-0.1-0.3-0.3c0-0.2,0.1-0.3,0.2-0.3c0,0,0.1,0,0.1-0.1c0-0.1-0.1-0.1-0.1-0.1c-0.2,0-0.4,0-0.6,0
		c-0.1,0-0.1,0.1-0.1,0.1c0,0.2,0,0.3,0,0.5C28.2,23.2,28.3,23.4,28.7,23.4z M13.6,22.5c0-0.4-0.1-0.5-0.3-0.5c-0.1,0-0.3,0-0.4,0
		c-0.1,0-0.1,0-0.2,0.1c-0.1,0.3,0,0.5,0.1,0.7c0,0.1,0.1,0.1,0.1,0.1c0.1,0,0.2,0,0.3,0C13.5,23,13.6,23,13.6,22.5
		C13.6,22.6,13.6,22.5,13.6,22.5z M14.2,24.1c0,0.4,0,0.5,0.4,0.5c0.3,0,0.4,0,0.5-0.2c0-0.2,0-0.5,0-0.7c0,0,0-0.1-0.1-0.1
		c-0.1-0.1-0.5-0.1-0.6,0c-0.1,0.1-0.1,0.1-0.1,0.2C14.2,23.9,14.2,24,14.2,24.1z M24.1,23.1C24.1,23.1,24.1,23.1,24.1,23.1
		c0,0,0.1,0,0.1,0c0.2,0,0.2,0,0.2-0.2c0-0.1,0-0.2,0-0.3c0-0.2,0-0.4-0.2-0.4c-0.1,0-0.3-0.1-0.4,0c0,0,0,0,0,0
		c-0.2,0.1-0.3,0.2-0.2,0.4c0.1,0.1,0.1,0.2,0.1,0.4C23.7,23.1,23.7,23.1,24.1,23.1C24,23.1,24,23.1,24.1,23.1z M10.2,20.4
		c-0.1,0-0.2,0-0.3,0.1c0,0-0.1,0-0.1,0.1c0,0,0,0.1,0,0.1c0,0,0.1,0,0.1,0c0.1,0,0.1,0,0.1,0.1c0,0.1,0,0.1-0.1,0.1
		c-0.3,0.2,0.2,0.3,0,0.4c0,0,0,0.1,0.1,0.1c0,0,0,0,0.1,0c0.2,0,0.3-0.1,0.5-0.1c0.1,0,0.1-0.1,0.1-0.2c-0.1-0.2,0-0.3,0-0.5
		c0-0.1,0-0.2-0.1-0.2C10.5,20.4,10.4,20.4,10.2,20.4z M25.7,22.5c0-0.4,0-0.4-0.4-0.4c0,0,0,0-0.1,0c-0.2,0-0.3,0.1-0.3,0.3
		c0,0.2,0,0.3,0.1,0.5c0,0.1,0,0.3,0.2,0.3c0.1,0,0.3,0,0.4,0c0.1,0,0.2-0.2,0.1-0.3C25.7,22.8,25.8,22.6,25.7,22.5z M28.7,21
		c0-0.2,0-0.3-0.2-0.3c-0.1,0-0.2,0-0.3,0c-0.1,0-0.2,0-0.2,0.2c0,0.2,0.1,0.4,0.2,0.6c0,0.1,0.1,0.2,0.2,0.2c0.2,0,0.3,0,0.5,0
		c0.1,0,0.2-0.1,0.2-0.2c0-0.1-0.1-0.1-0.1-0.1c0,0-0.1-0.1-0.1-0.1C28.7,21.2,28.7,21.1,28.7,21z M14.7,22.1
		c-0.2,0-0.3,0.1-0.4,0.3c0,0.1,0,0.3,0,0.4c0,0.1,0.1,0.1,0.1,0.1c0.2,0.1,0.4,0,0.5,0c0.2,0,0.1-0.2,0.1-0.3c0,0,0-0.1,0-0.1
		C15.2,22.2,15.1,22.1,14.7,22.1C14.7,22.1,14.7,22.1,14.7,22.1z M28.1,24.4c0,0.2,0.1,0.4,0.2,0.3c0.2,0,0.3,0,0.5,0
		c0.1,0,0.2,0,0.3-0.2c0-0.1-0.1-0.2-0.2-0.2c-0.1-0.1-0.2-0.1-0.2-0.3c0-0.1,0-0.1-0.1-0.1C28.4,23.9,28.1,24.1,28.1,24.4z
		 M24.6,24.3C24.6,24.3,24.6,24.3,24.6,24.3c0-0.1,0-0.2,0-0.2c0-0.1-0.1-0.2-0.2-0.2c-0.2-0.1-0.3,0-0.5-0.1
		c-0.1,0-0.1,0.1-0.1,0.1c0,0.2,0,0.3,0,0.5c0,0.2,0.1,0.3,0.3,0.3c0.1,0,0.2,0,0.4,0c0.1,0,0.1-0.1,0.1-0.1
		C24.6,24.5,24.6,24.4,24.6,24.3z M17.5,21.5c0.2,0,0.3-0.1,0.3-0.2c0-0.2,0.1-0.4,0.2-0.6c0-0.1,0-0.2-0.2-0.2
		c-0.1,0-0.2,0-0.2,0.1c0,0-0.1,0-0.2,0c-0.1,0-0.2-0.1-0.3,0c-0.1,0.1-0.1,0.2,0,0.3c0,0.1,0.1,0.2,0,0.3
		C17.2,21.4,17.3,21.5,17.5,21.5C17.5,21.5,17.5,21.5,17.5,21.5z M26.9,23.9c-0.2,0-0.3,0-0.3,0.2c0,0.1,0,0.2,0,0.3
		c0,0.3,0.1,0.4,0.4,0.4c0.1,0,0.1,0,0.2,0c0.1,0,0.2,0,0.2-0.2c0-0.1,0-0.2,0-0.3c0.1-0.2,0-0.3-0.2-0.4
		C27.1,23.9,27,23.9,26.9,23.9z M15.6,22.8C15.6,22.8,15.7,22.8,15.6,22.8c0,0.2,0,0.3,0.2,0.3c0.1,0,0.3,0,0.4-0.1c0,0,0,0,0-0.1
		c0-0.1,0.1-0.2,0.1-0.4c0.1-0.3,0.1-0.4-0.3-0.4c0,0-0.1,0-0.1,0c-0.1,0-0.2,0-0.3,0.2C15.7,22.5,15.7,22.6,15.6,22.8z M23.2,24.6
		c0.1,0,0.1,0,0.1-0.2c0-0.1,0-0.2,0-0.3c0-0.4-0.2-0.5-0.4-0.5c-0.1,0-0.2,0-0.2,0.2c-0.1,0.3,0,0.5,0.1,0.7c0,0.1,0.1,0.1,0.2,0.1
		C23,24.6,23.1,24.6,23.2,24.6z M15.9,24.6c0.3,0,0.3,0,0.3-0.3c0,0,0-0.1,0-0.1c0.1-0.4,0.1-0.4-0.3-0.4c0,0,0,0-0.1,0
		c-0.2-0.1-0.4,0-0.4,0.3c0,0.1,0,0.2,0.1,0.4C15.6,24.5,15.6,24.6,15.9,24.6z M10.8,22.3c0-0.1,0-0.2-0.1-0.2
		c-0.2,0-0.3-0.1-0.4-0.1c-0.1,0-0.2,0-0.2,0.1c0,0.1,0,0.1,0.1,0.2c0.1,0.1,0.1,0.2,0,0.3c-0.1,0.1-0.1,0.2,0,0.2
		c0.1,0.1,0.2,0.1,0.2,0.2c0.1,0.1,0.2,0.1,0.3,0c0.1,0,0.1-0.1,0.1-0.2C10.8,22.6,10.8,22.4,10.8,22.3z M11.4,20.4
		c-0.2,0-0.2,0.1-0.2,0.2c0,0.2,0.1,0.4,0.1,0.6c0,0.1,0.1,0.1,0.1,0.1c0.1,0,0.1,0,0.1,0c0.1,0.1,0.2,0,0.2-0.1
		c0.1-0.2,0-0.4,0.1-0.6c0,0,0-0.1-0.1-0.1C11.8,20.5,11.6,20.5,11.4,20.4z M12,22.3c0-0.1,0-0.2-0.1-0.2c-0.1,0-0.3-0.1-0.4,0
		c0,0,0,0,0,0c0,0.2,0,0.5,0,0.7c0,0.1,0.2,0.2,0.3,0.2c0.2,0,0.2-0.1,0.2-0.3C11.9,22.6,11.9,22.4,12,22.3z M11.4,24.1
		C11.4,24.1,11.4,24.1,11.4,24.1c0,0.3,0,0.4,0.2,0.5c0.1,0,0.3,0,0.4-0.1c0,0,0.1-0.1,0-0.1C12,24.1,12,23.9,12,23.8
		c0-0.3-0.2-0.1-0.4-0.2c-0.1,0-0.1,0-0.2,0.1C11.4,23.8,11.4,23.9,11.4,24.1z M10.4,23.5c-0.2,0-0.3,0.1-0.2,0.2
		c0.1,0.1,0.1,0.2,0,0.4c-0.1,0.3,0,0.5,0.3,0.5c0.2,0,0.3-0.2,0.2-0.3c0-0.1,0-0.1,0-0.2C10.8,23.6,10.7,23.5,10.4,23.5z
		 M22.6,22.1c-0.3,0-0.3,0.1-0.2,0.3c0.1,0.2,0.1,0.4,0.2,0.5c0,0.1,0.1,0.1,0.2,0.1c0,0,0.1,0,0.1,0c0.1,0,0.2-0.1,0.2-0.2
		c0-0.2-0.1-0.3-0.1-0.5C22.9,22.1,22.8,22.1,22.6,22.1z M25.9,24.5c0-0.1,0-0.3,0-0.4c0-0.1-0.1-0.2-0.2-0.2c-0.1,0-0.1,0-0.2,0
		c-0.1,0-0.2,0-0.2,0.1c0,0.2,0,0.3,0,0.5c0,0.2,0.1,0.3,0.3,0.3C25.9,24.8,25.9,24.8,25.9,24.5z M18.6,22.4c0-0.1,0-0.1-0.1-0.1
		c-0.2-0.1-0.5,0-0.5,0.2c0,0.1,0,0.3-0.1,0.4c-0.1,0.2,0,0.2,0.1,0.2c0.1,0.1,0.2,0,0.3-0.1c0.1-0.1,0.1-0.3,0.2-0.4
		C18.5,22.5,18.6,22.5,18.6,22.4z M18.2,23.8c0-0.1,0-0.2-0.1-0.2c-0.1,0-0.3,0.1-0.4,0.2c0,0.1-0.1,0.2-0.1,0.4
		c0,0.1,0.1,0.3,0.2,0.4c0.1,0,0.3-0.1,0.3-0.2C18.2,24.2,18.2,24,18.2,23.8z M17.9,25.6c0,0,0.1,0,0.1,0c0.2,0,0.3,0,0.2-0.2
		c0-0.1-0.1-0.1-0.1-0.2c0-0.1,0-0.2-0.1-0.2c-0.1,0-0.3-0.1-0.4,0c-0.1,0.1-0.2,0.3-0.1,0.5C17.6,25.6,17.7,25.6,17.9,25.6z
		 M16.1,12.4c-0.4,0-0.4,0-0.6,0.2c-0.1,0.1-0.1,0.1-0.1,0.2c0,0.1,0.1,0.1,0.2,0c0.1,0,0.2,0,0.3,0c0.3,0.1,0.5-0.1,0.7-0.2
		c0,0,0-0.1,0-0.1c0-0.1-0.1,0-0.1,0C16.3,12.4,16.2,12.4,16.1,12.4z M11.2,25.8c0.1,0,0.2,0,0.2-0.1c0-0.1,0-0.1,0-0.2
		c-0.1-0.1-0.2-0.3-0.4-0.3c-0.1,0-0.1,0-0.2,0c-0.1,0-0.1-0.1-0.2,0c0,0.1,0,0.1,0,0.2c0.1,0.1,0.1,0.1,0,0.2
		c-0.1,0.1,0,0.1,0.1,0.1C10.8,25.8,11,25.7,11.2,25.8z M24.1,13.6c0-0.2,0-0.3-0.2-0.3c-0.1,0-0.1,0-0.2,0c-0.1-0.1-0.2,0-0.3,0.1
		c-0.1,0.1-0.1,0.2,0,0.4c0.1,0.1,0.3,0.1,0.4,0.1C24.1,13.9,24.1,13.9,24.1,13.6z M27.5,9.3c0,0.1,0,0.2,0.1,0.3
		c0,0.1,0.1,0.1,0.1,0.1c0.1,0,0.1,0,0.1-0.1c0-0.1,0.1-0.2,0.2-0.2c0.1-0.1,0.3-0.1,0.4-0.2c0,0,0.1-0.1,0.1-0.1
		C28.4,9,28.3,9,28.3,9c-0.2,0-0.3,0-0.5,0.1C27.7,9.1,27.5,9.2,27.5,9.3z M22.4,9.8c0,0,0.1,0,0.1,0c0.1-0.1,0.2-0.3,0.4-0.4
		c0,0,0.1-0.1,0-0.2c0,0-0.1,0-0.2,0c-0.1,0.1-0.2,0.1-0.4,0.1c-0.2,0-0.4,0.1-0.6,0.1c0,0-0.1,0-0.1,0.1c0,0,0,0.1,0.1,0.1
		C22,9.6,22.2,9.7,22.4,9.8z M17.3,22.2c-0.1,0-0.1,0-0.1,0.1c-0.1,0.1-0.2,0.2-0.1,0.4c0,0.1,0,0.2,0,0.3c-0.1,0.1,0,0.2,0.1,0.2
		c0.1,0,0.2,0,0.3-0.1c0.1-0.2,0.1-0.4,0.2-0.5C17.6,22.3,17.5,22.2,17.3,22.2z M13.8,14.5c-0.2,0-0.2,0-0.3,0.1
		c-0.1,0.1-0.1,0.1,0,0.2c0,0.1,0.1,0.1,0.2,0c0.1,0,0.2-0.1,0.3,0c0.2,0.1,0.3,0.1,0.5-0.1c0-0.1,0-0.1,0-0.2c0,0-0.1-0.1-0.1-0.1
		C14.2,14.5,14,14.6,13.8,14.5z M16.5,14.7c-0.2,0-0.4,0.3-0.4,0.4c0.1,0.1,0.5,0.2,0.6,0.1c0.1-0.1,0.1-0.1,0.2-0.2
		c0.1-0.1,0.1-0.2-0.1-0.2C16.7,14.7,16.6,14.7,16.5,14.7z M26.3,13.7c0-0.1,0-0.2-0.1-0.2c-0.1,0-0.3-0.1-0.4,0
		c-0.1,0.1-0.1,0.2-0.1,0.3c0,0.1,0.1,0.2,0.2,0.2c0,0,0.1,0,0.1,0c0.1,0,0.2,0.1,0.2,0C26.2,13.9,26.3,13.8,26.3,13.7z M15.8,25.2
		c-0.1,0-0.2,0-0.3,0.1c0,0.1-0.1,0.1,0,0.2c0.1,0.1,0.1,0.2,0.2,0.1c0.1,0,0.2,0,0.3,0c0.1,0,0.2,0,0.2-0.1c0-0.1,0-0.3-0.1-0.4
		c0,0-0.1,0-0.1,0C15.9,25.2,15.8,25.2,15.8,25.2z M17.2,12.9c0.2,0,0.2,0,0.3-0.1c0.1-0.1,0.2-0.1,0.2-0.2c0,0,0-0.2-0.1-0.2
		c-0.2-0.1-0.5,0-0.7,0.2c0,0,0,0-0.1,0.1c0,0-0.1,0.1,0,0.1c0,0.1,0.1,0.1,0.1,0.1C17.1,12.9,17.2,12.9,17.2,12.9z M18.3,12.6
		c-0.2,0-0.2,0.2-0.3,0.2c0,0-0.1,0.1-0.1,0.1C18,13,18,13,18.1,13c0.1,0,0.2,0,0.3,0.1c0.1,0,0.4-0.1,0.4-0.3c0,0,0-0.1,0-0.1
		C18.6,12.7,18.5,12.6,18.3,12.6z M14.6,12.7c0.1,0,0.2-0.1,0.3-0.2c0,0,0-0.1,0-0.1c0-0.1-0.1-0.1-0.1,0c-0.1,0-0.3,0.1-0.4,0
		c-0.2-0.1-0.3,0-0.5,0.1c0,0-0.1,0.1,0,0.1c0,0.1,0.1,0.1,0.1,0.1C14.2,12.7,14.4,12.7,14.6,12.7z M15.3,15.1c0.1,0,0.1,0,0.2,0
		c0.1-0.1,0.1-0.2,0.2-0.2c0,0,0.1-0.1,0-0.1c0-0.1-0.1-0.1-0.1-0.1c-0.1,0-0.2,0-0.3,0c-0.1,0-0.3,0.1-0.4,0.2
		C15,15,15.1,15,15.3,15.1C15.3,15.1,15.3,15.1,15.3,15.1z M15.5,13.5c0.1,0,0.2-0.1,0.3-0.1c0,0,0-0.1,0-0.1c0-0.1-0.1,0-0.1,0
		c-0.2,0-0.4,0-0.6,0c-0.1,0-0.2,0-0.3,0.1c-0.1,0-0.1,0.1-0.1,0.2c0,0.1,0.1,0.1,0.1,0.1C15.1,13.4,15.2,13.5,15.5,13.5z
		 M25.2,13.7c0-0.2,0-0.3-0.2-0.3c-0.2,0-0.3,0-0.3,0.2c0,0.1-0.1,0.2,0,0.3c0.1,0.1,0.3,0,0.4,0C25.2,13.9,25.1,13.8,25.2,13.7z
		 M13.8,13.4c0.1,0,0.2,0,0.3,0c0.1,0,0.1-0.1,0.1-0.1c0-0.1-0.1-0.1-0.1-0.1c-0.1,0-0.3,0-0.4-0.1c-0.1,0-0.3,0-0.4,0.1
		c-0.1,0.1-0.1,0.2,0.1,0.2C13.5,13.4,13.6,13.4,13.8,13.4z M16.8,24.3c0,0.1-0.1,0.3,0.1,0.3c0.1,0,0.2-0.1,0.2-0.3c0,0,0,0,0,0
		c0-0.1,0-0.2,0-0.4c0-0.1-0.1-0.2-0.2-0.1c-0.1,0-0.2,0.2-0.2,0.3C16.8,24.1,16.8,24.2,16.8,24.3z M21.3,22.5
		c0,0.1,0.1,0.1,0.1,0.2c0.1,0.2,0.2,0.4,0.3,0.6c0,0,0.1,0.1,0.1,0.1c0.1-0.1,0-0.1,0-0.1c-0.1-0.3-0.2-0.6-0.3-0.9
		c0,0,0-0.1-0.1-0.1c0,0-0.1,0-0.1,0C21.4,22.3,21.3,22.4,21.3,22.5z M24.5,25.5c0.1,0,0.2,0,0.2-0.1c0-0.1-0.1-0.1-0.2-0.2
		c-0.2,0-0.3,0-0.5-0.1c-0.1,0-0.1,0-0.1,0.2c0,0.1,0,0.2,0.2,0.2C24.3,25.5,24.4,25.5,24.5,25.5z M12,9.3c0,0.1,0.1,0.2,0.2,0.1
		c0.2-0.1,0.3-0.2,0.5-0.4c0,0,0.1-0.1,0-0.2c0,0-0.1-0.1-0.2-0.1c-0.2,0-0.3,0.2-0.4,0.3C12,9.2,11.9,9.2,12,9.3z M12.1,10.1
		c0.2,0,0.4-0.2,0.6-0.3c0.1,0,0.2-0.1,0.1-0.3c-0.1-0.1-0.2-0.1-0.2,0c-0.2,0.1-0.4,0.3-0.5,0.4C12,10,12,10,12.1,10.1
		C12,10.1,12.1,10.1,12.1,10.1z M17.1,25.3c0-0.1,0-0.2-0.1-0.2c-0.1,0-0.2-0.1-0.3,0c-0.1,0.1-0.1,0.3-0.1,0.4
		c0,0.1,0.2,0.1,0.3,0.1C17.1,25.6,17.1,25.4,17.1,25.3z M23.1,25.1C23.1,25.1,23.1,25.1,23.1,25.1c-0.2,0-0.3,0-0.3,0.2
		c0,0.1,0.1,0.2,0.2,0.2c0.1,0,0.2,0,0.3,0c0.1,0,0.2,0,0.2-0.1c0-0.1,0-0.2-0.1-0.2C23.3,25.1,23.2,25.1,23.1,25.1z M27.2,13.7
		c0-0.1,0-0.2-0.1-0.2c-0.3,0-0.3,0.1-0.3,0.4c0,0.1,0,0.2,0.1,0.2C27.2,14.1,27.2,14.1,27.2,13.7z M22.4,16.3
		c-0.1,0-0.1,0.1-0.1,0.1c0.1,0.2,0.2,0.3,0.2,0.5c0,0.1,0.1,0.1,0.2,0.1c0.1-0.1,0.2-0.2,0.3-0.3c0,0,0.1-0.1,0-0.2
		c-0.1-0.1-0.1,0-0.2,0c-0.1,0.1-0.2,0.1-0.3,0C22.6,16.4,22.5,16.4,22.4,16.3C22.5,16.3,22.5,16.3,22.4,16.3z M28.8,25.6
		c0.1,0,0.1,0,0.2,0c0.1,0,0.2,0,0.1-0.1c0-0.1-0.1-0.1-0.2-0.1c-0.1,0-0.1,0-0.2,0c-0.1,0-0.3,0-0.4,0c-0.1,0-0.1,0-0.1,0.1
		c0,0.1,0,0.1,0.1,0.1c0.1,0,0.2,0,0.2,0C28.6,25.6,28.7,25.6,28.8,25.6z M13.2,15.7C13.2,15.7,13.2,15.7,13.2,15.7
		c0.1,0,0.2,0,0.2,0c0.1,0,0.1,0,0.2-0.1c0-0.1,0-0.1-0.1-0.2c-0.1,0-0.2,0-0.3-0.1c-0.1-0.1-0.2,0-0.3,0.1c-0.1,0-0.1,0.1,0,0.2
		c0,0,0.1,0.1,0.2,0.1C13.1,15.7,13.2,15.7,13.2,15.7z M16.6,13.6c0.1,0,0.2-0.1,0.3-0.1c0.1,0,0.1-0.1,0.1-0.2
		c0-0.1-0.1-0.1-0.1-0.1c-0.2,0-0.3,0-0.5,0.2c-0.1,0.1-0.1,0.1,0,0.2c0,0.1,0.1,0.1,0.1,0.1C16.5,13.6,16.5,13.6,16.6,13.6z
		 M17.1,14.4c0.1,0,0.2,0,0.3-0.1c0.1-0.1,0.1-0.2,0-0.2c-0.2,0-0.4,0-0.6,0c-0.1,0-0.1,0.1-0.1,0.1c0,0.1,0.1,0.1,0.1,0.1
		C16.9,14.4,17,14.4,17.1,14.4z M24.9,12.6C24.9,12.6,24.9,12.6,24.9,12.6c-0.1,0-0.1,0-0.2,0c-0.1,0-0.2,0.1-0.1,0.2
		c0.1,0.1,0.2,0.2,0.4,0.2c0.2,0,0.2-0.1,0.2-0.3c0-0.1-0.1-0.1-0.2-0.2C25,12.6,25,12.6,24.9,12.6z M12.5,14.4
		c-0.1,0-0.1,0-0.2,0.1c0,0.1,0,0.1,0,0.2c0.1,0.1,0.1,0.1,0.1,0.2c0,0.1,0.1,0.2,0.2,0c0.1-0.1,0.1-0.1,0.2-0.2
		c0.1-0.1,0.1-0.2,0-0.2C12.8,14.5,12.6,14.5,12.5,14.4z M24.9,15.5c0.1,0,0.2,0,0.2-0.1c0-0.1,0-0.2-0.1-0.2
		c-0.1-0.1-0.3-0.1-0.5,0c0,0,0,0,0,0.1C24.5,15.3,24.8,15.5,24.9,15.5z M12.5,13.3c0.2,0,0.3,0,0.4-0.2c0-0.1,0.1-0.1,0.1-0.2
		c0-0.1-0.1-0.1-0.2-0.1c-0.1,0-0.3,0.1-0.4,0.1c-0.1,0-0.1,0.1-0.1,0.2C12.3,13.2,12.3,13.3,12.5,13.3
		C12.5,13.3,12.5,13.3,12.5,13.3z M17.9,13.7c0.1,0,0.1,0,0.2-0.1c0,0,0.1,0,0.1-0.1c0-0.1,0-0.1-0.1-0.1c-0.1-0.1-0.2,0-0.4-0.1
		c-0.1,0-0.2,0-0.3,0.1c-0.1,0.1,0,0.1,0,0.1C17.6,13.7,17.7,13.7,17.9,13.7z M24.2,12.7c0,0,0-0.1-0.1-0.1c-0.1,0-0.2-0.1-0.4,0
		c-0.1,0-0.2,0.1-0.1,0.3c0,0.1,0.1,0.2,0.2,0.2c0.1,0,0.2,0,0.3-0.1C24.1,12.9,24.2,12.8,24.2,12.7z M12.8,10.3
		c0-0.1,0-0.1-0.1-0.1c-0.1,0-0.1,0-0.2,0c-0.2,0.1-0.3,0.3-0.5,0.4c0,0-0.1,0.1,0,0.1c0,0.1,0.1,0,0.1,0c0.1-0.1,0.2-0.1,0.3-0.2
		C12.7,10.6,12.8,10.5,12.8,10.3z M13.3,12.3c-0.1,0-0.2,0-0.3,0.1c-0.1,0-0.1,0.1-0.1,0.2c0,0.1,0.1,0.1,0.2,0.1c0,0,0.1,0,0.1,0
		c0.2,0,0.4-0.1,0.4-0.2c0,0,0-0.1,0-0.1c0,0-0.1,0-0.1,0C13.4,12.3,13.3,12.4,13.3,12.3z M26.9,14.4c-0.2,0-0.3,0.1-0.3,0.2
		c0,0.1,0.1,0.2,0.3,0.2c0.1,0,0.2-0.1,0.2-0.2C27.2,14.5,27,14.4,26.9,14.4z M28,15.9c0-0.1,0-0.3-0.1-0.4c0,0-0.1-0.1-0.1-0.1
		c-0.1,0-0.1,0-0.1,0.1c0,0.1,0,0.3,0,0.4c0,0.1,0.1,0.2,0.2,0.2C28,16.1,27.9,16,28,15.9z M24.9,14.7c0.1,0,0.2,0,0.2-0.1
		c0-0.1,0-0.1-0.1-0.2c-0.1-0.1-0.2-0.1-0.4-0.1c-0.1,0-0.2,0.1-0.2,0.2c0,0.1,0.1,0.1,0.2,0.1C24.8,14.6,24.8,14.7,24.9,14.7z
		 M15.1,14.2c0-0.1-0.1-0.1-0.1-0.2c-0.2,0-0.5,0-0.7,0c0,0-0.1,0-0.1,0c0,0,0,0.1,0,0.1c0,0,0.1,0,0.2,0c0.2,0,0.4,0,0.6,0
		C15,14.2,15,14.2,15.1,14.2z M14.6,25.6c0.1,0,0.2,0,0.3,0c0.1,0,0.1-0.1,0.1-0.1c0-0.1-0.1-0.1-0.1-0.1c-0.1,0-0.3,0-0.4,0
		c-0.1,0-0.1,0-0.2,0c-0.1,0-0.1,0.1-0.1,0.1c0,0.1,0.1,0.1,0.1,0C14.4,25.5,14.5,25.6,14.6,25.6z M26.8,13c0,0.1,0.1,0.2,0.3,0.2
		c0.1,0,0.2-0.1,0.2-0.2c0-0.1-0.1-0.2-0.2-0.2C26.9,12.7,26.8,12.9,26.8,13z M26,14.7c0.2,0,0.2,0,0.2-0.2c0-0.2-0.1-0.1-0.2-0.1
		c-0.1,0-0.1,0-0.2,0c-0.1,0-0.1,0.1-0.2,0.2c0,0.1,0.1,0.1,0.1,0.1C25.8,14.7,25.9,14.7,26,14.7z M26,13.1c0.1,0,0.2-0.1,0.3-0.2
		c0-0.1-0.1-0.3-0.3-0.3c-0.1,0-0.2,0.1-0.2,0.2C25.8,13,25.9,13.1,26,13.1z M15.9,15.7C15.8,15.7,15.8,15.7,15.9,15.7
		c-0.2,0-0.3,0-0.3,0.1c0,0.1,0.1,0.1,0.2,0.2c0.1,0,0.1,0,0.2,0.1c0.1,0.1,0.1,0,0.2,0c0.1-0.1,0.1-0.1,0.1-0.2
		c0-0.1-0.1-0.1-0.2-0.1C16,15.7,15.9,15.7,15.9,15.7z M28,13.8c0-0.1,0-0.2-0.1-0.2c-0.1,0-0.2,0.1-0.2,0.1c0,0.1-0.1,0.3,0,0.4
		c0,0.1,0.1,0.1,0.1,0.1c0.1,0,0.1-0.1,0.1-0.1C28,14,28,13.9,28,13.8z M12.9,14c0.1,0,0.2,0,0.3,0c0.1,0,0.2,0,0.2,0
		c0,0,0.1,0,0.1-0.1c0-0.1-0.1-0.1-0.1-0.1c-0.1,0-0.2,0-0.3,0c-0.1,0-0.1,0-0.2,0c-0.1,0-0.2,0-0.2,0.2C12.6,14.1,12.8,14,12.9,14z
		 M26.9,15.4C26.8,15.4,26.8,15.4,26.9,15.4c-0.2,0-0.3,0-0.3,0.1c0,0.1,0.1,0.2,0.2,0.2c0.1,0,0.1,0,0.2,0c0.2,0,0.2-0.1,0.2-0.2
		C27.1,15.3,27,15.3,26.9,15.4z M27.3,25.6C27.3,25.6,27.4,25.6,27.3,25.6c0.1-0.1,0.1-0.2,0-0.2c0,0-0.1,0-0.1,0
		c-0.1,0-0.3,0-0.4,0c0,0-0.1,0-0.1,0.1c0,0.1,0,0.1,0.1,0.1C26.9,25.6,27.1,25.6,27.3,25.6z M26.1,15.6c0.1,0,0.1,0,0.1-0.1
		c0-0.1,0-0.2-0.2-0.1c-0.1,0-0.2,0-0.3,0c-0.1,0-0.2,0-0.2,0.1c0,0.1,0.1,0.2,0.2,0.2C25.8,15.5,25.9,15.5,26.1,15.6z M18.1,12
		C18.1,12,18.1,12,18.1,12c0.1,0,0.1,0,0.2,0c0.1,0,0.1,0,0.2-0.1c0-0.1-0.1-0.1-0.1-0.1c-0.1,0-0.3,0-0.4,0c-0.1,0-0.1,0-0.1,0.1
		c0,0.1,0,0.1,0.1,0.1C17.9,12,18,12,18.1,12z M12,25.6C12,25.6,12,25.6,12,25.6c0.1,0,0.1,0,0.2,0c0.1,0,0.2,0,0.2-0.1
		c0-0.1-0.1-0.1-0.2-0.1c-0.1,0-0.2,0-0.3,0c-0.1-0.1-0.2,0-0.2,0c0,0.1,0,0.2,0.1,0.2C11.8,25.6,11.9,25.6,12,25.6z M22.7,12.9
		c0,0.1,0,0.1,0.1,0.2c0.1,0.1,0.1,0.1,0.2,0c0-0.1,0.1-0.2,0.1-0.4c0-0.1-0.1-0.1-0.1-0.1c-0.1,0-0.1,0-0.2,0.1
		C22.8,12.8,22.8,12.8,22.7,12.9z M16.6,11.9c0.1,0,0.1,0,0.1,0c0.1,0,0.2-0.1,0.2-0.1c0-0.1-0.1-0.1-0.2-0.1c-0.1,0-0.2,0-0.3,0
		c-0.1,0-0.1,0-0.2,0.1c0,0.1,0,0.1,0.1,0.1C16.4,12,16.5,11.9,16.6,11.9z M26,16.4c0.1,0,0.1,0,0.2-0.1c0-0.1,0-0.1-0.1-0.2
		c-0.1-0.1-0.3,0-0.4-0.1c-0.1,0-0.1,0-0.1,0.1c0,0.1,0,0.1,0.1,0.1C25.7,16.4,25.9,16.4,26,16.4z M13.7,11.8
		C13.7,11.8,13.7,11.8,13.7,11.8c0.1,0,0.2,0,0.2,0c0.1,0,0.1,0,0.1-0.1c0-0.1,0-0.1-0.1-0.1c-0.1,0-0.3,0-0.4,0
		c-0.1,0-0.1,0.1-0.1,0.2c0,0.1,0.1,0.1,0.2,0.1C13.7,11.8,13.7,11.8,13.7,11.8z M27,16.5c0.1,0,0.1,0,0.2-0.1c0-0.1,0-0.1-0.1-0.1
		c-0.1,0-0.1-0.1-0.2-0.1c0,0-0.1-0.1-0.1,0c-0.1,0.1-0.1,0.1-0.1,0.2c0,0.1,0,0.1,0.1,0.1C26.8,16.4,26.9,16.5,27,16.5z M12.4,11.2
		c0.2,0,0.3-0.1,0.4-0.2c0.1-0.1,0-0.2-0.1-0.2c-0.1-0.1-0.1,0-0.2,0c-0.1,0.1-0.1,0.1-0.2,0.2c0,0-0.1,0.1-0.1,0.1
		C12.3,11.2,12.4,11.2,12.4,11.2z M13.2,25.5c-0.1,0-0.2,0-0.3,0.1c0,0,0,0,0,0.1c0,0,0.1,0.1,0.1,0c0.2-0.1,0.4,0,0.6-0.1
		c0,0,0.1,0,0.1-0.1c0-0.1-0.1-0.1-0.1-0.1C13.5,25.4,13.4,25.5,13.2,25.5z M25.1,16.3c0.1,0,0.1,0,0.1-0.1c0-0.1,0-0.1,0-0.2
		C25.1,16,25,16,24.9,15.9c0,0-0.1,0-0.1,0c0,0-0.1,0.1,0,0.1C24.9,16.2,25,16.3,25.1,16.3z M14.8,15.9c0.1,0,0.2,0,0.2,0
		c0,0,0.1,0,0.1-0.1c0,0,0-0.1-0.1-0.1c-0.1,0-0.3-0.1-0.4,0c-0.1,0-0.1,0.1-0.1,0.1c0,0.1,0.1,0.1,0.1,0.1
		C14.6,15.9,14.7,15.9,14.8,15.9z M18.9,13.7c0-0.1-0.1-0.2-0.2-0.2c-0.1,0-0.2,0.2-0.2,0.2c0,0.1,0.1,0.1,0.2,0.2
		C18.8,13.9,18.8,13.8,18.9,13.7z M27.9,14.8c0-0.1-0.2-0.3-0.3-0.3c-0.1,0-0.1,0.1-0.1,0.1c0,0.2,0.1,0.4,0.2,0.4
		C27.9,15,27.9,14.9,27.9,14.8z M15.9,14.1c-0.1,0-0.1,0-0.2,0c0,0-0.1,0-0.1,0.1c0,0,0,0.1,0.1,0.1c0.1,0,0.3,0.1,0.4,0
		c0.1,0,0.1-0.1,0.1-0.1c0-0.1-0.1-0.1-0.1-0.1C16.1,14.1,16,14.1,15.9,14.1z M15.1,11.9C15.1,11.9,15.2,11.9,15.1,11.9
		c0.1,0,0.2,0,0.2-0.1c0-0.1-0.1-0.1-0.1-0.1c-0.1,0-0.1,0-0.2-0.1c-0.1,0-0.3,0.1-0.3,0.1c0,0.1,0.1,0.1,0.2,0.1
		C15,11.9,15,11.9,15.1,11.9z M25.7,25.6C25.7,25.6,25.7,25.6,25.7,25.6c0.2,0,0.2,0,0.2-0.1c0-0.1-0.1-0.1-0.2-0.1
		c-0.1,0-0.1,0-0.2,0c-0.1,0-0.2,0-0.2,0.1C25.4,25.5,25.5,25.6,25.7,25.6C25.6,25.6,25.6,25.6,25.7,25.6z M12.6,11.7
		c-0.1,0-0.2,0-0.2,0c-0.1,0-0.1,0-0.1,0.1c0,0.1,0,0.1,0.1,0.1c0.1,0,0.2,0,0.3,0c0.1,0,0.2,0,0.2-0.1
		C12.9,11.7,12.7,11.7,12.6,11.7C12.6,11.7,12.6,11.7,12.6,11.7z M28,13.1c0-0.2,0-0.3-0.1-0.3c-0.1,0-0.1,0.2-0.1,0.3
		c0,0,0,0,0,0.1c0,0.1,0,0.2,0.2,0.2C28,13.4,28,13.3,28,13.1C28,13.2,28,13.1,28,13.1z M22.9,12.1c0.1,0,0.2-0.1,0.2-0.1
		c0-0.1-0.1-0.2-0.2-0.2c-0.1,0-0.2,0.1-0.2,0.2C22.7,12.1,22.8,12.1,22.9,12.1z M23.9,12.1c0.1,0,0.2,0,0.2-0.1
		c0-0.1-0.1-0.2-0.2-0.2c-0.1,0-0.2,0.1-0.2,0.2C23.6,12.1,23.8,12.1,23.9,12.1z M22.1,15c0,0-0.2-0.5-0.2-0.5c0,0-0.1,0-0.1,0
		c0,0,0,0.1,0,0.1c0,0.2,0.2,0.3,0.2,0.5C21.9,15.1,22,15.2,22.1,15C22.1,15.1,22.1,15.1,22.1,15z M24.1,14.5c0-0.1-0.1-0.3-0.3-0.3
		c0,0-0.1,0-0.1,0c0,0,0,0.1,0,0.1c0.1,0.1,0.1,0.2,0.2,0.2c0,0,0.1,0,0.1,0C24.1,14.6,24.1,14.5,24.1,14.5z M24.8,12.1
		c0.1,0,0.2,0,0.2-0.1c0-0.1-0.1-0.2-0.2-0.2c-0.1,0-0.2,0-0.2,0.2C24.6,12.1,24.7,12.1,24.8,12.1z M22,24.2c0-0.1-0.1-0.2-0.1-0.3
		c0-0.1,0-0.1-0.1-0.1c0,0-0.1,0-0.1,0c0,0.1,0,0.1,0,0.2c0,0.1,0.1,0.1,0.1,0.2c0,0.1,0,0.1,0.1,0.1C22,24.3,22,24.2,22,24.2z
		 M26.1,12.2c0.1,0,0.2,0,0.2-0.1c0-0.1-0.1-0.1-0.2-0.1c-0.1,0-0.2,0-0.2,0.1C25.9,12.2,26,12.2,26.1,12.2z M28,10.9
		c0-0.1,0-0.1-0.1-0.1c-0.1,0-0.3,0.2-0.2,0.3c0,0.1,0.1,0.1,0.2,0C27.9,11.1,28,11.1,28,10.9z M27.7,10.5c0,0.1,0.1,0.1,0.1,0.1
		c0.1,0,0.2-0.1,0.3-0.2c0.1-0.1,0-0.1,0-0.1C27.9,10.3,27.7,10.4,27.7,10.5z M27.2,12.3c0.1,0,0.1,0,0.1-0.1c0,0-0.2-0.2-0.3-0.2
		c-0.1,0-0.1,0-0.1,0.1C26.9,12.2,27,12.3,27.2,12.3z M27.7,11.5c0,0.1,0,0.1,0.1,0.1c0.1,0,0.2-0.1,0.2-0.2c0,0,0-0.1-0.1-0.1
		C27.7,11.3,27.7,11.4,27.7,11.5z M27.8,10.1c0.1,0,0.2-0.1,0.2-0.2c0-0.1-0.1-0.1-0.1-0.1C27.8,9.8,27.7,9.9,27.8,10.1
		C27.7,10.1,27.7,10.1,27.8,10.1z M27.9,16.5c0-0.1-0.1-0.2-0.2-0.2c-0.1,0-0.1,0-0.1,0.1C27.7,16.6,27.8,16.6,27.9,16.5
		C28,16.6,27.9,16.5,27.9,16.5z M12.6,15.3c0-0.1,0-0.2-0.1-0.2c-0.1,0-0.1,0.1-0.1,0.1c0,0.1,0,0.1,0.1,0.1
		C12.5,15.4,12.6,15.4,12.6,15.3z M19.2,11.9c-0.1,0-0.2,0.1-0.2,0.1c0,0.1,0,0.1,0.1,0.1C19.2,12.1,19.3,12,19.2,11.9
		C19.3,11.9,19.2,11.9,19.2,11.9z M25.6,17.7c-0.1,0-0.1,0-0.1,0.1c0,0.1,0.1,0.1,0.2,0.1c0.1,0,0.1,0,0.1-0.1
		C25.7,17.7,25.7,17.7,25.6,17.7z M12.3,12.4c0.1,0,0.1,0,0.1-0.1c0-0.1,0-0.1-0.1-0.1c-0.1,0-0.1,0-0.1,0.1
		C12.2,12.4,12.2,12.4,12.3,12.4z M22.3,16C22.3,16,22.4,16,22.3,16c0.1-0.1,0.1-0.2,0-0.2c0,0-0.1,0-0.1,0.1
		C22.2,15.9,22.2,16,22.3,16z"/>
	<path class="st0" d="M1,19.1c0,0,0.1,0.1,0.1,0c0.1-0.4,0.2-0.8,0.2-1.3c0,0,0-0.1,0-0.1c0.1-0.2,0.1-0.4,0.1-0.6
		c0-0.1,0-0.2,0.1-0.3c0,0,0-0.1,0-0.1c-0.1-0.1,0-0.3,0-0.4c0.1-0.2,0.1-0.4,0.1-0.6c0.1-0.3,0.2-0.5,0.4-0.8
		c0.1-0.1,0.2-0.2,0.3-0.3c0.2-0.2,0.4-0.3,0.7-0.4c0.1,0,0.1,0,0.1-0.1c0,0,0.1-0.1,0.1,0c0.3,0.2,0.6,0.2,0.9,0.5
		c0.1,0.1,0.1,0.3,0.2,0.4c0,0.1,0.1,0.1,0.1,0.1c0.1,0,0.1-0.1,0.1-0.1C4.8,15,4.9,14.9,5,14.7c0.1-0.1,0.2-0.3,0.4-0.5
		c0.2-0.1,0.4-0.2,0.7-0.2c0,0,0,0,0.1,0c0.4,0.2,0.8,0.3,1,0.7c0.2,0.3,0.2,0.6,0.3,1c0,0.3,0,0.6-0.2,0.9c-0.1,0.1,0,0.3,0,0.4
		c-0.1,0.4-0.1,0.8-0.2,1.2c-0.1,0.2,0.1,0.4,0.1,0.6c0,0.2,0,0.3-0.1,0.4c-0.1,0.1,0,0.2-0.1,0.3c-0.1,0.3,0,0.6,0,0.9
		c0,0.6,0,1.2,0,1.8c0,0.1,0,0.1-0.1,0.2c-0.1,0-0.2,0-0.2,0c-0.2-0.2-0.4-0.3-0.3-0.6c0-0.2-0.1-0.2-0.2-0.3c0-0.1-0.1,0-0.2,0
		c-0.2,0.1-0.3,0.3-0.5,0.4c-0.2,0.2-0.4,0.3-0.5,0.5c0,0-0.1,0.1-0.1,0.1c0,0.3-0.1,0.6,0,0.9c0.1,0.3,0.2,0.7,0.3,1
		c0,0.3,0.2,0.3,0.5,0.4c0.3,0.1,0.6,0,0.8,0.2c0.1,0,0.1,0,0.2,0c0.1,0,0.3,0,0.4,0.1c0,0,0.1,0.1,0.2,0c0.1,0,0-0.1,0-0.1
		c-0.1-0.2-0.2-0.4-0.3-0.6c-0.1-0.2-0.2-0.4-0.1-0.7c0.1-0.2,0.3-0.2,0.4-0.1c0.2,0.3,0.4,0.6,0.5,0.9c0.1,0.3,0.3,0.6,0.5,0.9
		c0.1,0.1,0.2,0.2,0.2,0.3c0.1,0.3,0.3,0.6,0.4,0.9c0.1,0.3,0.1,0.6-0.2,0.7c-0.1,0.1-0.3,0.1-0.4-0.1c-0.1-0.2-0.2-0.3-0.3-0.5
		c0-0.1-0.1-0.1-0.1-0.1c-0.1,0-0.1,0-0.1,0.1c-0.1,0.4-0.4,0.7-0.5,1c0,0.1,0,0.2,0,0.3c0.2,0.2,0.4,0.5,0.5,0.7
		c0.2,0.3,0.4,0.6,0.6,0.9c0.1,0.1,0.3,0.1,0.5,0.1c0.2,0,0.5-0.1,0.7,0c0,0,0.1,0,0.1,0c0-0.1,0-0.1,0-0.1
		c-0.1-0.2-0.2-0.4-0.3-0.6c-0.1-0.2-0.1-0.4,0-0.5c0.1-0.1,0.2-0.1,0.3,0c0.2,0.1,0.4,0.3,0.5,0.4c0.1,0.1,0.3,0.2,0.4,0.4
		c0.1,0.1,0.3,0,0.3,0c0.3-0.1,0.6,0,0.7,0.2c0.2,0.3,0.6,0.4,0.9,0.4c0.3,0,0.6,0.1,0.9,0.1c0.2,0,0.4-0.1,0.6-0.2
		c0.3-0.1,0.6-0.4,0.9-0.5c0.4,0,0.8-0.2,1.2,0c0.2,0.1,0.4,0.2,0.6,0.3c0.3,0.2,0.5,0.3,0.8,0.4c0.3,0.1,0.6,0.2,0.9,0.2
		c0.4,0,0.7,0,1-0.3c0.1-0.1,0.2-0.1,0.3-0.2c0.3-0.1,0.5-0.3,0.8-0.4c0.2-0.1,0.5-0.1,0.8-0.1c0.3,0,0.6,0.1,1,0.1
		c0.2,0,0.5,0.1,0.6,0.2c0.1,0.1,0.2,0.1,0.3,0.1c0.3,0.1,0.5,0.3,0.7,0.4c0.1,0,0.2,0.1,0.3,0.1c0.1,0,0.1,0,0.2,0
		c0.2,0.1,0.4,0.2,0.6-0.1c0.1-0.1,0.2-0.1,0.3-0.1c0.3,0,0.7,0,1-0.1c0.2,0,0.3-0.1,0.4-0.2c0.2-0.1,0.4-0.1,0.5-0.3
		c0.1-0.1,0.3-0.1,0.4-0.2c0.2-0.1,0.3-0.1,0.4,0c0.1,0.1,0.3,0.1,0.4,0.1c0.2,0,0.4,0.1,0.6,0.3c0,0,0,0,0,0c0,0.1,0,0.1,0,0.2
		c-0.2,0.1,0,0.4-0.3,0.3c-0.1,0-0.2-0.1-0.3-0.1c-0.3,0-0.5,0-0.7,0.2c-0.1,0.2-0.3,0.3-0.6,0.3c-0.2,0-0.3,0.1-0.4,0.2
		c-0.3,0.2-0.5,0.3-0.8,0.4c-0.4,0.1-0.7,0.1-1.1,0.1c-0.4,0-0.7,0-1.1,0c-0.4-0.1-0.8-0.3-1.1-0.5c-0.2-0.1-0.4-0.3-0.6-0.2
		c0,0,0,0-0.1,0c-0.3-0.2-0.7-0.1-1,0c-0.2,0-0.4,0.2-0.6,0.3c-0.1,0.1-0.2,0.1-0.3,0.1c0,0,0,0-0.1,0c-0.2,0.2-0.5,0.1-0.7,0.2
		c0,0-0.1,0-0.2,0c-0.1,0-0.2,0-0.3,0.1c-0.1,0.1-0.2,0-0.3,0c-0.1,0-0.3-0.1-0.4,0.1c-0.1,0.1-0.2,0.1-0.3,0
		c-0.1-0.1-0.2-0.1-0.4-0.1c-0.1,0-0.3,0-0.4-0.1c-0.3-0.2-0.7-0.3-1-0.5c-0.2-0.1-0.4-0.1-0.7-0.1c-0.2,0-0.4,0.1-0.6,0.1
		c-0.2,0.1-0.5,0.1-0.8,0.1c0,0-0.1,0-0.1,0c-0.2,0.1-0.5,0.1-0.7,0.1c-0.1,0-0.2,0-0.2,0c-0.1-0.1-0.3-0.1-0.4-0.2
		c-0.1-0.1-0.2-0.1-0.3,0.1c0,0.1-0.1,0.2-0.2,0.2c-0.1,0.1-0.2,0.1-0.4,0c-0.2-0.1-0.4-0.1-0.6-0.3c-0.1-0.1-0.1-0.1-0.2-0.2
		c-0.2-0.1-0.3-0.1-0.5-0.1c-0.3,0-0.6,0.1-0.9,0c-0.1,0-0.3-0.1-0.4,0c0,0,0,0,0,0c-0.2-0.2-0.4,0-0.7,0c0,0-0.1,0-0.1,0
		c-0.1-0.1-0.2-0.1-0.4,0c0,0-0.1,0-0.1,0c-0.2-0.1-0.5,0-0.7,0c-0.1,0-0.2,0.1-0.3,0.1c-0.2,0-0.4,0-0.6,0c-0.1,0-0.2,0-0.2,0.1
		c0,0.1,0,0.2,0.1,0.2c0,0,0.1,0.1,0.1,0.1c0,0.2,0.1,0.3,0.2,0.4c0.1,0.1,0,0.4-0.1,0.5c-0.1,0.1-0.2,0.1-0.3,0
		c-0.1-0.1-0.2-0.2-0.3-0.3c-0.1-0.1-0.2-0.2-0.3-0.3c-0.1,0-0.1-0.1-0.1-0.2C5.1,31,5,30.8,4.8,30.6c-0.2-0.2-0.1-0.6,0-0.9
		C4.9,29.7,5,29.6,5,29.5c0-0.1,0.1-0.2,0.1-0.3c0.2-0.3,0.4-0.6,0.5-0.9c0.1-0.2,0.2-0.3,0.3-0.5C6,27.7,6,27.7,6,27.6
		c0-0.2,0.2-0.2,0.2-0.3c0.2-0.4,0.4-0.8,0.6-1.1c0-0.1,0.1-0.2,0-0.2c-0.1-0.1-0.2-0.1-0.3-0.1c-0.1,0-0.2,0-0.4,0
		c-0.1-0.1-0.2-0.1-0.4-0.1c-0.1,0-0.1,0-0.2,0c-0.2-0.2-0.5-0.1-0.7-0.1c-0.1,0-0.2,0-0.3-0.1c-0.2-0.2-0.3-0.3-0.6-0.2
		c-0.1,0-0.3,0-0.4-0.1c0,0-0.1,0-0.1,0c-0.3,0-0.5-0.1-0.8-0.2c-0.2,0-0.3,0.1-0.2,0.2c0.1,0.3,0.1,0.7,0.3,1
		c0.1,0.2,0,0.4-0.3,0.4c-0.2,0-0.4-0.1-0.5-0.3C2,25.9,1.9,25.5,1.8,25c0,0,0,0,0,0c-0.2-0.2-0.1-0.5-0.3-0.8c-0.1-0.1,0-0.1,0-0.2
		c0.2-0.3,0.5-0.5,0.7-0.7c0.2-0.2,0.5-0.4,0.6-0.7C3,22.5,3,22.4,3.1,22.3c0.3-0.2,0.5-0.3,0.7-0.6c0.1-0.1,0.2-0.2,0.3-0.3
		c0.3-0.2,0.5-0.4,0.7-0.7C4.9,20.7,5,20.7,5,20.7c0.2-0.2,0.4-0.4,0.5-0.6c0.1-0.1,0.2-0.2,0.3-0.3C6,19.7,6.1,19.6,6,19.4
		c0-0.1-0.1-0.2-0.2-0.2c-0.3,0.1-0.5,0-0.8-0.1c-0.3,0-0.6-0.1-1-0.1c-0.3,0-0.6,0-0.9-0.1c-0.3-0.1-0.6-0.1-1-0.1
		c-0.1,0-0.2,0-0.2,0.2c0,0.4-0.1,0.8-0.4,1.1c-0.1,0.1-0.2,0.2-0.4,0.1c-0.1,0-0.2,0-0.3,0C1,19.9,1,19.5,1,19.1z M4.6,17.5
		c0,0.3,0,0.3,0.3,0.3c0.1,0,0.3,0,0.4,0c0.3,0.1,0.6,0.1,0.9,0.1c0,0,0.1,0,0.1,0c0.2-0.1,0.4-0.3,0.4-0.5c0,0,0-0.1,0-0.1
		c0.2-0.3,0.1-0.7,0.2-1c0,0,0,0,0,0c-0.1-0.2-0.4-0.5-0.7-0.5c-0.2,0-0.3,0-0.5-0.1c0,0-0.1,0-0.1,0c-0.1,0.1-0.3,0.1-0.4,0.2
		C5,16,4.8,16.2,4.8,16.5c0,0.2-0.2,0.4-0.1,0.6c0,0,0,0,0,0.1C4.6,17.3,4.6,17.4,4.6,17.5z M2.1,17c0,0.4,0.1,0.5,0.3,0.5
		c0.2,0,0.4,0.1,0.7,0.1c0,0,0.1,0,0.1,0c0.2,0.1,0.3,0.1,0.5,0.1c0.1,0,0.1,0,0.1-0.1c0.1-0.2,0.1-0.4,0.2-0.6
		c0.1-0.2,0.1-0.4,0-0.6c0-0.1,0-0.1,0-0.2c0.1-0.3-0.1-0.5-0.4-0.5c-0.2,0-0.3,0-0.5-0.1c-0.4-0.1-0.6,0.1-0.7,0.5
		c0,0.1-0.1,0.2-0.1,0.3C2.2,16.6,2.1,16.8,2.1,17z M7.8,29.9c0.1,0,0.2,0,0.1-0.1c0-0.1-0.1-0.2-0.2-0.3c-0.2-0.3-0.5-0.5-0.7-0.8
		c0-0.1-0.1-0.1-0.2-0.1c-0.1,0-0.1,0.1-0.1,0.2c0,0,0,0.1,0,0.1c-0.2,0.3-0.4,0.5-0.4,0.8c0,0,0,0,0,0.1c-0.1,0.2-0.1,0.2,0.1,0.2
		c0.1,0,0.1,0,0.2,0C7,29.9,7.4,29.9,7.8,29.9z M4.1,23.2c0,0-0.1,0.1-0.1,0.1c-0.2,0.2-0.4,0.5-0.7,0.8c-0.1,0-0.1,0.1,0,0.2
		c0.2,0.1,0.3,0.2,0.5,0.2c0.2,0,0.4,0,0.5,0.1c0.1,0.1,0.2,0.1,0.3,0.1c0.1-0.1,0-0.2,0-0.3c-0.1-0.3-0.3-0.5-0.3-0.8
		c0,0-0.1-0.1-0.1-0.2C4.2,23.2,4.2,23.2,4.1,23.2z"/>
	<path class="st0" d="M23.7,38C23.7,38,23.8,38,23.7,38c-0.1,0.1-0.3,0.1-0.3,0.1c-0.1-0.1-0.2-0.1-0.2-0.1c-0.1,0-0.1-0.1,0-0.2
		c0-0.2,0.3-0.4,0.5-0.5c0.2,0,0.4-0.1,0.7-0.2c0.2,0,0.2-0.2,0.1-0.3c-0.1-0.2-0.1-0.4-0.2-0.6c-0.1-0.2-0.1-0.4-0.2-0.6
		c0-0.1-0.1-0.1-0.2-0.2c-0.1-0.2,0-0.4-0.1-0.5c-0.2-0.3-0.3-0.6-0.4-0.9c0,0-0.1-0.1-0.1-0.1c-0.2-0.3-0.3-0.3-0.6-0.2
		c-0.1,0.1-0.3,0.1-0.4,0.2c-0.2,0-0.3-0.1-0.4-0.2c-0.1-0.1-0.1-0.2,0-0.3c0-0.1,0-0.1,0-0.2c-0.1-0.1-0.2-0.1-0.3-0.1
		c-0.2,0-0.4-0.1-0.7-0.1c-0.3-0.1-0.5,0-0.7,0.1c-0.2,0.1-0.4,0.2-0.7,0.3c-0.1,0-0.2,0-0.3,0c-0.2,0-0.4,0-0.6,0.1
		c-0.1,0-0.1,0-0.2,0c-0.2-0.1-0.5-0.2-0.8-0.2c-0.2,0-0.4-0.1-0.6-0.2c0,0-0.1,0-0.1,0c-0.1,0-0.1-0.1-0.2,0c0,0.1,0.1,0.1,0.1,0.1
		c0,0,0.1,0.1,0.1,0.1c0.1,0,0.2,0.1,0.2,0.3c0,0.2-0.1,0.3-0.3,0.4c-0.1,0.1-0.3,0.1-0.5,0c-0.1-0.1-0.3-0.1-0.4-0.2
		c-0.1,0-0.1,0-0.2-0.1c-0.1-0.1-0.3-0.1-0.4,0.1c-0.1,0.1-0.1,0.3-0.2,0.4c-0.2,0.3-0.4,0.7-0.6,1c-0.2,0.2-0.2,0.5-0.3,0.7
		c0,0.1-0.1,0.1-0.1,0.2c-0.2,0.2-0.1,0.5,0.1,0.6c0.1,0,0.1,0.1,0.2,0.1c0.2,0.2,0.5,0.3,0.8,0.4c0.3,0.1,0.3,0.3,0.1,0.5
		c0,0-0.1,0.1-0.1,0.2c-0.1,0.1-0.2,0.1-0.3,0c-0.3-0.1-0.5-0.3-0.8-0.4c-0.2-0.1-0.5-0.3-0.7-0.3c-0.1,0-0.2-0.1-0.3-0.1
		c-0.3-0.2-0.6-0.3-1-0.4c-0.1,0-0.2-0.2-0.3-0.2c-0.3-0.1-0.5-0.2-0.8-0.4c-0.2-0.1-0.4-0.2-0.7-0.3c-0.2-0.1-0.4-0.2-0.6-0.3
		c-0.2-0.2-0.4-0.3-0.7-0.4c-0.3-0.1-0.5-0.3-0.7-0.4c-0.3-0.1-0.5-0.3-0.7-0.5c-0.3-0.2-0.3-0.3,0-0.6c0.2-0.3,0.5-0.5,0.6-0.8
		c0.2-0.3,0.5-0.5,0.7-0.8c0.1-0.1,0.2-0.2,0.4,0c0.1,0.1,0.3,0.2,0.4,0.3c0.2,0.2,0.2,0.4,0,0.6c-0.1,0.2-0.3,0.4-0.4,0.6
		c-0.1,0.2,0,0.4,0.2,0.6c0.2,0.2,0.3,0.4,0.5,0.5c0.2,0.1,0.4,0.3,0.7,0.4c0.3,0.2,0.7,0.3,1,0.5c0.2,0.2,0.4,0.2,0.5,0
		c0.1-0.1,0.1-0.2,0.1-0.2c0.1-0.2,0.2-0.3,0.3-0.5c0-0.1,0.1-0.2,0-0.2c-0.2-0.2-0.5-0.4-0.8-0.5c-0.2-0.1-0.4,0.1-0.5,0.2
		c-0.2,0.2-0.4,0.2-0.6,0c-0.1,0-0.1-0.1-0.2-0.1c-0.2-0.1-0.1-0.2,0-0.3c0.1-0.2,0.2-0.4,0.3-0.6c0.1-0.2,0.2-0.3,0.3-0.4
		c0.1-0.1,0.1-0.2,0.2-0.4c0.1-0.2,0.2-0.4,0.4-0.5c0.1,0,0.1-0.1,0.2,0c0.2,0.1,0.4,0.2,0.5,0.3c0.1,0.1,0.1,0.1,0,0.2
		c-0.2,0.2-0.2,0.4-0.2,0.7c0,0.1,0,0.1,0.1,0.1c0.2,0.1,0.4,0.3,0.7,0.4c0.1,0,0.2,0.2,0.3,0.1c0.1,0,0.1-0.2,0.2-0.3
		c0.2-0.2,0.2-0.4,0.4-0.6c0-0.1,0-0.1-0.1-0.2c-0.1-0.1-0.3-0.2-0.4-0.3c-0.1-0.1-0.2-0.2-0.2-0.4c0-0.2,0.1-0.3,0.2-0.4
		c0.2-0.1,0.3,0,0.5,0.1c0.2,0.1,0.3,0.2,0.5,0.4c0.1,0,0.1,0.1,0.2,0c0.2-0.2,0.4-0.2,0.6-0.3c0.2-0.1,0.4-0.2,0.7,0
		c0.2,0.1,0.3,0,0.5,0.1c0.1,0,0.2,0.1,0.3,0.2c0.1,0.1,0.3,0.2,0.5,0.2c0.3,0.1,0.7,0.1,1.1,0.2c0.3,0,0.6-0.1,0.9-0.2
		c0.2-0.1,0.4-0.2,0.7-0.2c0.2,0,0.3-0.1,0.5-0.1c0.2,0,0.4,0,0.6-0.1c0,0,0.1,0,0.1,0c0.1,0.1,0.2,0.1,0.2,0.1c0.1,0,0.2,0,0.1-0.2
		c0,0,0-0.1,0-0.1c0,0,0.1,0,0.1,0c0.1,0.2,0.4,0.1,0.5,0.2c0.3,0.1,0.5,0.3,0.8,0.4c0.2,0.1,0.5,0.2,0.8,0.2c0.2,0,0.3,0.1,0.5,0.1
		c0.2,0,0.3-0.1,0.5-0.1c0.2,0,0.4-0.1,0.5-0.2c0.1,0,0.2-0.1,0.3,0.1c0.2,0.3,0.2,0.4-0.1,0.7c-0.3,0.2-0.5,0.3-0.9,0.3
		c-0.2,0-0.3,0.1-0.2,0.3c0.1,0.3,0.3,0.6,0.3,1c0,0.2,0.1,0.3,0.2,0.5c0.1,0.3,0.2,0.5,0.3,0.8c0,0.1,0.1,0.1,0.1,0.1
		c0.1,0,0.1-0.1,0.1-0.2c0-0.3,0.1-0.5,0.2-0.8c0-0.2,0.2-0.3,0.2-0.5c0,0,0-0.1,0-0.2c0-0.3,0.2-0.5,0.3-0.8
		c0.1-0.2,0.3-0.2,0.5-0.1c0.1,0,0.1,0.1,0.2,0.1c0.3,0,0.6,0.2,0.9,0.4c0.1,0,0.1,0.1,0.2,0.1c0.1,0,0.2,0,0.2,0.1c0,0,0.1,0,0.1,0
		c0.2,0,0.3,0.1,0.4,0.1c0.1,0,0.1,0,0.1,0c0.1-0.1,0-0.1,0-0.1c-0.2-0.3-0.3-0.7-0.6-1c-0.1-0.1-0.2-0.3-0.2-0.5
		c0-0.2-0.2-0.3-0.2-0.4c0-0.1,0-0.1-0.1-0.2c-0.1-0.3-0.2-0.3-0.5-0.2c-0.2,0.1-0.3,0.2-0.5,0.3c-0.1,0.1-0.2,0.1-0.2,0
		c-0.1-0.1-0.2-0.2-0.2-0.3c-0.1-0.1,0-0.3,0.1-0.4c0.4-0.2,0.8-0.4,1.2-0.6c0.3-0.1,0.6-0.3,0.9-0.4c0.2-0.1,0.3,0,0.5,0.1
		c0.1,0.1,0.1,0.3-0.1,0.4c-0.1,0.1-0.2,0.3-0.5,0.2c-0.1,0-0.1,0.1-0.2,0.2c0,0.1,0,0.1,0,0.2c0.3,0.3,0.5,0.6,0.6,1
		c0.1,0.2,0.3,0.4,0.4,0.7c0.1,0.2,0.2,0.4,0.4,0.6c0,0.1,0.1,0.2,0.1,0.2c0.1,0.1,0.2,0.3,0.3,0.5c0.1,0.2,0.3,0.2,0.4,0.1
		c0.2-0.2,0.4-0.1,0.7-0.2c0.1,0,0.2,0.2,0.1,0.4c-0.1,0.2-0.3,0.3-0.5,0.3c-0.2,0.1-0.4,0.2-0.6,0.3c-0.2,0.1-0.3,0.1-0.5,0.3
		c-0.1,0.1-0.1,0.2-0.2,0.2c-0.3,0-0.7,0-0.9-0.3c-0.1-0.1-0.2-0.2-0.4-0.2c-0.2,0-0.3-0.1-0.4-0.2c-0.2-0.1-0.5-0.1-0.7-0.2
		c-0.1-0.1-0.2-0.2-0.4-0.2c-0.1,0-0.2,0.1-0.2,0.2c-0.1,0.2-0.1,0.4-0.2,0.6c0,0.2-0.2,0.4-0.2,0.6c-0.1,0.3-0.2,0.6-0.3,0.9
		c-0.1,0.2-0.2,0.3-0.4,0.3c-0.3,0.1-0.6,0.1-0.8,0.3c-0.1,0.1-0.1,0.1-0.2,0c-0.1-0.1-0.2,0-0.3,0C24,38,23.8,37.9,23.7,38z
		 M16.1,32.4c0,0-0.2-0.1-0.2,0c0,0.1,0.1,0.2,0.2,0.2c0.2,0.1,0.3,0.2,0.5,0.2c0.1,0,0.1,0,0.1,0c0,0,0-0.1,0-0.1
		C16.5,32.6,16.4,32.4,16.1,32.4z"/>
	<path class="st0" d="M38.9,21.7c0-0.1,0-0.2,0-0.3C38.8,21.4,38.8,21.5,38.9,21.7c0,0,0,0.1-0.1,0.2c-0.1,0.1,0,0.1,0,0.2
		c0.1,0.1,0,0.2-0.1,0.3c-0.1,0.2-0.2,0.4-0.2,0.7c0,0.2,0,0.4-0.1,0.6c0,0.1-0.1,0.2-0.1,0.3c0,0.3-0.2,0.6-0.3,0.9
		c0,0.1,0.1,0.1,0,0.2c-0.1,0.2-0.1,0.4-0.2,0.6c-0.1,0.2-0.2,0.4-0.2,0.7c0,0.2-0.1,0.3-0.2,0.4c-0.1,0.1-0.3,0.1-0.4,0
		c-0.1-0.1-0.3,0-0.4-0.1c-0.1,0-0.2-0.1-0.3-0.1c-0.1-0.1-0.3-0.1-0.4-0.1c-0.2,0-0.3-0.2-0.4-0.3c-0.1-0.1,0.1-0.2,0.1-0.3
		c0.2-0.2,0.6-0.2,0.9-0.1c0.1,0.1,0.2,0.1,0.3,0c0.3-0.2,0.5-0.5,0.6-0.8c0.1-0.3,0.2-0.6,0.3-0.9c0.1-0.1,0-0.3,0-0.5
		c0-0.1-0.1-0.2-0.2-0.2c-0.2,0-0.4-0.1-0.6-0.2c-0.2-0.1-0.4-0.1-0.6-0.1C36,22.8,36,22.8,36,23c0,0.2-0.1,0.3-0.1,0.5
		c0,0.1,0,0.1,0.1,0.2c0.2,0.1,0.3,0.2,0.4,0.3c0.2,0.1,0.2,0.3,0.1,0.5c-0.1,0.2-0.2,0.2-0.4,0.2c-0.3,0-0.5-0.1-0.7-0.2
		c0,0-0.1,0-0.1,0c-0.2,0.1-0.3-0.1-0.5-0.1c0,0-0.1,0-0.1,0c-0.3,0-0.6,0-0.9-0.1c-0.1,0-0.1-0.1-0.1-0.2c0.1-0.6,0.2-0.6,0.8-0.6
		c0.1,0,0.1,0,0.2,0c0.1,0,0.2-0.1,0.2-0.2c0-0.2,0.1-0.3,0.1-0.4c0.1-0.2,0-0.4-0.3-0.4c-0.3,0-0.7-0.2-1-0.2
		c-0.2,0-0.3,0.1-0.5,0.2c-0.2,0.1-0.2,0.3-0.2,0.5c0,0.3,0,0.6-0.1,0.9c-0.1,0.3-0.1,0.6-0.2,0.8c-0.1,0.1,0.1,0.5,0.2,0.7
		c0.2,0.2,0.5,0.3,0.8,0.5c0.1,0.1,0.2,0.1,0.3,0.2c0,0,0.1,0,0.1,0.1c0,0.2,0,0.5-0.1,0.6c-0.1,0.1-0.3,0.1-0.5,0
		c-0.4-0.1-0.8-0.4-1.3-0.4c-0.1,0-0.3,0-0.4-0.1c-0.2-0.1-0.2-0.3-0.1-0.5c0.1-0.2,0.2-0.4,0.2-0.6c0-0.2,0.1-0.4,0.1-0.6
		c0-0.2,0.2-0.4,0.1-0.6c0-0.1,0.1-0.1,0.1-0.2c0.1-0.3,0.1-0.6,0.2-0.9c0-0.2,0.1-0.4,0.2-0.6c0.1-0.2,0-0.4,0.2-0.6
		c0.1-0.1,0-0.3,0-0.4c0-0.2,0-0.3,0.1-0.5c0-0.1,0-0.1,0-0.2c0-0.2,0.1-0.3,0.2-0.4c0.1-0.1,0.2-0.1,0.3,0c0.1,0.1,0.3,0.1,0.2,0.3
		c0,0.1,0,0.3-0.1,0.4c-0.1,0.2,0,0.4,0.2,0.5c0.3,0.2,0.6,0.2,0.9,0.3c0.3,0.1,0.6,0.1,0.9,0.2c0.2,0,0.4,0,0.5,0.1
		c0.3,0.1,0.6,0.1,1,0.2c0.2,0,0.4,0.1,0.6,0.1c0.2,0,0.2,0,0.3-0.2c0-0.3,0.2-0.6,0.4-0.9c0.1-0.1,0.2,0,0.3,0
		c0.1,0.1,0.1,0.1,0.1,0.2C38.9,21.3,38.9,21.5,38.9,21.7C38.9,21.7,38.9,21.7,38.9,21.7z"/>
	<path class="st0" d="M33.2,13.8c0.3,0.1,0.5-0.1,0.8-0.3c0.1-0.1,0.3-0.2,0.4-0.2c0.2-0.1,0.5-0.2,0.7-0.3c0.2-0.1,0.5-0.2,0.8-0.3
		c0.1,0,0.2-0.1,0.3-0.2c0.1-0.1,0.1-0.2,0-0.3c-0.1-0.1-0.1-0.3-0.2-0.4c-0.1-0.1,0-0.3,0.1-0.4c0.1-0.1,0.2-0.1,0.3,0
		c0.1,0.1,0.2,0.1,0.2,0.2c0,0,0.1,0.1,0.1,0.1c0,0.2,0.1,0.4,0.2,0.5c0.1,0.2,0.1,0.4,0.2,0.6c0.2,0.3,0.2,0.6,0.4,0.9
		c0,0,0,0.1,0,0.2c0,0.1,0,0.2,0.1,0.2c0.1,0.1,0.1,0.1,0.1,0.2c-0.1,0.1-0.2,0.3-0.3,0.3c-0.1,0-0.2-0.1-0.2-0.2
		C37,14.3,37,14,36.9,13.7c-0.1-0.1-0.1-0.1-0.3-0.1c-0.3,0.1-0.5,0.3-0.8,0.3c-0.2,0-0.4,0.2-0.6,0.2c-0.1,0-0.3,0.1-0.4,0.2
		c-0.2,0-0.3,0.1-0.5,0.2c-0.3,0.1-0.6,0.3-1,0.3c-0.4,0-0.8,0.1-1.1-0.1c-0.3-0.2-0.5-0.4-0.7-0.6c-0.2-0.1-0.2-0.4-0.3-0.5
		c0-0.1-0.1-0.1-0.1-0.2c-0.1-0.1-0.2-0.2-0.2-0.4c0,0,0-0.1,0-0.1c-0.2-0.2-0.2-0.4-0.2-0.6c0-0.1,0-0.3,0-0.4
		c0-0.3,0.2-0.6,0.3-0.9c0.2-0.3,0.5-0.4,0.7-0.6c0.2-0.1,0.4-0.2,0.5-0.4c0.1-0.1,0.1-0.2,0.2-0.3c0.1,0,0.1-0.1,0.2-0.1
		c0.2,0,0.3-0.1,0.4-0.1c0.3-0.2,0.5-0.4,0.8-0.6c0.2-0.1,0.2-0.3,0-0.4c-0.2-0.2-0.3-0.4-0.4-0.6c0-0.2,0-0.3,0.2-0.4
		c0.1-0.1,0.3,0,0.3,0.1c0.2,0.2,0.3,0.4,0.4,0.6c0.1,0.1,0.2,0.2,0.3,0.4c0.2,0.4,0.6,0.7,0.8,1c0,0.1,0.1,0.1,0.1,0.2
		c0.1,0.2,0.2,0.3,0.3,0.5c0.1,0.2,0,0.3-0.2,0.4c-0.4,0-0.5,0-0.6-0.4c0-0.1-0.1-0.2-0.1-0.3c-0.1-0.1-0.3-0.1-0.4,0
		c-0.3,0.3-0.6,0.6-1,0.7c-0.4,0.1-0.6,0.4-0.9,0.6c-0.1,0.1-0.3,0.2-0.4,0.2c-0.1,0.1-0.2,0.2-0.2,0.4c-0.1,0.3,0,0.6,0.1,1
		c0.1,0.2,0.2,0.5,0.4,0.6C32.8,13.6,32.9,13.9,33.2,13.8z"/>
	<path class="st0" d="M7.2,13.8c-0.3-0.1-0.6-0.1-0.8-0.2c-0.3-0.1-0.5-0.2-0.8-0.3c-0.1,0-0.2-0.1-0.2-0.2
		c-0.3-0.3-0.7-0.5-0.8-0.9c-0.1-0.2-0.2-0.4-0.1-0.6c0,0,0-0.1,0-0.1c-0.2-0.2,0-0.5-0.1-0.7c0-0.1,0-0.2,0-0.2
		c0.1-0.2,0.1-0.5,0.2-0.7c0.1-0.2,0.2-0.5,0.3-0.7C4.9,9,5,8.8,5.2,8.6c0.1-0.2,0.4-0.3,0.6-0.4C5.9,8.1,6,8,6.1,7.9c0,0,0,0,0,0
		c0.2,0,0.4-0.1,0.6-0.1c0.1,0,0.2,0,0.3-0.1c0,0,0,0,0,0c0.2,0.1,0.3,0,0.5,0c0.2,0,0.3,0,0.4,0.1c0,0,0.1,0,0.1,0
		C8.6,7.6,9,7.8,9.3,8c0.2,0.2,0.4,0.3,0.6,0.6C10,8.8,10.2,9,10.3,9.3c0.1,0.3,0.2,0.5,0.1,0.8c0,0,0,0,0,0c0.2,0.3,0,0.5,0,0.8
		c0,0.2-0.1,0.4-0.2,0.7c-0.1,0.3-0.3,0.5-0.4,0.7c-0.1,0.1-0.2,0.2-0.3,0.3c-0.2,0.2-0.4,0.4-0.7,0.6c-0.2,0.1-0.4,0.2-0.6,0.3
		c-0.2,0.1-0.5,0.1-0.7,0.2C7.4,13.8,7.3,13.8,7.2,13.8z M5.1,10.7c0.1,0.1,0,0.3,0.2,0.4c0.2,0.2,0.4,0.3,0.6,0.4
		c0.1,0,0.2,0.1,0.2,0.2c0,0.1,0.1,0.2,0.2,0.2C6.6,12,6.8,12.3,7,12.5c0.2,0.2,0.4,0.1,0.6,0.2c0,0,0.1,0,0.1,0
		c0.2-0.1,0.3-0.2,0.5-0.2c0.3-0.1,0.6-0.2,0.8-0.5c0.2-0.3,0.4-0.5,0.4-0.8c0,0,0-0.1,0.1-0.1c0.2-0.3,0-0.7-0.2-0.9
		C9.1,9.9,8.9,9.8,8.7,9.6C8.6,9.5,8.5,9.3,8.3,9.2C8.1,9.1,7.9,8.9,7.7,8.7C7.4,8.4,7,8.5,6.7,8.5c0,0,0,0,0,0
		C6.4,8.7,6.1,8.8,5.9,9C5.8,9.2,5.7,9.3,5.5,9.5C5.2,9.8,5.2,10.3,5.1,10.7z"/>
	<path class="st0" d="M38.3,19.7c-0.2,0.1-0.5,0-0.8,0c-0.1,0-0.2,0-0.3,0.1c-0.2,0.1-0.4,0-0.6-0.2c-0.1-0.1,0-0.5,0.1-0.6
		c0.2-0.1,0.4-0.1,0.5-0.2c0.4-0.1,0.8-0.6,0.7-1c0,0,0-0.1,0-0.1c0-0.1,0.1-0.2,0-0.3c-0.2-0.2-0.3-0.5-0.6-0.6
		c-0.4-0.2-1,0.1-1,0.6c-0.1,0.4-0.1,0.7-0.1,1.1c0,0.2-0.1,0.4-0.2,0.5c-0.1,0.2-0.2,0.4-0.4,0.5c-0.2,0.2-0.4,0.4-0.8,0.4
		c-0.2,0-0.3,0.1-0.5,0.1c-0.1,0-0.2,0-0.2-0.1c0,0-0.1,0-0.1,0c-0.3,0.1-0.5-0.2-0.8-0.3c-0.2-0.1-0.3-0.3-0.4-0.5
		c-0.1-0.1-0.1-0.2-0.1-0.3c-0.1-0.2-0.1-0.5-0.1-0.7c0-0.1,0-0.2,0-0.3c0,0,0-0.1,0-0.1c0.3-0.4,0.2-0.7-0.1-1.1
		c-0.1-0.1-0.1-0.2-0.1-0.3c0-0.1,0.1-0.1,0.2-0.1c0.1,0,0.3,0,0.4-0.1c0.1-0.1,0.2-0.1,0.3-0.1c0.1,0,0.2,0,0.3-0.1
		c0.2,0,0.4-0.1,0.6,0c0.1,0.1,0.1,0.2,0.1,0.4c0,0.1-0.1,0.2-0.2,0.3c-0.5,0.1-0.9,0.6-0.9,1.1c0,0.1,0,0.3,0,0.4
		c0,0.4,0.3,0.6,0.6,0.8c0.4,0.2,0.6,0.1,0.8-0.3c0.1-0.2,0.1-0.5,0.1-0.7c0-0.2,0.1-0.4,0.2-0.6c0-0.1,0.1-0.1,0.1-0.2
		c0-0.2,0.1-0.4,0.2-0.6c0.2-0.4,0.6-0.7,1-0.9c0.2-0.1,0.5-0.1,0.8,0c0.2,0.1,0.4,0.1,0.6,0.2c0.2,0.1,0.4,0.3,0.6,0.5
		c0.2,0.2,0.2,0.6,0.4,0.8c0,0.1,0,0.1,0,0.2c0,0.1,0,0.1,0,0.2c0.1,0.2,0,0.4,0,0.7c0,0.2-0.1,0.3-0.2,0.5c-0.1,0.2-0.1,0.2,0,0.4
		c0.1,0.1,0.1,0.2,0.2,0.3c0.1,0.1-0.1,0.3-0.3,0.3C38.5,19.7,38.4,19.7,38.3,19.7z"/>
	<path class="st0" d="M21.6,35.2c0.2,0.3-0.1,0.6-0.1,0.9c0,0.1-0.1,0.1-0.1,0.1c-0.3,0.4-0.7,0.6-1,0.9c-0.1,0.1-0.3,0.2-0.4,0.3
		c-0.1,0.1-0.1,0.1-0.2,0.2c-0.1,0.2-0.4,0.2-0.5,0c-0.1-0.1-0.2-0.2-0.3-0.3c-0.2-0.1-0.2-0.3-0.4-0.4c-0.2-0.2-0.3-0.4-0.5-0.6
		c-0.2-0.1-0.3-0.3-0.3-0.5c0-0.2-0.2-0.4-0.1-0.6c0-0.4,0.2-0.7,0.5-0.9c0,0,0.1,0,0.2,0c0.1,0,0.2,0,0.2-0.1c0,0,0,0,0,0
		c0.2-0.1,0.8,0.1,1,0.3c0.1,0.1,0.2,0.1,0.2,0c0.1-0.2,0.3-0.3,0.5-0.3c0.1-0.1,0.3-0.1,0.4,0c0.3,0.2,0.6,0.3,0.8,0.6
		C21.6,35,21.6,35.1,21.6,35.2z"/>
</g>
<g>
</g>
<g>
</g>
<g>
</g>
<g>
</g>
<g>
</g>
<g>
</g>
</svg>
