<?xml version="1.0" encoding="utf-8"?>
<!-- Generator: Adobe Illustrator 17.0.0, SVG Export Plug-In . SVG Version: 6.00 Build 0)  -->
<!DOCTYPE svg PUBLIC "-//W3C//DTD SVG 1.1//EN" "http://www.w3.org/Graphics/SVG/1.1/DTD/svg11.dtd">
<svg version="1.1" id="Layer_1" xmlns="http://www.w3.org/2000/svg" xmlns:xlink="http://www.w3.org/1999/xlink" x="0px" y="0px"
	 width="45.005px" height="32.485px" viewBox="0 0 45.005 32.485" enable-background="new 0 0 45.005 32.485" xml:space="preserve">
<g>
	<g>
		<path fill="#FFFFFF" d="M45.005,5H39V0h6.005V5z M32.5,5H26V0h6.5V5z M19.5,5H13V0h6.5V5z M6.5,5H0V0h6.5V5z"/>
	</g>
	<g>
		<path fill="#FFFFFF" d="M45.005,18.741H39v-5h6.005V18.741z M32.5,18.741H26v-5h6.5V18.741z M19.5,18.741H13v-5h6.5V18.741z
			 M6.5,18.741H0v-5h6.5V18.741z"/>
	</g>
	<g>
		<path fill="#FFFFFF" d="M45.005,32.485H39v-5h6.005V32.485z M32.5,32.485H26v-5h6.5V32.485z M19.5,32.485H13v-5h6.5V32.485z
			 M6.5,32.485H0v-5h6.5V32.485z"/>
	</g>
</g>
</svg>
