<?xml version="1.0" encoding="utf-8"?>
<!-- Generator: Adobe Illustrator 18.1.1, SVG Export Plug-In . SVG Version: 6.00 Build 0)  -->
<!DOCTYPE svg PUBLIC "-//W3C//DTD SVG 1.1//EN" "http://www.w3.org/Graphics/SVG/1.1/DTD/svg11.dtd">
<svg version="1.1" id="Layer_0_xA0_Image_1_" xmlns="http://www.w3.org/2000/svg" xmlns:xlink="http://www.w3.org/1999/xlink"
	 x="0px" y="0px" viewBox="0 0 276 266" enable-background="new 0 0 276 266" xml:space="preserve">
<g>
	<path fill="#FFFFFF" d="M144.9,9.1c0,0.6,0.2,1.1,0.6,1.5c0.5,0.5,0.9,0.6,1.4,0c0.9-1.1,2-1,3.1-0.5c1.1,0.4,2,0.9,2,2.3
		c0,1.1,0.1,2.2,0,3.3c-0.1,1.3-0.2,2.7,0.1,4.1c0.1,0.3,0.1,0.7-0.1,1c-0.3,0.5-0.2,1-0.1,1.5c0.5,1.6-0.6,2.9-2.3,2.8
		c-0.8-0.1-1.5-0.2-2.4,0c-0.6,0.1-1.1-0.1-1.5-0.7c-1-1.9-1.6-3.9-2-6c-0.3-1.5-1.7-3-3.2-3.1c-1.4-0.1-2.6-0.8-4-1
		c-2.1-0.2-4.2-0.3-6.2,0.2c-1.7,0.4-3.5,1.2-4.8,2.3c-2,1.6-3.3,3.7-2.9,6.6c0.2,1.3,0.3,2.7-0.5,3.9c-0.1,0.2-0.2,0.7,0,0.9
		c0.7,0.9,0.5,1.8,0.4,2.8c-0.3,2.6,0,5.2,1.3,7.6c0.3,0.6,0.7,1.1,1.3,1.3c1.9,0.8,3.7,1.7,5.5,2.7c0.6,0.3,1.2,0.2,1.9,0
		c2.4-0.7,4.9-0.6,7.3-0.4c2.1,0.2,3.2-0.3,2.9-2.7c-0.3-1.8,0.4-3.5,0.3-5.3c-0.1-1.1-0.3-1.8-1.7-2c-1.4-0.1-2.8-0.6-4.3-0.4
		c-0.8,0.1-1.4-0.5-2-0.9c-1.1-0.7-0.9-1.1,0-2c1.4-1.4,2.9-1.1,4.4-0.7c0.7,0.2,1.2,0.3,1.8-0.1c0.3-0.2,0.6-0.3,0.9-0.3
		c1.9,0.3,3.9,0.3,5.9,0.3c1.7,0,3.4,0.2,5.2-0.1c0.3,0,0.6-0.2,0.8-0.1c1.6,0.5,3.3-0.2,5,0.4c0.8,0.3,1.7-0.3,2.4,0.5
		c0.6,0.7,1.6,1.2,1.2,2.3c-0.4,1.2-1.5,1.1-2.5,1c-1.6-0.3-3.3-0.3-5-0.2c-0.7,0-1.2,0.3-1.1,1.2c0,0.7-0.2,1.3-0.4,2
		c-0.3,0.8,0.1,1.9,0.3,2.8c0.1,0.8,0,1.6-0.3,2.4c-0.6,1.6-1.1,3.4-0.1,5c0.7,1.2,0.6,2.6,1.5,3.7c0.2,0.3,0.2,0.7,0,1
		c-1.1,1.7-2.2,3.5-2.9,5.4c-0.2,0.5-0.8,0.8-1.2,1.2c-0.3,0.2-0.6,0.5-0.3,0.9c0.2,0.3,0.6,0.5,1,0.4c0.3-0.1,0.8,0,1-0.2
		c1.1-0.8,2.6-0.9,3.8-1.6c1.4-0.8,3-0.3,4.3,0.4c1.2,0.6,1.5,1.8,1.1,3.2c-0.1,0.3-0.1,0.7-0.1,1.1c0.5,2-0.1,3.9-0.3,5.9
		c-0.1,1-0.1,2.1-0.2,3.2c-0.1,1-0.6,1.8-1.4,2c-0.9,0.3-1.9,0.5-2.8-0.3c-0.7-0.7-1.8-0.8-2.7-1c-1.4-0.4-2.5-1.5-4-1.5
		c-0.4,0-0.8-0.1-1,0.2c-0.2,0.3-0.2,0.8,0,1c0.9,1,0.7,2.2,1,3.4c0.2,1.1,0.6,1.3,1.5,0.6c0.9-0.7,1.7-0.6,2.5,0.2
		c1,1,2.7,1,3.6-0.1c1-1.1,1.4-1.1,2.4-0.1c0.6,0.6,1.3,0.9,2.2,0.8c1.2-0.2,2.5,0.3,3.5-0.9c0.2-0.3,1-0.2,1.4,0.4
		c0.7,1,1.5,1.9,2.9,0.9c0.2-0.2,0.7-0.1,1-0.1c0.7,0,1.3-0.2,1.7-0.8c0.6-0.7,1.6-0.7,2.2,0.1c1.3,1.6,3.2,1.8,4.8,0.7
		c0.8-0.6,1.6-0.5,2.2,0.2c0.4,0.5,0.9,0.7,1.5,0.5c0.7-0.2,0.4-0.8,0.5-1.3c0.1-1.6,0.1-3.2,0.1-4.8c0-1.8-0.6-3.5-0.2-5.2
		c0.2-1-0.3-1.9-0.7-2.8c-0.1-0.3-0.3-0.5-0.6-0.5c-1.1,0-1.5-1-2.2-1.7c-0.5-0.4-0.5-1,0.1-1.5c0.3-0.2,0.4-0.6,0.6-0.8
		c0.7-0.9,1.5-1,2.3-0.3c1.4,1.3,2.1,1.1,3.9,0.5c2-0.8,3.9-2,6.2-2.2c2.6-0.3,4.9-1.4,6.6-3.7c1.6-2.1,2.8-4.5,4.8-6.4
		c0.3-0.2,0.5-0.7,0.2-1.1c-0.3-0.4-0.7,0-1.1,0.1c-2,0.6-3.9,1.3-5.9,1.9c-1.5,0.4-3.1,0.8-4.4,1.7c-0.2,0.2-0.5,0.3-0.8,0.3
		c-1.6-0.2-2.8,0.8-4,1.5c-1.8,1-2.8,0.6-4-1.1c-0.8-1.2-1-2.4-1.1-3.8c-0.1-1,0-2.1-0.1-3.1c-0.1-1.1-0.5-2.3-1-3.3
		c-0.8-1.7-0.8-3.5-0.9-5.3c0-0.5,0.2-1.2-0.6-1.3c-0.7-0.1-1,0.5-1.2,1c-0.8,2.2-1.9,4.4-3.1,6.4c-0.1,0.2-0.2,0.4-0.4,0.6
		c-2.4,2.7-3.7,5.9-3.6,9.5c0,1.1,0.8,2,1.7,2.6c0.5,0.4,1.1,0.6,1.5,1.1c1.2,1.2,1,3-0.5,3.7c-0.9,0.4-1.7-0.3-2.3-0.7
		c-1.3-0.9-2.6-1.5-4.1-1.9c-0.1,0-0.3,0-0.3-0.1c-1.3-1.5-3.1-1.5-4.9-1.7c-1-0.2-1.9-0.8-2.8-1.3c-1.1-0.7-2.4-1.2-3.5-2
		c-0.5-0.3-1.5-0.6-1.2-1.4c0.4-0.9,1.2-1.9,2.2-1.7c1.7,0.3,3.6-0.1,5.2,1c1,0.7,2.5,0.2,3.4-0.9c1.8-2.3,3.1-4.9,4.3-7.5
		c1-2.2,1.7-4.5,3-6.5c1.4-2.1,2.1-4.6,3.6-6.7c0.6-0.8,0.5-1.9,0.5-2.8c0-0.6-0.4-0.8-0.9-1.1c-1.9-1-4-1.4-5.7-2.8
		c-1.1-0.9-1.6-1.6-1.1-2.4c0.9-1.5,2.2-1.9,3.5-1.4c1.2,0.5,2.4,0.9,3.7,1.2c0.8,0.2,1.5,0.4,2.1,1c1.2,1.3,2.9,1.4,4.3,2.1
		c2.1,0.9,3.9,2.2,5,4.1c0.6,1,0.5,2.3,0.5,3.5c0,1.6,0.5,3,0.7,4.4c0.2,0.8,0.3,1.6,0.3,2.5c-0.1,1.2,0.5,2.4,0.6,3.6
		c0.1,1.4,0.5,2.7,0.7,4.1c0.1,0.7,0.6,0.8,1.2,0.6c1.7-0.6,3.4-1.2,5.1-1.7c1-0.3,1.9-0.9,2.8-1.3c1.5-0.7,3-1.1,4.4-1.9
		c1.9-1.1,3.8-0.9,5.7-1c0.5,0,0.8,0.1,1.2,0.3c1.3,0.8,2.5,1.6,3.7,2.6c1.4,1.2,3,2.3,4.4,3.5c0.7,0.6,1.3,1.3,2.1,1.7
		c0.5,0.3,0.9,0.7,1.3,1.1c0.6,0.7,0.7,1.4,0,2c-1.2,1.1-1.7,1.2-2.5,0.6c-1.5-1.2-3.2-2.1-4.9-3.1c-0.7-0.4-1.3-0.1-1.7,0.6
		c-1.8,2.8-4,5.2-6.3,7.6c-1.1,1.2-2.3,2.3-2.9,3.7c-0.8,1.8-2.1,3.3-3.1,4.8c-1,1.5-1.6,3.3-2.7,4.8c-0.4,0.6-0.4,1.3,0.1,1.9
		c1,1.1,1.8,2.2,3.1,3c0.8,0.5,1.3,1.4,0.9,2.2c-0.4,1-1,2.1-2.3,2.4c-0.5,0.1-0.9,0-1.2-0.5c-0.2-0.3-0.4-0.6-0.7-0.8
		c-1.1-0.7-1.4-0.6-1.7,0.7c-0.7,2.4-0.6,5-1.1,7.5c-0.6,3.1-0.2,6.3-0.3,9.4c0,0.5,0,1-0.3,1.4c-0.3,0.4-0.4,0.9-0.3,1.3
		c0.1,0.3,0.1,0.7,0,0.9c-0.7,1.2-0.5,2.4-0.4,3.7c0.1,2.6-0.1,5.3-0.3,7.9c0,0.8-0.1,1.5,0,2.2c0.1,0.7,0.1,1.4-0.5,1.9
		c-0.4,0.3-0.6,0.7-0.4,1.1c0.3,0.5,0.6,1,1.2,1c3.2-0.4,6.5,0.2,9.7-0.2c0.8-0.1,1.6-0.2,2.5-0.1c1.8,0.2,2.5,1.4,3.4,2.6
		c0.3,0.5,0.1,1,0.1,1.5c0.1,1.5,0.1,2.8-0.6,4.2c-0.5,1.2-0.5,2.6-0.6,3.9c-0.1,0.6-0.2,1.1-0.4,1.6c-0.3,0.5-0.3,1,0.1,1.5
		c0.5,0.6,0.3,1.3,0.1,2c-0.5,1.6-1.4,3.1-0.6,4.9c0.5,1-0.2,2-0.4,3c-0.2,1.4-0.3,2.9-0.5,4.4c-0.1,0.6-0.1,1.3-0.7,1.7
		c-0.3,0.2-0.4,0.5-0.3,0.8c0.3,1.5,0.1,2.9-0.5,4.3c-0.8,2.1-0.2,4.3-0.7,6.4c-0.6,2.5-0.3,5.2-0.9,7.8c-0.2,1.1-0.4,2.2-0.9,3.2
		c-0.2,0.5-0.3,1-0.2,1.6c0.2,0.8,0.2,1.5-0.3,2.2c-0.2,0.3-0.3,0.7-0.1,1c0.5,1.1,0.4,2.2,0.1,3.3c-0.3,1-0.2,2,0,3.1
		c0.3,2.2-0.5,3.1-2.7,3.5c-3.3,0.6-6.5,0-9.8,0c-1.8,0-3.5,0.2-5.3,0c-0.4,0-0.6,0.1-0.7,0.5c-0.1,0.4,0.3,0.5,0.5,0.7
		c0.4,0.2,0.7,0.4,1.1,0.3c2.1-0.6,4.2,0,6.2,0.2c1.4,0.1,2.7,0.2,4,1c1.2,0.8,2.5,1.5,3.5,2.5c1,0.9,2.3,1.6,3.1,2.9
		c0.5,0.7,1.1,0.4,1.5-0.1c1-1.1,2.1-2.1,2.8-3.3c0.5-0.7,1.1-0.7,1.7-1c1.7-0.9,3.1-2.1,4.7-3.1c0.3-0.2,0.5-0.5,0.8-0.4
		c1.6,0.2,3.1-0.6,4.7,0.1c0.2,0.1,0.6,0,0.8,0c1.3-0.4,2.5-0.6,3.5,0.6c0.1,0.1,0.2,0.1,0.3,0.1c2.1,0.1,3.5,1.2,4.9,2.7
		c0.8,0.8,1.7,1.8,2.8,2.4c2.2,1.2,4.1,2.8,5.9,4.6c0.7,0.7,1.4,0.7,2,0.1c1.1-1,2.3-1.9,3.1-3.2c0.8-1.3,2.1-2.3,3.8-2.6
		c1.2-0.2,2.6,0.6,3,1.7c0.1,0.4,0.3,1-0.2,1.3c-1.6,1.1-2.2,3-3.4,4.4c-2,2.4-3.6,5.1-5.8,7.3c-0.1,0.1-0.1,0.1-0.1,0.2
		c-1,2.8-3.6,4.5-5.1,6.9c-0.3,0.6-0.6,1.2-1,1.8c-0.4,0.6-0.8,0.8-1.4,0.3c-0.1-0.1-0.2-0.2-0.2-0.3c-1.9-0.3-1.8-1.7-1.7-3.1
		c0-0.7,0-1.2,0.8-1.6c0.9-0.4,1.5-1.2,1.9-2.2c0-0.1,0.1-0.2,0.2-0.3c0.9-2.5,0.7-2.3-1.3-4.1c-3.1-2.8-7.1-4.6-9.8-7.9
		c-1.9-2.3-4.5-2.7-7.1-2c-1.1,0.3-2.3,0.7-3.2,1.6c-1.6,1.6-3.4,3.1-4.9,4.9c-1.4,1.7-1.7,5.1-0.8,6.9c1.1,2.2,2.5,4,4.4,5.4
		c1.5,1.2,2.5,3,4,4.2c1.9,1.5,3.3,3.6,5.4,4.9c0.7,0.5,1.1,0.3,1.5-0.2c0.8-1.5,2.2-2.3,3.5-3.3c1.1-0.9,2.3-0.7,3.4,0.7
		c0.5,0.7,0.3,2-0.4,2.8c-1,1.1-1.9,2.3-3,3.2c-2.1,1.8-3.3,4.3-5.7,5.7c-1,0.6-1.7,1.6-2.3,2.5c-1,1.2-2.3,2.1-3.4,3.2
		c-0.6,0.6-1.4,0.5-2-0.2c-1.7-1.9-1.5-2.7,0.4-5.2c0.8-1,2-1.4,2.9-2.2c0.1,0,0.2,0,0.2-0.1c0.5-0.6,1.2-1.1,1.3-1.8
		c0.2-0.8-0.8-0.9-1.4-1.3c-1.6-1.2-3.3-2.3-4.5-4c-0.6-0.8-1.3-1.6-2.4-2c-1-0.4-1.7-1.4-2.2-2.3c-1-1.8-2.6-3.1-3.8-4.7
		c-1.4-2-2.1-4.2-2.2-6.8c0-1.7-0.3-3.3,0.7-4.8c0.5-0.8,1-1.6,1.6-2.3c0.4-0.5,0.5-1,0.4-1.6c-0.1-0.3-0.5-0.3-0.7-0.2
		c-0.7,0.2-1,0.7-1.1,1.3c-0.1,0.3,0,0.7-0.1,0.9c-0.3,0.8-1,1.1-1.6,0.5c-1.4-1.3-3-2.2-4.6-3.2c-2.1-1.4-4.4-2.4-7.1-2
		c-0.1,0-0.3,0.1-0.4,0c-1.6-0.9-3.1,0.1-4.5,0.6c-1.1,0.4-2,1.4-3,2c-2,1.3-4.3,1.9-6.5,2.9c-2.1,1-4.5,0.4-6.5,1.6
		c-0.3,0.2-0.7,0.2-1,0.2c-2-0.5-4.1-0.7-5.9-1.6c-0.7-0.4-1.5-0.3-2.2-0.5c-1.3-0.3-2.6-0.7-3.7-1.5c-0.8-0.6-1.9-0.6-2.8-1.1
		c-0.6-0.3-1.4-0.5-2-1c-0.6-0.5-1.3-0.8-2.1-0.5c-0.1,0-0.3,0-0.5,0c-1.3-0.8-2.7-0.4-4-0.3c-2.1,0.1-3.9,0.8-5.7,2.1
		c-1.8,1.4-3.8,2.7-6,3.4c-0.4,0.1-0.8,0.1-1.2,0.1c-0.3,0-0.7-0.2-0.9-0.1c-1.6,0.9-3.1,0-4.7,0.1c-0.7,0-1.3-0.3-1.9-0.5
		c-1.8-0.6-3.6-1.1-5.3-1.7c-1.9-0.6-3.7-1.6-5.5-2.5c-3.2-1.5-6.4-2-9.8-0.8c-1.5,0.6-2.7,1.5-3.8,2.5c-1.1,1-2.6,1.2-3.9,1.9
		c-0.5,0.3-1.1,0.4-1.7,0.5c-1.8,0.5-3.6,0.2-5.4-0.4c-1-0.4-2-0.9-3.1-1.1c-1.8-0.4-3.3-1.5-4.8-2.4c-0.5-0.3-1-0.7-1.5-0.8
		c-0.7-0.2-1.3-0.5-1.5-1.2c-0.1-0.3-0.3-0.6-0.6-0.6c-1.3,0-2.4-0.9-3.7-1c-0.7-0.1-1.3-0.2-1.9-0.6c-0.2-0.2-0.5-0.3-0.8-0.2
		c-2.2,1-4.2-1.5-4-3.7c0-0.4,0.4-0.7,0.5-0.7c1.1,0.3,1.8-0.8,2.8-0.8c0.3,0,0.5-0.1,0.6-0.4c0.1-0.3-0.1-0.5-0.3-0.7
		c-1.6-1.5-2.5-3.2-2.6-5.5c0-1.4,0-3-0.8-4.4c-0.2-0.4-0.2-0.9-0.2-1.4c0-0.9-0.1-1.8-0.5-2.7c-0.3-0.7-0.4-1.4-0.4-2.2
		c0-1.5-0.1-3-0.5-4.6c-0.4-1.3-0.3-2.8-0.5-4.2c0-0.4,0-0.8-0.1-1.1c-1.4-2.6-1-5.6-1.7-8.4c-0.3-1.1-0.5-2.3-0.4-3.4
		c0.2-1.9-0.8-3.7-0.7-5.4c0.1-1.5-0.2-2.8-0.4-4.1c-0.4-2.4-0.5-4.8-1.2-7.2c-0.3-1-0.4-2.1-0.3-3.1c0.2-2-0.6-3.9-0.3-5.9
		c0-0.2-0.1-0.5-0.2-0.7c-0.9-1.4-0.8-2.8,0.4-3.9c0.4-0.4,0.9-0.7,1.4-0.5c1.1,0.6,2.2,0.3,3.3,0.2c2.3-0.1,4.7,0.4,7,0.2
		c0.9-0.1,1.8,0,2.6-0.4c0.4-0.2,0.7-0.3,1-0.1c1.2,0.6,2.3,0.2,3.5,0c0.8-0.1,1.1-0.5,1.1-1.3c0-0.8-0.1-1.5-0.3-2.2
		c-0.3-0.9-0.6-1.7-0.1-2.6c0.1-0.2,0.1-0.5,0.1-0.7c-1.1-2-0.2-4.1-0.5-6.1c-0.2-1.8,0-3.5-0.3-5.3c-0.2-1.7-0.2-3.5,0-5.3
		c0.4-3.7,0.1-7.4,0.1-11.1c0-0.9-0.3-1.8-0.5-2.6c-0.5-2.2-0.2-4.4-0.4-6.7c-0.1-0.8-0.3-1.4-0.8-2.1c-0.6-0.7-0.7-1.5,0-2.1
		c0.8-0.7,0.6-1.4,0.3-2.1c-0.6-1.1-0.4-2.3-0.5-3.5c0-0.6,0.4-1,0.8-1.3c0.6-0.4,1.1-0.9,1.5-1.4c1-1.3,1.3-1.7,0.2-2.8
		c-1.4-1.6-2.1-3.5-3-5.3c-0.9-1.7-2-3.3-3.1-5c-1.2-1.9-2.4-3.9-3.4-5.9c-0.4-0.8-0.9-0.8-1.4-0.4c-1.6,1.6-3.7,1.9-5.6,2.7
		c-0.8,0.3-3-0.8-3.3-1.6c-0.3-0.8,0.3-2,1.6-2.6c2.7-1.4,5.2-3.1,7.7-4.7c0.9-0.6,1.7-1.2,2.4-1.9c0.2-0.2,0.4-0.3,0.6-0.4
		c2-0.5,3.4-2,5.2-2.8c1.7-0.8,3.4-1.6,5-2.5c1.7-0.9,3.6-0.6,5.2-1.5c0.7-0.4,1.8-0.2,2.5-0.1c1.5,0.2,3.1-0.2,4.6,0.5
		c1.1,0.5,2.2,1.2,3.4,1.4c0.5,0.1,0.8,0.4,1,0.8c1,1.6,2.6,2.5,3.1,4.6c0.4,1.6-0.2,3-0.2,4.5c0,1.8-0.7,3.5-2.1,4.8
		c-0.4,0.4-0.4,0.8-0.2,1.2c0.2,0.4,0.6,0.1,0.9,0.2c1.4,0.3,2.8,0.4,4.1-0.1c1.8,1.2,4.2,1.6,5.1,4c0.4,1,0.9,2.1,1.7,2.9
		c0.1,0.1,0.3,0.2,0.3,0.4c0.2,1.6,1.6,1.9,2.7,2.2c1.2,0.3,2.3,0.8,3.6,0.5c0.5-0.1,0.9-0.1,1.4-0.1c0.7,0.1,1.3,0.3,1.5,1.1
		c0.2,0.8-0.4,1-0.8,1.4c-1.1,1-2.3,1.4-3.7,1.1c-0.3-0.1-0.7,0.1-1.1,0.2c-1.9,0.7-3.8,0.9-5.8,0.3c-0.3-0.1-0.7,0-1.1,0
		c-0.2,0-0.4,0.3-0.7,0.1c-1.8-0.8-3.7-1.3-5-2.9c-0.9-1.1-1.5-2.4-2.3-3.5c-0.5-0.8-1-1.7-1.4-2.5c-1.2-1.9-2.7-2.1-5-1.3
		c-2.4,0.8-4.6,2-6.8,3.2c-1.1,0.7-1.2,1.2-0.2,2c0.6,0.5,1,1.3,1.2,2c0.5,2.4,2.4,2.9,4.3,3.6c1.3,0.5,2.5,0.3,3.8,0
		c1.5-0.4,3,0.6,3.2,2.2c0.1,0.6-0.2,1-0.7,1.3c-1.5,1-2.2,2.4-2.4,4.1c0,0.1,0,0.3,0,0.4c-1.4,3.2-1.4,6.8-2.6,10.1
		c-0.5,1.4,0.3,2.2,1.7,2c0.7-0.1,1.4-0.1,2,0c0.9,0.1,1.7,0.1,2.5-0.5c0.9-0.6,1.7,0.3,2.1,0.9c0.8,1,1.7,1.5,3,1
		c0.5-0.2,1-0.1,1.5-0.2c0.4,0,0.9,0,1.2-0.2c1.7-1.6,3-0.5,4.3,0.6c0.5,0.4,1,0.4,1.6,0.4c0.3,0,0.5-0.1,0.8,0
		c1.6,0.6,2.8-0.4,3.9-1.3c1.2-1,1.8-0.9,2.8,0.2c0.7,0.7,1.2,1.5,2.5,0.9c0.5-0.2,1.5,0.4,2.4,0.4c0.7-0.1,1.4-0.1,1.9-0.7
		c0.5-0.6,1.3-0.7,1.9-0.2c0.6,0.5,1.2,0.9,1.9,1.3c1.1,0.6,1.8,0.5,2.2-0.7c0.3-1.2,0.6-2.4,0.5-3.7c0-0.8-0.4-1.1-1.2-1.2
		c-1.6,0-3,0.3-4.4,1c-1.2,0.6-2.5,0.7-3.8,0.6c-1.2-0.1-1.3-1.2-1.2-2c0.2-1.8,0.1-3.7,0.6-5.3c0.4-1.6-0.2-2.7-0.4-4
		c-0.3-1.6,0.2-3,1-4.3c0.3-0.5,0.8-0.7,1.2-0.4c1.4,1,3.1,0.6,4.6,1c0.5,0.1,1,0.1,1.4,0.5c0.4,0.4,0.9,0.4,1.3,0.1
		c0.4-0.3,0.1-0.7,0-1.1c-0.5-2.1-0.9-4.2-1.3-6.3c-0.1-0.7-0.4-1.1-1.1-1.2c-2.1-0.4-4.1-1.2-5.7-2.6c-0.2-0.1-0.5-0.2-0.7-0.2
		c-1.4,0.1-2.1-0.8-3-1.5c-0.9-0.7-1.7-1.5-3-1.4c-0.4,0-1-0.2-1.3-0.6c-0.9-1.4-1.9-2.7-2.5-4.1c-0.6-1.7-2-3.2-1.7-5.2
		c0.1-0.4-0.3-0.8-0.5-1.2c-0.2-0.3-0.4-0.6-0.3-0.9c0.7-2.2,0.3-4.7,1-6.9c0.8-2.4,2-4.7,3.9-6.5c1-1,1.9-2.2,3-3
		c2.2-1.6,4.3-3.6,7.3-3.3c0.2,0,0.4,0,0.6-0.1c1.1-0.7,2.2-1,3.6-0.9c-0.2-0.3-0.4-0.5-0.5-0.7c3,0,5.9,0,8.9,0
		c0.1,0.2-0.4,0.5,0,0.7c0.8,0.3,1.7,0.3,2.5,0.1c0.5-0.1,0.5-0.5,0.3-0.8C143.5,9.1,144.2,9.1,144.9,9.1z M127.1,132.1
		c0.7,0.1,1.5,0.1,2.2,0c1.2-0.2,1.7-0.9,1.2-2c-0.9-2.1-0.4-4.2-0.5-6.3c-0.1-1.1-0.2-2.2,0.2-3.2c0.5-1.4,0.3-2.7,0.1-4
		c-0.3-2.1,1.1-3.4,3.1-2.8c0.7,0.2,1.5,0.3,2.2,0.3c1.7,0,3.4-0.1,5,0c2.5,0.2,5-0.1,7.5,0.2c2.7,0.4,4.3,2.4,3.3,5
		c-0.2,0.5-0.3,1-0.3,1.5c-0.2,1.6,0,3.3-0.2,4.9c-0.2,1.1-0.7,2-0.7,3.1c0.1,3-0.4,3.5,3.1,3.4c1.7-0.1,3.5,0.2,5.2,0
		c0.7-0.1,1.1-0.3,1.2-0.9c0.1-1.1,0.2-2.2,0.2-3.3c-0.1-3.3-0.2-6.5,0.1-9.8c0.2-2.4-0.8-3.7-3.3-2.6c0,0-0.1,0-0.1,0
		c-1.6,0.7-2.9-0.3-4.3-0.6c-0.6-0.2-0.3-1-0.8-1.4c-0.9-0.7-1.3-1.7-1.4-2.8c-0.2-1.2,0-2.5-0.6-3.4c-1.1-2.1-1.6-4.5-2.4-6.7
		c-0.7-1.8-1.3-3.7-2.6-5.1c-1.3-1.4-2.3-3.1-3.7-4.3c-0.6-0.5-1-0.7-1.7-0.1c-1.1,1.1-2.2,2.3-3.2,3.5c-1.9,2.3-2.8,5.3-4.7,7.6
		c-0.1,0.1,0,0.2,0,0.4c-0.3,2.2-1.6,3.9-2.6,5.8c-0.6,1.1-1.2,2.2-1.6,3.4c-0.3,0.9-0.9,1.5-2,1.6c-0.8,0-1.5,0.1-2.2-0.1
		c-0.6-0.2-1.1,0.1-1.4,0.6c-0.2,0.4-0.1,0.9,0.4,1.2c0.5,0.3,0.5,0.8,0.5,1.3c0.2,3,0,6-0.3,9.1c-0.2,1.5-0.7,2.9-0.5,4.5
		c0.1,1.7,0.7,2.1,2.3,2.1C124.7,132,126,132.1,127.1,132.1z M168.4,188.9c0.5-0.1,1.3,0.1,1.1-0.8c-0.2-1.1,0.5-1.2,1.2-1.3
		c1.5-0.2,2.9-0.9,4.4-1.2c0.9-0.2,1.7-0.5,2.5-1c1.8-1.1,3.6-2,5.7-2.2c0.2,0,0.5,0,0.7-0.1c0.3-0.1,0.8-0.1,0.7-0.6
		c0-0.5-0.5-0.5-0.8-0.5c-1.6-0.2-3.1,0.3-4.7,0c-2.2-0.4-4.5,0.3-6.6-0.9c-0.2-0.1-0.5-0.1-0.7-0.1c-3.1,0-6.1,0.4-9.2,0.1
		c-0.7-0.1-1.4,0.6-2.2,0.3c-0.8-0.3-1.6-0.4-2.4-0.3c-2.6,0.5-5.2-0.3-7.8-0.2c-2.1,0.1-4.2,0.1-6.3,0c-3.7-0.1-7.4,0.1-11.1-0.3
		c-1.6-0.2-3.1,0.1-4.6,0.2c-2.2,0.3-4.4,0.5-6.6,0.3c-4.1-0.5-8.1-0.1-12.2-0.2c-3.9-0.1-7.7,0.3-11.6,0.2c-1.9,0-3.7,0.1-5.4,0.7
		c-0.4,0.1-0.9,0.1-1.4,0.1c-1.8,0-3.6,0-5.5,0.1c-2.3,0.2-4.6-0.4-6.8-0.8c-1.9-0.3-3.7,0-5.5-0.3c-0.4,0-1.2,0-1,0.8
		c0.1,0.6,0.7,0.8,1.3,0.7c1.9-0.4,3.7,0.6,5.1,1.4c2.6,1.5,5.1,3,7.6,4.6c0.8,0.5,2.6,0.1,3.3-0.6c0.6-0.7,1.2-1.5,2.2-1.8
		c0.6-0.2,1.1-0.6,1.6-1c0.7-0.6,1.4-1.5,2.5-1.4c0.8,0.1,1.6,0,2.2-0.6c0.3-0.2,0.7-0.3,1.1-0.4c3.3-0.6,6.5,0,9.7,0.2
		c0.2,0,0.5,0.1,0.7,0.2c2.4,1.4,4.8,2.8,7.3,4.1c1.5,0.8,3,1.7,4.9,1.3c0.5-0.1,1.1,0,1.7,0c0.6,0.1,1,0,1.5-0.5
		c0.6-0.6,1.2-1.2,2.1-1.2c1.3,0,2.1-1,3-1.6c1.2-0.8,2.3-2,3.6-2.3c2.5-0.6,5.2-0.8,7.8-1c2-0.2,4,0.2,5.9,0.6
		c2.2,0.4,4.5,0.9,6.5,1.9c2.2,1.1,4.2,2.4,6.1,3.8c0.3,0.2,0.6,0.4,0.9,0.5C163.5,188.3,166,188.6,168.4,188.9z M91,132
		c1.4,0,2.9-0.1,4.3,0c1.2,0.1,1.7-0.5,1.6-1.6c-0.2-2.8,0.3-5.5,0.1-8.2c-0.1-0.7,0.2-1.4,0.1-2.1c-0.4-2.5-0.6-4.9,1.3-7
		c0.4-0.5,0.3-0.8-0.4-0.8c-2.6-0.3-5.1-1.3-7.8-0.8c-1.9,0.4-3.8,0-5.7,0c-0.6,0-0.9,0.2-1.2,0.6c-0.3,0.4,0.2,0.7,0.3,1
		c0.7,1.2,1.3,2.5,1.4,3.8c0.3,2.2-0.2,4.3-0.3,6.5c0,2.5-0.2,5.1-0.2,7.6c0,0.8,0.4,1.1,1.1,1C87.5,131.8,89.2,132.1,91,132z
		 M127.4,63.5c0,0.4,0,0.6,0,0.9c0.1,0.4-0.4,0.9,0.1,1.2c0.5,0.2,0.7-0.4,1.1-0.6c1.5-0.9,2.9-2.3,4.9-2c0.6,0.1,1.1,0.6,1.8,0.4
		c1.7-0.5,3.5,0.1,5.1-0.5c0.4-0.1,0.9-0.2,1.1,0.3c0.2,0.5,0.5,1.1,0.1,1.6c-0.8,0.8-1.2,1.9-2.1,2.7c-0.6,0.5-0.7,1.5-1.3,2
		c-0.1,0.1-0.1,0.6,0,0.7c0.9,0.9,0.6,1.8,0.4,2.8c-0.4,2.5-0.8,4.9-3.4,6.3c-0.7,0.4-1.3,1-1.2,2c0.2,1.2-0.5,2.8-1.6,2.9
		c-1.5,0.1-2.2,1-3,2c-0.2,0.3-0.6,0.5-0.3,0.9c0.3,0.4,0.6,0.6,1.1,0.4c0.4-0.1,0.8-0.3,1-0.6c1.4-1.6,3.3-2.8,4.6-4.5
		c0.7-0.9,1.7-1.8,2.9-1.4c1,0.4,2,1.1,2.9,1.7c1.7,1.3,2.2,3.5,3.9,4.8c1.7,1.3,2.6,3.2,3.7,5c1.6,2.5,3.2,5,4.7,7.5
		c1,1.8,1.3,4,2.8,5.6c0.6,0.6,1,1.3,1.3,2.1c0.2,0.6,0.9,1,1.5,0.9c0.6-0.1,1.1,0,1.6,0.2c0.4,0.1,0.8,0.1,1-0.3
		c0.2-0.4-0.3-0.6-0.5-0.9c-0.2-0.3-0.6-0.4-1-0.4c-0.9,0-1.4-0.5-1.9-1.1c-0.6-0.6-1.2-1.3-1.8-2c-0.3-0.3-0.4-0.6-0.5-0.9
		c-0.4-2.4-1.5-4.4-3-6.2c-0.7-0.8-1.3-1.7-1.6-2.7c-0.8-2-2.2-3.7-3.5-5.4c-1-1.4-2.6-2.4-3.4-4.1c-1.1-2.4-3.8-3.3-5-5.6
		c-0.4-0.9-0.6-1.4,0.1-2.1c0.2-0.2,0.5-0.2,0.5-0.5c-0.2-2,0.6-3.9,0.4-5.9c-0.2-1.7-0.7-3.6,1.3-4.8c0.1-0.1,0.2-0.3,0.2-0.4
		c-0.4-1,0.4-1.9,0.3-2.9c-0.4-2.4,0.1-4.7-0.1-7.1c-0.1-1.6,0.6-2.8,2.1-3.7c1.4-0.8,2.7-1.4,4.2-1.9c0.3-0.1,0.6-0.3,0.6-0.7
		c-0.1-0.5-0.5-0.6-0.8-0.5c-1.2,0.4-2.3,0.1-3.4-0.1c-1.6-0.3-3.2,0.1-4.7,0c-0.4,0-0.7-0.2-1,0.2c-0.2,0.4,0.1,0.7,0.3,0.9
		c0.4,0.6,1,0.8,1.6,1.1c0.6,0.3,1,1,0.6,1.6c-0.4,0.7-1,0.3-1.5-0.1c-1.3-0.9-2.3-1.9-3.1-3.2c-0.2-0.4-0.5-0.8-0.9-0.5
		c-0.5,0.3-0.2,0.8,0.1,1.2c2.1,2.9,2.3,6.2,2,9.6c-0.1,1.3-1.3,2.2-2.6,1.9c-2-0.4-4.1-0.8-6.1-1.2c-0.3-0.1-0.7-0.3-1,0.1
		c-0.3,0.4,0.2,0.6,0.4,0.9c0.2,0.2,0.3,0.4,0.1,0.7c-0.2,0.4-0.5,0.3-0.8,0.2c-1.4-0.6-1.4-0.6-1.5,1
		C127.4,63.3,127.4,63.4,127.4,63.5z M93.2,33.1c-0.1-0.8-0.1-1.6-0.9-2.2c-0.5-0.4-1.1-0.9-1.3-1.6c-0.5-1.8-1.5-3.4-2.9-4.6
		c-0.5-0.4-0.9-0.5-1.6-0.3c-1.5,0.5-3,1.1-4.5,1.7c-2.1,0.7-4.2,1.4-5.8,3.1c-0.6,0.6-0.7,1.3,0,1.8c0.7,0.5,1.1,1.2,1.5,1.9
		c1.2,2,2.2,4.1,3.6,5.9c0.4,0.5,0.7,0.9,0.7,1.6c0,0.5,0.4,0.8,0.8,0.9c1,0.2,2,0.4,2.9-0.4c1.4-1.2,3.1-1.9,4.7-2.7
		C92.6,36.9,92.9,35.1,93.2,33.1z M105.2,132c0.8,0,1.6,0,2.4,0c0.7,0,1.1-0.2,1.2-0.9c0.1-1.1,0.8-0.9,1.5-0.9
		c0.2,0,0.4,0.2,0.6,0.2c0.4,0,0.8,0.1,0.9-0.5c0.1-0.5-0.2-0.7-0.7-0.7c-0.4,0-0.8-0.2-1.1-0.4c-0.8-0.4-1.8-0.8-1.4-2
		c0.4-1.3,1.3-0.6,2.1-0.6c0.5,0,1.2,0.2,1.4-0.5c0.2-0.8-0.4-0.9-1-1c-1.2-0.3-1.8-1.1-2.1-2.2c-0.2-0.5-0.1-1,0.4-1.3
		c0.5-0.3,1.1-0.2,1.4,0.1c0.2,0.2,0.4,0.4,0.6,0.5c0.4,0.2,0.9,0.5,1.2-0.1c0.3-0.5,0-0.9-0.4-1.2c-0.5-0.3-1.1-0.5-1.7-0.9
		c-0.6-0.3-1-1.9-0.6-2.2c0.5-0.5,1.2-0.3,1.7,0c0.2,0.1,0.4,0.2,0.7,0.3c0.6,0.2,1.1,0,1.3-0.5c0.3-0.7-0.1-0.9-0.7-1.1
		c-2.5-0.8-5.2,0-7.7-0.5c-0.7-0.1-1.4,0.1-2.1,0.2c-0.4,0.1-0.9,0.3-0.9,0.9c0,0.6,0.4,0.9,0.8,1c0.5,0.1,0.9,0.3,0.9,0.8
		c0,0.6-0.3,1-0.8,1.3c-1.4,0.7-1.5,2-0.4,3.1c0.7,0.6,0.7,1.8,0,2c-0.9,0.3-0.6,0.8-0.6,1.3c0.2,1.2-0.1,2.4-0.5,3.6
		c-0.4,1.1-0.1,1.9,1.1,2C103.4,132,104.3,132,105.2,132z M69.8,115.6c-0.2,0-0.4-0.1-0.5-0.1c-0.8,0.4-2.1-0.3-2.5,1
		c-0.2,0.6-0.5,0.8-1.1,0.7c-0.7-0.1-1.4,0-1.6,0.7c-0.3,0.8,0.6,0.8,1,1.1c0.5,0.4,1.3,0.5,1.4,1.2c0.2,1-0.9,0.8-1.3,1.2
		c-0.3,0.3-0.5,0.6-0.5,0.9c0.1,0.4,0.4,0.6,0.9,0.6c0.4-0.1,0.8-0.1,1.2-0.1c0.4,0,0.9,0,1.1,0.5c0.2,0.4,0,0.8-0.1,1.3
		c-0.3,0.6-0.8,0.5-1.3,0.6c-0.3,0.1-0.7,0.1-0.8,0.6c-0.1,0.5,0.1,1,0.6,1.2c1.5,0.8,1.6,1.1,0.6,2.4c-0.5,0.7-0.5,1.2,0.1,1.8
		c1,1,3.3,1,4.6,0c0.9-0.7,2.3-1.1,3.3-1.1c0.6,0,1.4,0.2,1.5-0.5c0.1-0.7-0.6-1.1-1.4-1.3c-0.1,0-0.2-0.1-0.4,0
		c-0.9,0-1.5-0.3-2.1-0.9c-0.3-0.3-0.8-0.4-0.6-1c0.2-0.6,0.7-0.6,1.1-0.8c0.7-0.3,1.3,0.1,1.9,0.3c0.6,0.2,1.2,0.2,1.4-0.4
		c0.2-0.6-0.3-0.9-0.8-1.1c-0.8-0.3-1.5-0.8-2.2-1.2c-0.7-0.5-0.6-0.9-0.1-1.4c0.5-0.6,1.2-0.7,1.8-0.3c0.5,0.3,0.9,0.2,1.3,0
		c0.3-0.2,0.2-0.5,0.1-0.7c-0.1-0.6-0.6-0.5-1-0.5c-1,0.1-1.7-0.5-2.4-1.2c-0.4-0.4-0.5-0.9-0.3-1.4c0.2-0.5,0.7-0.7,1.2-0.6
		c0.5,0,0.9,0.2,1.4,0.2c0.6,0.1,1.2,0,1.3-0.8c0.1-0.8-0.4-1-1.1-1C73.7,115.3,71.7,115.3,69.8,115.6z M185.1,114.3
		c0,0,0-0.1,0-0.1c-0.8,0-1.7,0-2.5,0c-0.3,0-0.5,0.2-0.6,0.5c-0.1,0.4,0.3,0.3,0.5,0.4c0.8,0.4,1.3,1,1.6,1.8
		c0.4,0.9-0.1,1.8,0,2.7c0.2,2.4,0,4.8,0.1,7.2c0,0.7,0.1,1.5-0.1,2.2c-0.4,1.1-0.1,2.2,0.1,3.2c0.1,0.9,0.7,1.2,1.6,1
		c0.9-0.2,1.7-0.1,2.6,0c1.3,0.2,2.4-0.8,2.1-2.2c-0.3-1.6,0-3.3-0.2-4.9c-0.2-1.4,0.1-2.9,0.3-4.2c0.3-1.9-0.4-4.1,1.5-5.5
		c0.4-0.3,0.3-1-0.2-1.2c-1-0.2-1.8-0.8-2.8-0.9C187.7,114.3,186.4,114.3,185.1,114.3z M165.4,117.7c-0.5-0.1-1,0-1.5,0.2
		c-1,0.4-1.2,1.7-0.4,2.2c1,0.6,0.7,1.2,0,1.8c-0.6,0.5-0.7,1.1-0.3,1.8c0.4,0.6,0.5,1.2,0,1.9c-0.7,1.1-0.8,2.2,0.3,3.2
		c0.6,0.6,1.1,1.3,1.4,2.1c0.5,1.3,1.8,1.8,2.8,1.7c1.7-0.1,3.4-0.5,5.2-0.6c0.6,0,0.7-0.3,0.2-0.9c-0.5-0.5-1-0.7-1.6-1
		c-0.7-0.4-1-1.2-0.6-1.8c0.3-0.5,0.9-1.1,1.8-0.8c0.4,0.1,1,0.7,1.2-0.2c0.2-0.8-0.3-1-0.9-1.1c-0.9-0.2-1.5-0.8-2-1.5
		c-0.5-0.7-0.3-1.5,0.5-1.9c0.6-0.3,1.2-0.2,1.7,0.1c0.5,0.2,0.9,0.4,1.2-0.2c0.3-0.7-0.2-1-0.7-1.2c-0.4-0.1-0.8-0.2-1.2-0.2
		c-1-0.1-1.5-0.9-1.8-1.7c-0.5-1.3-1-1.8-2.5-1.5c-0.6,0.1-1.1,0-1.6-0.2C166.3,117.6,165.9,117.4,165.4,117.7z M133.3,129
		c0,0.4,0,0.7,0.3,0.9c1.1,0.6,1.7,1.7,2.5,2.7c0.4,0.4,0.9,0.6,1.3,0.3c0.9-0.7,2-0.7,3-0.8c0.9-0.1,1-0.5,0.5-1.2
		c-0.9-1.3-0.7-1.9,0.8-2.5c0.4-0.2,1-0.2,1-0.8c0-0.4-0.5-0.6-0.8-0.8c-0.2-0.1-0.3-0.2-0.5-0.3c-0.7-0.3-1.1-0.8-0.9-1.6
		c0.2-0.8,0.9-0.9,1.6-0.8c0.5,0.1,1-0.2,0.9-0.4c-0.1-0.4,0.4-0.8-0.2-1.3c-0.5-0.4-1-0.7-1.6-1.1c-0.6-0.3-1.4-0.6-1.2-1.6
		c0.2-0.9,1-1,1.8-1.1c0.1,0,0.2,0,0.2,0c0.5,0,0.9-0.1,0.9-0.7c0-0.6-0.5-0.7-1-0.6c-2.1,0.6-4.2-0.1-6.2-0.1
		c-0.6,0-1.3-0.4-1.7,0.4c-0.3,0.6,0.2,1.1,0.7,1.6c0.9,0.8,0.8,1.5-0.2,2.1c-0.8,0.5-0.5,0.8-0.1,1.3c0.8,0.8,0.8,1.4-0.2,1.9
		c-0.6,0.3-0.8,0.8-0.9,1.5C133.2,127,134,128.1,133.3,129z M195.2,133.9c1.5,0.1,2.5-0.7,3.7-0.8c0.7-0.1,1.5-0.3,1.7-1.1
		c0.2-0.7-0.6-1.2-1-1.6c-1.1-1-1.1-1.7,0.2-2.5c0.6-0.4,0.6-1.2,0-1.5c-0.3-0.2-0.6-0.2-0.9-0.3c-0.6-0.1-0.8-0.6-0.8-1.1
		c0-0.6,0.4-0.9,0.9-1.1c0.5-0.2,0.9-0.1,1.4,0c0.5,0.1,1,0,1.1-0.5c0.1-0.5-0.2-0.9-0.8-1c-0.3,0-0.6-0.2-0.9-0.3
		c-0.5-0.2-0.8-0.7-0.7-1.2c0.1-0.6,0.5-0.7,1-0.7c0.2,0,0.4,0,0.6-0.1c0.3,0,0.7-0.1,0.7-0.5c0.1-0.4-0.3-0.6-0.5-0.8
		c-0.4-0.4-1-0.3-1.5-0.4c-1.1-0.2-2.2-0.1-3.3-0.5c-0.6-0.2-1.2-0.3-1.6,0.3c-0.5,0.6-0.2,1,0.2,1.6c0.9,1.1,0.8,1.7-0.3,2.7
		c-0.6,0.6-0.5,1.2,0,1.7c0.7,0.8,0.8,1.5-0.1,2.2c-0.7,0.5-0.6,1.3-0.1,1.8c0.7,0.8,0.4,1.4,0,2.1c-0.5,0.8-0.6,1.8-0.6,2.6
		C193.4,134.1,194.7,133.7,195.2,133.9z M143,136.4c-0.4,0-0.7-0.1-1.1-0.1c-0.5,0-1.2-0.4-1.3,0.3c-0.1,0.6,0.6,0.7,1,1
		c0.3,0.2,0.7,0.2,1,0.2c0.5,0.1,1.1,0.3,1.5,0.6c2.3,1.6,3.9,3.9,5.7,5.9c0.5,0.6,0.9,0.6,1.4,0.1c0.6-0.5,1.1-0.9,1.9-1.1
		c0.7-0.1,0.8-0.8,0.5-1.4c-0.3-0.8-0.7-1.6-0.8-2.4c-0.2-2.1-1.5-3-3.4-3C147.3,136.6,145.1,136.2,143,136.4z M101.4,143.1
		C101.4,143.1,101.4,143.1,101.4,143.1c0.3-0.1,0.6-0.1,1-0.1c1.3,0,2-0.4,1.8-1.7c-0.2-1.4,0.1-2.5,0.8-3.7
		c0.4-0.7,0.1-1.4-0.7-1.4c-2,0.1-4-0.1-6.1-0.2c-1.9-0.1-2.6,1.1-1.8,2.8c0.4,0.8,0.6,1.6,0.7,2.5c0.1,1,0.6,1.8,1.8,1.8
		C99.7,143.1,100.6,143.1,101.4,143.1z M89.7,143C89.7,143,89.7,143,89.7,143c0.6,0,1.2-0.1,1.8,0c1.1,0.1,1.5-0.6,1.4-1.4
		c-0.2-1.5-0.1-2.9,0.1-4.3c0.1-0.5,0-1.1-0.7-0.9c-1.3,0.2-2.5-0.1-3.7-0.3c-2.1-0.2-2.4,0.3-3.1,2.3c-0.4,1.1-0.4,1.7,0.1,2.8
		c0.8,1.5,0.9,1.8,2.6,1.8C88.8,143,89.3,143,89.7,143z M123.7,94c-1.1,0-2.8,1.4-2.8,2.5c0,1.3-0.5,1.8-1.6,2.2
		c-0.4,0.1-0.8,0.4-1.1,0.7c-1.2,0.9-1.3,1.9-0.4,2.4c0.5,0.3,1.2,0.5,1,1.3c-0.2,0.8-0.9,0.7-1.6,0.8c-1.3,0.1-2.6,0.4-3.3,1.6
		c-0.3,0.4-0.7,1-0.2,1.5c0.5,0.5,1,0.1,1.5-0.3c0.6-0.6,1.5-1.1,2.2-0.8c1.1,0.4,1.7-0.1,2.3-0.8c0.5-0.6,1.2-1.1,1.1-2.1
		c0-0.2,0.1-0.5,0.3-0.8c1.2-1.7,2.4-3.3,3.5-5.1c0.4-0.7,1.1-1.5,0.9-2.2C125.4,93.9,124.3,94.3,123.7,94z M128.2,144.1
		c1.2-0.8,2.5-1.7,3.6-2.8c1.4-1.5,2.6-3.1,4.6-3.9c0.3-0.1,0.7-0.3,0.5-0.8c-0.1-0.4-0.4-0.6-0.8-0.6c-0.3,0-0.6,0.2-0.9,0.2
		c-1,0.1-2.2,0.6-3.1,0.2c-1.8-0.7-4,0.2-4.8,2.1c-0.4,1.1-1.2,1.9-1.5,3c-0.3,1.1-0.3,1.6,0.8,2C127,143.9,127.5,144,128.2,144.1z
		 M186.6,142.1c-0.6-1.1-0.6-2.7-1-4.1c-0.2-0.7-0.7-0.6-1.1-0.3c-0.6,0.4-1.3,0.5-2,0.4c-1.5-0.1-2.9-0.5-4.3-0.8
		c-0.4-0.1-0.9-0.2-1.2,0.2c-0.3,0.4-0.2,1,0,1.2c1.2,1.1,1.1,2.8,1.8,4.1c0.2,0.5,0.6,0.8,1.1,0.8c0.9,0,1.7-0.1,2.6-0.2
		c0.8-0.1,1.4-0.2,2.1,0.3C185.2,144.1,186.6,143.2,186.6,142.1z M184.7,155.3c0.7,0,1.1-0.2,1.3-1c0.5-1.7,0-3.4,0.4-5.1
		c0.2-0.7-0.3-1.1-0.9-1.1c-1.3,0.1-2.4-1-3.7-0.3c-0.1,0-0.2,0-0.3-0.1c-1.1-0.3-2.1,0.4-1.9,1.5c0.3,1.3,0.3,2.7,0.4,4
		c0.2,1.3,0.9,1.9,2.2,2C183,155.3,183.9,155.3,184.7,155.3z M109.7,136.3c-0.1,0-0.2,0-0.4,0c-1.9,0-2.4,0.6-1.9,2.3
		c0.2,0.5,0.1,1-0.2,1.4c-0.2,0.4-0.4,0.8-0.1,1.4c0.6,1.2,1.3,2,2.8,1.8c0.5-0.1,1,0.1,1.5,0.1c1.2,0.2,1.9-0.4,2-1.6
		c0.1-1.3,0.3-2.6,1.3-3.6c0.2-0.2,0.7-0.5,0.4-1c-0.2-0.4-0.6-0.7-1-0.7C112.7,136.4,111.2,136.3,109.7,136.3z M163.9,143
		c0-0.3,0-0.4-0.1-0.6c-0.6-1.6-1.2-3.1-1.6-4.8c-0.1-0.5-0.6-0.7-1.2-0.6c-1.7,0-3.3-0.7-5-0.5c-0.4,0-1-0.1-1.1,0.3
		c-0.1,0.4,0,0.9,0.4,1.3c1,0.9,1.3,2.1,1.7,3.3c0.4,1.3,2,2.5,3.3,2.1c0.9-0.3,1.7-0.3,2.6,0C163.3,143.8,163.8,143.6,163.9,143z
		 M172.6,143.7c1-0.2,1.6-0.5,1.5-1.5c-0.1-1-0.3-2-0.4-3.1c-0.2-1.6-0.6-1.9-2.3-2.1c-1.5-0.2-3,0.3-4.5-0.1
		c-0.3-0.1-0.6-0.4-0.9,0c-0.3,0.4-0.1,0.9,0.1,1.1c1,1.2,1.3,2.7,1.7,4.2c0.1,0.6,0.5,0.9,1,1C170.2,143.4,171.6,142.8,172.6,143.7
		z M88.6,157.4c-1.2-0.3-1.4,0.3-1.8,1.1c-0.6,1.1-0.1,2,0.1,2.9c0.3,1.5,0.8,2.1,2.3,2.3c0.8,0.1,1.6,0.2,2.3,0.8
		c0.4,0.4,0.8,0.1,1-0.3c0.1-0.3,0.1-0.6,0.1-0.9c0.2-1.4,0-2.9,0-4.3c0.1-1.3,0-1.6-1.2-2C90.4,156.7,89.5,157.4,88.6,157.4z
		 M194.7,156c0.5,0,0.8,0,1.1-0.5c0.5-0.7,1.1-1.3,2-1.1c0.5,0.1,0.9-0.1,1-0.7c0-0.5-0.5-0.5-0.9-0.6c-1-0.2-1.9-0.7-2.1-1.8
		c-0.2-1.2,0.4-1.9,1.5-2.2c0.3-0.1,0.7-0.2,0.6-0.6c-0.1-0.4-0.5-0.5-0.8-0.5c-1.4,0.1-2.9-0.1-4.3,0.2c-0.6,0.1-0.9,0.4-0.9,1
		c0,1.1,0,2.2-0.1,3.3C191.4,155.1,192.1,155.9,194.7,156z M92.7,150.4c-0.1-2.6-0.6-3.2-2.2-3.1c-1,0-2,0.1-3,0
		c-0.5-0.1-1,0.1-1.2,0.7c-0.5,1.7,0,3.4,0.5,5c0.1,0.3,0.4,0.5,0.7,0.4c0.8-0.3,1.6,0,2.3,0c2.2-0.1,3.1-0.3,2.8-2.9
		C92.7,150.4,92.7,150.3,92.7,150.4z M97,161.1c-0.3,2.8-0.2,3,2.4,3.2c1.7,0.1,2.9-0.2,3.1-1.5c0.2-1.6,0-3.1-0.3-4.7
		c0-0.3-0.1-0.4-0.3-0.6c-0.7-0.5-3.5-0.4-4.1,0.1c-0.5,0.4-0.9,0.8-0.8,1.5C97.1,159.8,97,160.4,97,161.1z M163.6,154.2
		C163.6,154.2,163.6,154.2,163.6,154.2c0.3,0,0.6,0,0.9,0c1.3,0,1.5-0.1,1.4-1.4c-0.1-0.7-0.3-1.5-0.3-2.2c0-1.3-0.1-2.4-1.4-3
		c-0.4-0.2-2.1-0.4-2.7-0.2c0,0-0.1,0-0.1,0c-1.5,0.4-1.9,1.1-1.2,2.6c0.4,0.8,0.5,1.6,0.6,2.5c0.2,1.8,0.3,1.9,2.1,1.8
		C163.2,154.3,163.4,154.2,163.6,154.2z M70.1,136c-0.6,0.1-1.4,0.2-2.1,0.4c-0.1,0-0.7-0.1-0.5,0.4c0.1,0.3-0.1,0.7,0.3,0.9
		c0.2,0.1,0.5,0.1,0.7,0.2c0.4,0.1,0.9,0.2,0.9,0.8c0,0.4-0.3,0.7-0.7,0.9c-2.1,1.1,1.3,1.8,0.2,2.8c-0.2,0.2,0.2,0.4,0.4,0.5
		c0.1,0,0.2,0,0.3,0c1.1-0.2,2.2-0.3,3.3-0.5c0.8-0.1,1-0.7,0.8-1.3c-0.4-1.2-0.2-2.2,0.3-3.3c0.3-0.8,0.2-1.4-0.8-1.5
		C72.2,136.1,71.3,136.1,70.1,136z M174.9,150c0-2.5,0-2.5-2.5-2.5c-0.2,0-0.3,0-0.5,0c-1.2-0.1-2,0.6-1.9,1.8c0,1,0.1,2.1,0.4,3.1
		c0.2,0.7,0.3,1.8,1.3,1.9c1,0.1,1.9,0.3,2.9,0.1c0.9-0.2,1.4-1.1,1-1.7C174.8,151.9,175,151,174.9,150z M194.8,139.9
		c0.1-1.5-0.2-1.8-1.5-1.8c-0.7,0-1.5,0-2.2-0.1c-0.8-0.2-1.2,0.1-1.1,1c0.1,1.4,0.8,2.6,1.3,3.9c0.2,0.4,0.5,1.1,1.2,1.1
		c1.1,0,2.3,0.2,3.4,0c0.7-0.1,1.2-0.6,1.4-1.2c0.2-0.5-0.6-0.6-0.9-0.9c-0.1-0.2-0.4-0.3-0.7-0.4
		C194.8,141.2,194.6,140.6,194.8,139.9z M100.1,147.5c-1.7-0.1-2.3,0.3-2.4,1.9c-0.1,1,0.1,2,0,3c0,0.5,0.4,0.8,0.7,1
		c1.3,0.7,2.5,0.1,3.7-0.2c1-0.3,0.5-1.3,0.7-1.9c0.1-0.3,0.1-0.6,0.1-0.8c0.5-2.1-0.3-3-2.3-2.9
		C100.5,147.5,100.4,147.5,100.1,147.5z M190.9,163.2c0,1.5,0.7,2.5,1.6,2.4c1.2-0.2,2.3-0.1,3.5-0.1c0.8,0,1.6-0.3,1.9-1.1
		c0.3-0.9-0.4-1.2-1.1-1.6c-0.7-0.4-1.6-0.8-1.1-2c0.2-0.4-0.1-0.7-0.5-0.8C192.9,159.2,190.8,160.7,190.9,163.2z M167,162
		C167,162,167,162,167,162c0.1-0.5,0-1,0.1-1.5c0.2-0.9-0.3-1.4-1-1.7c-1.1-0.5-2.3-0.3-3.5-0.5c-0.5-0.1-0.7,0.4-0.6,0.9
		c0.1,1,0.3,2.1,0.2,3.1c-0.1,1.4,0.8,1.9,1.7,2.2c0.8,0.3,1.7,0.1,2.5,0.3c0.5,0.1,0.8-0.4,0.7-1C167.1,163.3,167,162.6,167,162z
		 M119.5,143.3c1.2,0.2,1.8-0.5,2-1.3c0.3-1.4,1-2.6,1.4-4c0.2-0.9-0.1-1.4-1-1.3c-0.6,0-1.2,0.1-1.7,0.5c-0.3,0.3-0.6,0.3-1.1,0.2
		c-0.6-0.1-1.2-0.5-1.8,0.2c-0.5,0.7-0.3,1.4-0.1,2c0.3,0.7,0.4,1.3,0.1,2c-0.3,0.9,0.4,1.8,1.4,1.7
		C119.1,143.4,119.4,143.3,119.5,143.3z M182.8,159.4c-1.4-0.1-1.8,0.2-1.8,1.3c0,0.7,0,1.3-0.1,2c-0.3,2,0.6,2.9,2.6,2.7
		c0.3,0,0.7,0,1.1,0.1c1,0.2,1.4-0.2,1.4-1.2c0-0.8-0.2-1.6,0-2.3c0.4-1.4-0.3-2-1.5-2.4C184,159.4,183.5,159.4,182.8,159.4z
		 M106.7,152.1c0,0.1,0,0.3,0.1,0.5c0.1,0.8,0.3,1.6,1.2,1.7c1,0.1,2.1,0.2,2.9-0.5c0.1-0.1,0.2-0.3,0.2-0.5c0-0.9,0.4-1.7,0.6-2.5
		c0.6-2.3,0.4-2.6-1.9-2.9c-0.3,0-0.6-0.2-0.9-0.1c-0.8,0.1-1.6,0.3-1.8,1.1C106.9,149.9,106.9,150.9,106.7,152.1z M157.9,164.2
		c0.8,0,1-0.3,0.8-1.5c-0.1-0.7-0.2-1.3-0.2-2c-0.3-2.4-1-3.2-2.9-3.4c-0.9-0.1-1.3,0.2-1.5,1.1c-0.4,1.7,0.3,3.1,0.8,4.7
		c0.2,0.7,0.5,0.9,1.1,1C156.4,164.2,157,164.2,157.9,164.2z M108.2,164c2,0,2.3-0.3,2.2-2.4c0-0.3,0-0.6,0-0.8
		c0.6-2.4,0.6-2.4-1.8-2.9c-0.1,0-0.2-0.1-0.3-0.1c-1.5-0.5-2.5,0.3-2.5,1.9c0,0.9,0.3,1.6,0.4,2.4C106.3,163.8,106.5,164,108.2,164
		z M73.8,148.7c-0.1-0.6,0.1-1.5-0.7-1.6c-1-0.1-2-0.4-3-0.7c-0.6-0.2-1,0.1-1.3,0.6c-0.3,0.5,0,0.9,0.4,1.1c1,0.7,0.7,1.3,0.1,1.9
		c-0.6,0.6-0.4,1.1,0.2,1.6c0.5,0.4,1.1,0.6,1.6,1c0.7,0.7,1.6,0.4,2.3,0.1c0.7-0.2,0.6-1,0.5-1.6C73.7,150.4,73.7,149.6,73.8,148.7
		z M78.3,136.1c-1.1,0-1.5,0.5-1.4,1.6c0.2,1.3,0.9,2.5,0.9,3.9c0,0.4,0.4,0.8,0.9,0.8c0.3,0,0.7,0,1,0.2c0.9,0.6,1.4,0.3,1.7-0.7
		c0.4-1.4,0.1-2.8,0.6-4.2c0.1-0.2-0.1-0.6-0.4-0.7C80.5,136.7,79.4,136.4,78.3,136.1z M81.8,148.5c0-0.7-0.2-1.4-0.8-1.3
		c-1,0.1-2.1-0.7-3,0.3c-0.1,0.1-0.2,0.2-0.2,0.3c0.1,1.5-0.3,3.1,0.1,4.6c0.2,0.8,1.4,1.6,2.3,1.5c1-0.1,1.6-0.7,1.5-1.8
		C81.6,150.8,81.6,149.6,81.8,148.5z M78,160.5c0,0.3-0.1,0.5-0.1,0.7c0,1.1,0.4,2.1,1.4,2.4c1,0.3,2.1,0.2,3-0.7
		c0.3-0.3,0.5-0.6,0.3-1c-0.5-1.1-0.5-2.2-0.5-3.3c0-2-1.6-0.7-2.4-1.2c-0.5-0.3-0.9,0.1-1.1,0.5C78,158.8,77.9,159.7,78,160.5z
		 M71.6,157c-1.3,0-1.8,0.4-1.2,1.2c0.6,0.8,0.5,1.5,0.3,2.4c-0.5,2.2,0.3,3.4,2.2,3.2c1.3-0.1,1.9-1.1,1.4-2.3
		c-0.2-0.5-0.1-0.9-0.1-1.4C74.3,157.5,73.7,156.9,71.6,157z M153.5,147.3c-1.9,0-2.2,0.6-1.2,2.3c0.6,1.1,0.9,2.4,1.3,3.6
		c0.2,0.7,0.6,0.9,1.2,0.9c0.3,0,0.6-0.1,0.9-0.1c0.9,0.1,1.2-0.4,1.1-1.2c-0.1-1.2-0.8-2.2-0.9-3.4
		C155.6,147.5,155.3,147.3,153.5,147.3z M175.7,163.4c0.2-1-0.2-1.9-0.2-2.9c0-0.8-0.5-1.2-1.3-1.3c-0.4,0-0.9-0.1-1.3-0.2
		c-0.8-0.2-1.2,0.1-1.2,0.9c0,1.1,0.1,2.2,0.1,3.3c0,1.3,0.8,2.1,2,2C175.8,165.2,175.8,165.2,175.7,163.4z M126.8,149.1
		c0-0.5-0.1-0.8-0.4-0.9c-1.1-0.6-3.1,0.3-3.5,1.5c-0.3,1-0.2,2.1-0.5,3c-0.4,1.1,0.3,1.3,1,1.6c0.9,0.4,1.4,0,1.7-0.8
		c0.4-0.9,0.9-1.8,1-2.8C126.2,150,127,149.7,126.8,149.1z M124,159c-0.1-0.5,0-1.2-0.8-1.4c-0.8-0.2-2.2,0.6-2.4,1.2
		c-0.2,0.8-0.4,1.7-0.6,2.5c-0.2,1,0.4,2.2,1.1,2.4c0.8,0.2,2-0.6,2.2-1.5C123.7,161.2,123.8,160.2,124,159z M121.6,170.9
		c0.3,0,0.5,0.1,0.7,0.1c1.4,0.1,1.7-0.3,1.3-1.7c-0.1-0.5-0.5-0.9-0.4-1.5c0.1-0.6,0-1.2-0.5-1.4c-0.9-0.3-1.9-0.6-2.6,0.1
		c-0.8,0.8-1.2,1.9-0.8,3.2C119.8,170.8,120.6,171.2,121.6,170.9z M109.5,81.8c-2.5-0.1-2.6,0-3.9,1.1c-0.5,0.4-0.8,0.7-0.5,1.2
		c0.3,0.5,0.8,0.5,1.3,0.3c0.6-0.3,1.3-0.2,1.8,0c1.9,0.6,3.6-0.5,4.5-1.7c0.2-0.3,0.2-0.6,0.1-0.9c-0.2-0.4-0.6-0.3-0.7-0.2
		C111.2,82.2,110.3,81.8,109.5,81.8z M76.5,172.2c0.7,0.1,1-0.1,1.2-0.5c0.2-0.4,0.1-0.8-0.1-1.1c-0.8-0.9-1.5-1.9-3-1.7
		c-0.4,0.1-1,0-1.4-0.2c-0.4-0.2-0.8-0.4-1.1,0.1c-0.3,0.5-0.1,0.9,0.3,1.3c0.5,0.4,0.5,0.7,0.1,1.2c-0.4,0.6-0.2,0.9,0.6,0.9
		C74.2,172.2,75.5,171.9,76.5,172.2z M163.9,90.2c0-1.1-0.1-2-1.6-1.8c-0.4,0.1-0.9-0.1-1.2-0.3c-0.9-0.5-1.5-0.1-1.9,0.6
		c-0.3,0.8-0.6,1.6,0.2,2.4c0.8,0.8,1.7,0.6,2.6,0.7C163.9,92,163.9,91.9,163.9,90.2z M186.8,61.2c0.1,0.7,0.2,1.4,0.4,2.1
		c0.1,0.5,0.5,0.7,1,0.7c0.5,0,0.7-0.3,0.7-0.7c0.1-0.7,0.6-1.1,1.1-1.6c0.8-0.7,1.8-0.9,2.6-1.6c0.3-0.3,0.5-0.5,0.4-0.9
		c-0.1-0.4-0.5-0.4-0.8-0.3c-1.2,0.1-2.4,0.2-3.5,0.6C187.8,59.8,186.8,60.1,186.8,61.2z M152.6,64.1c0.3,0.1,0.6,0,0.8-0.2
		c0.8-0.9,1.6-1.7,2.4-2.6c0.3-0.3,0.4-0.8,0.1-1.1c-0.3-0.2-0.8-0.1-1.1,0.2c-0.7,0.8-1.5,0.8-2.5,1c-1.4,0.2-2.7,0.5-4,0.7
		c-0.3,0.1-0.5,0.3-0.6,0.5c-0.1,0.3,0.1,0.5,0.4,0.5C149.7,63.1,151.1,63.8,152.6,64.1z M117.9,148c-0.4-0.1-0.8,0.1-0.9,0.5
		c-0.4,0.9-1.1,1.7-0.9,2.7c0.1,0.6,0,1.2-0.3,1.7c-0.7,0.9-0.1,1.2,0.6,1.4c0.8,0.2,1.3-0.2,1.7-0.9c0.6-1.1,0.5-2.4,1-3.5
		C119.7,148.5,119.4,148,117.9,148z M94.5,96.1c-1.1-0.1-1.6,0.3-2.1,0.9c-0.3,0.4-0.4,0.9-0.1,1.3c0.3,0.4,0.7,0.4,1.1,0.2
		c0.7-0.3,1.5-0.4,2.3,0c1.1,0.5,2.2,0.7,3.1-0.7c0.2-0.4,0.3-0.8,0.3-1.1c-0.1-0.3-0.5-0.5-1-0.5C96.8,96.3,95.5,96.4,94.5,96.1z
		 M112.2,97.4c-1.4-0.3-2.8,2.1-2.5,2.9c0.4,1,3.1,1.4,3.8,0.5c0.4-0.5,0.8-1,1.2-1.4c0.5-0.5,0.5-1.1-0.3-1.5
		C113.7,97.5,112.9,97.5,112.2,97.4z M178.3,90.9c0.2-0.7,0.1-1.5-0.7-1.7c-0.9-0.2-1.9-0.4-2.8,0c-0.8,0.4-1,1.1-0.9,1.9
		c0.1,0.8,0.6,1.3,1.4,1.4c0.3,0,0.7-0.1,0.9,0c0.5,0.2,1,0.5,1.5-0.1C178.2,92,178.6,91.5,178.3,90.9z M107.7,168.1
		c-0.8-0.2-1.4,0-2,0.6c-0.3,0.4-0.7,0.8-0.3,1.2c0.4,0.4,0.7,1.1,1.4,0.9c0.8-0.3,1.5,0,2.2,0c0.6,0,1.3,0.1,1.5-0.8
		c0.2-0.9,0.3-1.8-0.6-2.5c-0.3-0.2-0.6-0.2-0.9,0.1C108.6,168.2,108.1,168,107.7,168.1z M117.2,85.3c1.2,0,1.1,0,1.9-0.6
		c0.5-0.4,1.3-0.6,1.7-1.1c0.3-0.3,0.3-1.1-0.5-1.3c-1.7-0.5-3.4,0.1-4.5,1.4c-0.1,0.1-0.3,0.3-0.4,0.4c-0.2,0.2-0.4,0.5-0.3,0.9
		c0.2,0.4,0.5,0.5,0.9,0.5C116.5,85.4,116.9,85.3,117.2,85.3z M124.8,83.2c-1.1,0-1.2,1.3-2.2,1.7c-0.2,0.1-0.5,0.4-0.4,0.8
		c0.1,0.3,0.5,0.4,0.8,0.4c0.8,0,1.5,0.2,2.3,0.4c1,0.2,2.4-0.8,2.4-1.7c0-0.2,0.1-0.6-0.2-0.6C126.7,83.9,125.9,83.3,124.8,83.2z
		 M99.7,84.2c0.6,0.2,1.2-0.7,1.9-1.2c0.2-0.1,0.3-0.5,0.1-0.9c-0.2-0.4-0.5-0.4-0.9-0.3c-0.8,0.3-1.8,0.4-2.5,0
		c-1.4-0.7-2.2,0.3-3.1,0.8c-0.3,0.2-0.4,0.6-0.2,1c0.2,0.4,0.6,0.5,0.9,0.4C97,83.7,98.1,83.9,99.7,84.2z M104.7,100
		c0.5,0.1,1,0,1.3-0.3c0.5-0.6,0.9-1.2,1.6-1.5c0.2-0.1,0.4-0.4,0.2-0.6c-0.2-0.4-0.5-0.6-0.9-0.5c-0.8,0.2-1.6,0-2.4-0.1
		c-1-0.2-2.3,0.7-2.4,1.4c-0.1,1.2,0.9,1.4,1.8,1.6C104.3,100,104.5,100,104.7,100z M105.5,89.2c0.7,0.1,1.4-0.4,2-0.9
		c0.2-0.2,0.3-0.5,0.2-0.8c-0.1-0.3-0.4-0.3-0.7-0.3c-1.3,0.1-2.5-0.1-3.8-0.3c-0.8-0.1-1.5,0.1-2.1,0.5c-0.4,0.3-0.5,0.7-0.4,1.1
		c0.1,0.4,0.5,0.6,0.8,0.5C102.8,88.7,104,89.2,105.5,89.2z M171,90.7c-0.1-1,0.2-2.1-1.2-2.3c-1.3-0.2-2.1,0.1-2.4,1.2
		c-0.2,0.7-0.6,1.6,0.1,2.2c0.9,0.9,2,0.3,2.9,0.2C171.3,92,170.8,91,171,90.7z M94.4,88.4c0.6,0,1.3,0.1,2-0.3
		c0.4-0.2,0.6-0.5,0.5-1c-0.1-0.4-0.4-0.6-0.9-0.6c-0.9-0.1-1.8-0.3-2.8-0.4c-1-0.2-1.8,0.1-2.4,0.9c-0.5,0.7-0.4,1.2,0.5,1.3
		C92.3,88.4,93.2,88.6,94.4,88.4z M114.6,161.9c0,0.7-0.5,1.7,0.7,1.9c0.8,0.1,1.4-0.8,1.5-1.9c0,0,0-0.1,0-0.1
		c0-0.8,0.1-1.7,0.1-2.5c0-0.8-0.5-1.2-1.3-1c-0.9,0.3-1.4,1.3-1.2,2.3C114.6,161,114.5,161.5,114.6,161.9z M145,150
		c0,0.4,0.4,0.9,0.7,1.3c1,1.2,1,2.9,2.1,4c0.2,0.3,0.4,0.8,0.9,0.4c0.6-0.3,0.1-0.7,0-1c-0.8-2-1.4-4-1.8-6
		c-0.1-0.3-0.2-0.4-0.4-0.5c-0.3-0.2-0.7-0.1-0.9,0.2C145.3,148.8,145,149.2,145,150z M166.7,170.6c0.8,0,1.5-0.3,1.6-1
		c0.1-0.6-0.6-0.9-1.2-1.1c-1.1-0.3-2.2,0-3.3-0.4c-0.6-0.2-1,0.3-0.9,1c0.1,0.8,0.2,1.5,1.2,1.4
		C164.9,170.5,165.8,170.4,166.7,170.6z M81.9,61.1c0,0.8,0.6,1.2,1.3,0.7c1.1-0.7,2.2-1.5,3.1-2.6c0.3-0.3,0.6-0.6,0.3-1
		c-0.2-0.3-0.6-0.4-1-0.4c-1.3,0.1-2,1.1-2.9,1.8C82.2,60,81.7,60.5,81.9,61.1z M82.9,66.2c1.5-0.1,2.6-1.1,3.9-1.7
		c0.5-0.2,1.1-1,0.6-1.8c-0.4-0.6-1.1-0.7-1.6-0.3c-1.2,1-2.5,1.7-3.4,3c-0.2,0.2-0.3,0.4-0.2,0.6C82.4,66.3,82.7,66.2,82.9,66.2z
		 M116.6,168.8c0-0.6,0.2-1.3-0.7-1.6c-0.6-0.2-1.3-0.4-1.8,0.2c-0.6,0.9-1,1.9-0.6,2.9c0.3,0.8,1.2,0.6,1.9,0.5
		C116.7,170.7,116.7,169.8,116.6,168.8z M157.1,167.4c-0.1,0-0.2-0.1-0.4,0c-0.8,0.2-1.7,0.3-1.7,1.3c0,0.9,0.8,1,1.5,1.1
		c0.7,0.1,1.5,0.2,2.2,0.2c0.5,0,1.1-0.1,1.1-0.7c0-0.5,0.2-1.1-0.6-1.4C158.6,167.6,157.9,167.4,157.1,167.4z M185,90.5
		c0.2-0.7,0.1-1.3-1-1.3c-1.7,0-2,0.4-2.2,2.7c0,0.8,0.2,1.1,1,1.1C184.8,93,184.9,93,185,90.5z M152.4,107.9
		c-0.6,0-0.5,0.4-0.4,0.8c0.5,1.2,1.1,2.3,1.2,3.7c0.1,0.7,0.7,0.9,1.3,0.4c0.6-0.6,1.3-1.3,1.8-2c0.2-0.3,0.6-0.7,0.1-1.2
		c-0.5-0.4-0.8,0-1.1,0.3c-0.8,0.9-1.4,0.5-1.9-0.3c-0.3-0.4-0.5-0.8-0.7-1.2C152.8,108.2,152.7,107.9,152.4,107.9z M195.5,171.2
		c0.4,0.1,0.9,0,1.4-0.1c0.4-0.1,1-0.3,0.8-0.9c-0.2-0.6-0.7-0.8-1.3-0.6c-0.5,0.2-1,0.3-1.5,0.1c-1-0.3-1.9,0-2.9,0.2
		c-0.4,0.1-0.8,0.2-0.8,0.7c0,0.5,0.3,0.8,0.7,1c0.5,0.1,1,0.3,1.5,0C194,171.2,194.7,171.2,195.5,171.2z M90.4,104.1
		C90.4,104,90.4,104,90.4,104.1c0.5-0.1,1-0.1,1.5-0.1c0.5,0,1,0,1-0.7c0.1-0.7-0.3-1-0.9-1c-0.6-0.1-1.3-0.1-1.8-0.4
		c-0.9-0.6-1.4,0.1-2.1,0.4c-0.5,0.3-0.4,0.9-0.3,1.3c0,0.3,0.6,0.5,1.1,0.5C89.4,104,89.9,104.1,90.4,104.1z M113.1,89.9
		c0.9,0.1,1.3-0.5,1.8-0.9c0.4-0.3,0.6-0.6,0.4-1.1c-0.2-0.4-0.5-0.8-1-0.7c-1.2,0.1-2.3,0.3-3.3,1c-0.5,0.4-0.4,0.8-0.3,1.2
		c0.1,0.5,0.6,0.6,0.9,0.5C112.3,89.8,112.8,89.7,113.1,89.9z M116.6,95.5c0.7,0.2,1.4-0.2,2.1-0.9c0.6-0.6,0.5-1.2-0.2-1.3
		c-1.3-0.1-2.5-0.2-3.8,0c-0.5,0.1-0.8,0.4-0.8,1c0,0.6,0.4,0.7,0.8,0.8C115.2,95.3,115.7,95.4,116.6,95.5z M169.4,83.2
		C169.4,83.2,169.4,83.2,169.4,83.2c-0.3,0-0.7-0.1-1,0c-0.7,0.2-1.1,1-0.7,1.6c0.6,0.9,1.4,1.4,2.6,1.3c1-0.2,1.3-1,1.3-1.8
		c0-0.8-0.7-1-1.3-1C170,83.2,169.7,83.2,169.4,83.2z M85.8,95.6c-0.6-0.2-0.8,0.1-1,0.4c-0.2,0.4-0.1,0.8,0.1,1.1
		c0.3,0.5,0.7,0.8,0.9,1.5c0.2,0.6,0.7,1.1,1.4,0.2c0.4-0.5,0.9-1,1.3-1.5c0.4-0.5,0.5-1.1-0.3-1.2C87.3,95.8,86.3,96.2,85.8,95.6z
		 M168.9,103.1c0.6-0.1,1.3-0.1,1.6-0.8c0.3-0.8-0.2-1.4-0.7-1.7c-0.9-0.5-2-0.3-3.1-0.3c-0.3,0-0.3,0.3-0.3,0.6
		C166.5,101.5,168.3,103.1,168.9,103.1z M85.4,87.9c1.3,0.2,2-0.3,2.6-1c0.3-0.3,0.7-0.6,0.5-1.1c-0.2-0.4-0.7-0.5-1.1-0.5
		c-0.9,0.1-1.8,0.4-2.6,0.6C84.2,86,83.9,86.4,84,87c0,0.6,0.4,0.8,0.9,0.9C85.2,88,85.4,87.9,85.4,87.9z M121.6,90.6
		c0.4-0.1,0.9-0.2,1.3-0.4c0.3-0.1,0.6-0.2,0.7-0.6c0.1-0.4-0.2-0.6-0.6-0.8c-0.8-0.4-1.6-0.2-2.4-0.5c-1-0.3-1.5,0.2-2.1,0.9
		c-0.4,0.5-0.1,0.8,0.3,0.9C119.7,90.3,120.6,90.4,121.6,90.6z M164.2,84.2c0-0.3,0-0.7-0.4-0.8c-0.8-0.3-1.7-0.4-2.5-0.2
		c-0.7,0.2-1.1,0.9-1,1.7c0.1,0.7,0.6,1.1,1.2,1c0.6,0,1.2-0.3,1.7-0.4C163.9,85.3,164.2,84.9,164.2,84.2z M87.8,68
		c-0.1-0.4-0.1-0.8-0.4-1c-0.4-0.2-0.8-0.1-1.1,0.2c-1.1,0.9-2.2,1.8-3.3,2.7c-0.2,0.2-0.5,0.6-0.2,0.9c0.3,0.4,0.7,0.2,1,0
		c0.6-0.5,1.3-0.7,1.9-1C86.5,69.4,87.5,68.9,87.8,68z M90.6,81.4c-0.7-0.1-1.3,0.2-1.9,0.4c-0.6,0.1-0.9,0.6-0.8,1.2
		c0.1,0.8,0.7,0.5,1.1,0.5c0.3,0,0.6-0.1,0.8,0c1.2,0.2,2.6-0.5,3-1.5c0.1-0.2,0.3-0.4,0.1-0.7c-0.2-0.3-0.5-0.2-0.8-0.1
		C91.6,81.3,91.2,81.7,90.6,81.4z M182.7,95.3c-1,0-1.7,0.6-1.7,1.5c0,0.9,0.7,1.3,2.1,1.4c0.8,0,1.6-0.6,1.6-1.4
		C184.6,96.2,183.5,95.3,182.7,95.3z M189.9,105.3c-0.1-0.9-0.1-1.9-0.7-2.8c-0.2-0.3-0.5-0.5-0.9-0.4c-0.4,0.1-0.7,0.3-0.6,0.7
		c0.1,0.9,0.1,1.7,0.3,2.6c0.2,0.6,0.8,1.2,1.5,1.2C190.1,106.6,189.7,105.9,189.9,105.3z M169.1,97.1c0.7,0.1,1.2-0.2,1.5-0.8
		c0.3-0.5-0.2-0.9-0.5-1.1c-0.7-0.5-1.6-0.8-2.4-0.7c-0.8,0-1.1,0.8-1.1,1.6c0,0.7,0.5,0.9,1.1,0.9
		C168.2,97.1,168.7,97.1,169.1,97.1z M102.8,93.7c-0.1-0.7-0.4-0.9-1-1.1c-1.5-0.3-3.1,0.2-4.6-0.1c-0.2,0-0.5,0-0.6,0.3
		c-0.1,0.3-0.1,0.6,0.2,0.9c0.3,0.3,0.7,0.3,1.1,0.3c1.4-0.1,2.8-0.2,4.1,0.2C102.5,94.3,102.7,94,102.8,93.7z M99.9,170.7
		c0.7,0,1.4-0.1,2.1-0.1c0.6-0.1,0.8-0.5,0.7-1c-0.1-0.5-0.5-0.7-1-0.5c-0.9,0.2-1.9,0.2-2.8,0.2c-0.5,0-1,0-1.5,0.3
		c-0.5,0.2-0.5,0.6-0.4,1c0,0.4,0.4,0.4,0.8,0.3C98.5,170.6,99.2,170.7,99.9,170.7z M182,85.7c0,0.9,0.8,1.5,2,1.4
		c0.9-0.1,1.3-0.7,1.3-1.5c0-1-0.6-1.5-1.6-1.5C182.9,84.1,182,84.9,182,85.7z M176.3,97.3c1.1,0.3,1.5-0.2,1.5-1.2
		c0-1.1-0.9-0.9-1.6-0.9c-0.5,0-1,0-1.5-0.1c-0.7,0-1,0.4-1,1.1c-0.1,0.6,0.4,0.9,0.9,1C175.2,97.2,175.7,97.5,176.3,97.3z
		 M176.8,86.3c0.9,0,1.7-0.5,1.7-1.3c0-0.9-0.9-1.8-1.8-1.8c-0.8,0-1.4,0.4-1.4,1.4C175.2,85.7,175.8,86.3,176.8,86.3z M108.4,104.4
		c-0.4,0-0.5-0.1-0.6-0.1c-0.5,0-1.3-0.2-1.4,0.5c-0.1,0.6,0.5,1,1.1,1.2c0.5,0.1,0.9,0.3,1.3,0.7c0.4,0.4,0.9,0.1,1.2-0.2
		c0.4-0.4,0.9-0.9,0.7-1.5c-0.1-0.5-0.6-0.7-1.1-0.6C109.1,104.4,108.6,104.4,108.4,104.4z M190.1,91.3c-0.1-0.4,0.3-1.2-0.4-1.4
		c-0.6-0.2-1.3,0.3-1.3,0.7c-0.1,1-0.5,2-0.1,3c0.2,0.5,0.4,0.7,0.9,0.7c0.5,0,0.7-0.4,0.7-0.8C189.9,92.8,190,92.1,190.1,91.3z
		 M87.9,93c0.7-0.1,1.3-0.1,1.9,0.2c0.5,0.2,1.1,0.2,1.6,0c0.3-0.1,0.6-0.3,0.5-0.7c-0.1-0.4-0.4-0.6-0.8-0.6
		c-0.7,0.1-1.2-0.1-1.8-0.3c-0.5-0.2-1-0.2-1.5,0c-0.6,0.3-1.6,0.3-1.5,1C86.4,93.4,87.4,92.9,87.9,93z M182.4,101.9
		c-0.2,0-0.4-0.1-0.6-0.1c-0.6,0-1.3,0.3-1.3,0.9c0,0.6,0.4,1.3,1.2,1.3c0.4,0,0.8,0,1.2,0.1c1.1,0.1,1.6-0.5,1.2-1.5
		C183.8,101.8,183.2,101.7,182.4,101.9z M185.3,171.2c0.1,0,0.5,0,0.6-0.4c0.1-0.4-0.2-0.8-0.5-1c-0.3-0.1-0.6-0.3-1-0.3
		c-0.9,0-1.7,0.3-2.6-0.2c-0.3-0.1-0.8,0-1,0.7c-0.1,0.6,0.1,0.9,0.6,0.9C182.7,171.1,183.9,171.1,185.3,171.2z M177,103.2
		c0.4,0.1,0.8-0.2,0.8-0.8c0-0.6-0.3-1-1-1c-0.6,0-1.2,0.1-1.9-0.2c-0.5-0.2-1.2,0-1.3,0.8c-0.1,0.8,0.5,1.1,1.1,1.1
		C175.3,103.1,176,103.1,177,103.2z M123.3,79.2C123.3,79.2,123.3,79.2,123.3,79.2c0.4-0.1,0.7,0,1.1-0.1c0.5-0.1,1-0.3,1-0.8
		c0-0.5-0.3-0.8-0.9-1c-0.9-0.2-1.8-0.2-2.7,0.1c-0.4,0.1-0.6,0.3-0.7,0.7c-0.1,0.5,0.3,0.8,0.6,0.9
		C122.3,79.1,122.8,79.1,123.3,79.2z M82.1,171.3C82.1,171.3,82.1,171.3,82.1,171.3c0.4,0,0.9,0,1.3-0.1c0.5-0.1,1.2,0,1.2-0.7
		c0-0.7-0.7-0.7-1.3-0.7c-0.8,0-1.6,0.2-2.3-0.3c-0.6-0.4-1.2-0.1-1.4,0.3c-0.2,0.5,0.2,1.1,0.8,1.3
		C80.9,171.3,81.5,171.2,82.1,171.3z M154.6,85.4c0,0.4,0.2,0.8,0.5,1.2c0.4,0.5,1,0.5,1.2,0c0.3-0.8,0.7-1.7,0.7-2.6
		c0-0.6-0.4-0.9-1-1c-0.5-0.1-0.9,0.2-1.1,0.7C154.8,84.3,154.7,84.8,154.6,85.4z M113.1,78.8c0.3,0,0.7,0,1-0.1
		c0.6-0.1,1.2-0.4,1.1-1c-0.1-0.6-0.7-0.7-1.3-0.7c-0.7,0.1-1.4,0.2-2.1-0.1c-0.6-0.2-0.9,0.2-1.1,0.6c-0.2,0.4,0.3,0.6,0.6,0.8
		C111.7,78.8,112.5,78.7,113.1,78.8z M176.5,108.9c0.4-0.1,0.9,0.1,1.1-0.5c0.1-0.6-0.3-0.8-0.7-1c-0.8-0.4-1.7-0.3-2.5-0.7
		c-0.4-0.2-0.9,0.2-1,0.7c-0.2,0.5,0.1,0.8,0.6,1C174.8,108.6,175.6,108.7,176.5,108.9z M93.9,78.1C93.9,78.1,93.9,78.2,93.9,78.1
		c0.6,0,1.1,0,1.7-0.1c0.4-0.1,0.7-0.3,0.7-0.7c0-0.4-0.3-0.6-0.6-0.7c-1-0.1-1.9-0.2-2.9-0.2c-0.6,0-0.9,0.5-0.8,1.1
		c0.1,0.6,0.6,0.7,1.1,0.6C93.3,78.1,93.6,78.1,93.9,78.1z M183.5,109.7c0.5,0.2,0.9-0.1,1.1-0.6c0.2-0.5-0.2-0.7-0.5-0.9
		c-0.5-0.3-1-0.4-1.3-1c-0.2-0.3-0.7-0.4-1-0.2c-0.5,0.4-0.9,0.8-0.9,1.5c0,0.4,0.3,0.6,0.6,0.7
		C182.1,109.2,182.8,109.4,183.5,109.7z M84.8,74.1c1.1-0.1,2-0.7,2.6-1.5c0.5-0.5-0.1-1.1-0.5-1.5c-0.4-0.5-0.7-0.1-1,0.3
		c-0.4,0.5-0.9,1-1.5,1.3c-0.3,0.2-0.5,0.5-0.4,0.9C84.2,74,84.6,74,84.8,74.1z M90.4,170.1c-0.8-0.2-1.4,0.1-2.1,0.6
		c-0.1,0.1-0.3,0.3-0.2,0.5c0.1,0.2,0.4,0.4,0.6,0.3c1.3-0.4,2.6-0.2,4-0.4c0.3,0,0.7-0.1,0.8-0.5c0.1-0.4-0.4-0.6-0.7-0.7
		C92,169.7,91.3,170.1,90.4,170.1z M170.7,108.2c0.4,0.1,0.7,0,0.8-0.3c0.2-0.4,0-0.8-0.2-1.1c-0.6-0.5-1.2-0.8-1.8-1.3
		c-0.3-0.2-0.6,0-0.8,0.2c-0.2,0.2-0.4,0.6-0.1,0.9C169,107.4,169.6,108.2,170.7,108.2z M100.8,105.3c0.5-0.1,1.1-0.1,1.6-0.2
		c0.3-0.1,0.5-0.3,0.5-0.6c0-0.3-0.1-0.5-0.4-0.5c-1,0-2-0.4-3-0.2c-0.4,0.1-0.8,0.4-0.8,0.8c0,0.4,0.5,0.4,0.8,0.6
		C100,105.2,100.4,105.3,100.8,105.3z M128.4,90.5c0-0.8-0.5-1.1-1-1.2c-0.5-0.1-1.6,1-1.7,1.6c-0.1,0.9,0.6,1,1.2,1
		C127.8,91.9,128.1,91.1,128.4,90.5z M189.6,98.2c0-0.7-1.1-1.9-1.7-1.9c-0.5,0-0.5,0.3-0.5,0.7c0,1.2,0.7,2.4,1.5,2.4
		C189.7,99.4,189.4,98.7,189.6,98.2z M108.6,93.1c-0.4-0.1-1-0.2-1.5,0.1c-0.2,0.1-0.6,0.1-0.5,0.5c0.1,0.2,0.2,0.6,0.5,0.6
		c1,0.1,1.9,0.3,2.9,0.2c0.5-0.1,0.7-0.5,0.7-0.8c0-0.4-0.4-0.5-0.8-0.5C109.5,93.1,109.1,93.1,108.6,93.1z M103.1,78.4
		c0.1,0,0.3,0,0.5-0.1c0.4-0.1,0.9-0.1,0.9-0.6c0-0.5-0.5-0.5-0.8-0.7c-0.4-0.2-0.8-0.3-1.3-0.4c-0.6-0.1-1.8,0.5-1.7,1
		c0.1,0.6,0.8,0.6,1.2,0.6C102.3,78.3,102.7,78.4,103.1,78.4z M174.4,170.6c0.1,0,0.3,0.1,0.5,0.1c0.5,0,1.1-0.1,1.1-0.8
		c0-0.7-0.5-0.9-1.1-0.9c-0.4,0-0.8,0-1.2,0c-0.5,0-1,0.1-1.1,0.7c0,0.6,0.5,0.8,1.1,0.8C173.9,170.7,174.1,170.7,174.4,170.6z
		 M85.9,76.9c-0.5,0-1,0.1-1.5,0.1c-0.4,0-0.6,0.2-0.7,0.6c0,0.4,0.3,0.5,0.6,0.5c0.6,0.1,1.3,0.2,1.9,0.2c0.6,0.1,1.5,0.2,1.6-0.6
		c0.1-0.8-0.8-0.8-1.4-0.7C86.3,77,86.1,76.9,85.9,76.9z M190,86.7c0.1-1.5,0-1.9-0.5-1.8c-1,0.2-0.7,1.1-0.9,1.7
		c-0.1,0.1-0.1,0.3-0.1,0.5c0.1,0.6,0.3,1.3,1,1.3c0.7,0,0.5-0.7,0.5-1.2C190,87,190,86.9,190,86.7z M155.5,80
		c0.6,0,1.2-0.4,1.2-0.9c0-0.5-0.9-1.7-1.4-1.5c-0.6,0.1-1.1,0.5-1.1,1.2C154.3,79.6,154.8,79.9,155.5,80z M162.1,79.9
		c0.6-0.1,1.1-0.3,1-0.9c0-0.9-0.6-1.3-1.4-1.3c-0.7,0-1.2,0.5-1.2,1.3C160.6,80.1,161.7,79.6,162.1,79.9z M150,99.7
		c0-0.3-1.4-3-1.6-3.2c-0.2-0.2-0.4-0.3-0.6-0.1c-0.3,0.2-0.1,0.4,0,0.6c0.3,1.1,1.1,2,1.4,3.1c0.1,0.3,0.3,0.4,0.5,0.3
		C150,100.3,150,100,150,99.7z M164,96.1c0-0.9-0.9-1.9-1.9-2c-0.3,0-0.5,0-0.6,0.2c-0.1,0.2-0.1,0.5,0.1,0.6c0.5,0.6,1,1.1,1.5,1.7
		c0.2,0.2,0.3,0.3,0.6,0.2C164,96.7,164,96.4,164,96.1z M168.8,80c0.3-0.1,1.1,0.2,1.3-0.7c0.1-0.8-0.4-1.2-1.1-1.2
		c-0.7,0-1.5,0.1-1.5,1C167.4,80,168.1,80,168.8,80z M149.7,161.3c-0.2-0.5-0.6-1.1-0.7-1.8c0-0.4-0.1-0.8-0.6-0.9
		c-0.1,0-0.4,0.1-0.5,0.2c-0.3,0.4-0.1,0.8,0.1,1.1c0.3,0.5,0.7,1,0.6,1.6c0,0.4,0.1,0.9,0.6,0.8
		C149.8,162.3,149.5,161.8,149.7,161.3z M177.1,80.3c0.7-0.1,1.4,0,1.4-0.7c0-0.8-0.9-0.9-1.5-1c-0.6-0.1-1.4,0.2-1.3,0.9
		C175.7,80.3,176.6,80.3,177.1,80.3z M189.9,72.1c0.3-0.6-0.2-0.9-0.5-0.9c-0.9-0.1-1.7,1.5-1.3,2.2c0.3,0.5,0.7,0.7,1,0.2
		C189.5,73.1,190.1,72.8,189.9,72.1z M187.8,69.2c-0.1,0.7,0.3,0.9,0.8,0.6c0.6-0.3,1.2-0.8,1.7-1.3c0.4-0.4,0.1-0.7-0.3-0.9
		C189.3,67.4,187.9,68.4,187.8,69.2z M184.5,81.3c0.4-0.1,0.8,0,0.9-0.5c0.1-0.3-1.6-1.5-2-1.5c-0.4,0-0.7,0.2-0.7,0.6
		C182.7,80.5,183.6,81.3,184.5,81.3z M188,76c-0.1,0.5,0,1,0.5,0.9c0.8-0.1,1.1-0.8,1.1-1.6c0-0.3,0.3-0.9-0.4-0.9
		C188.2,74.5,188.2,75.4,188,76z M188.5,66.3c0.8-0.2,1.4-0.6,1.5-1.5c0.1-0.6-0.4-0.6-0.7-0.5c-0.9,0.1-1.1,0.9-1.3,1.6
		C188,66.3,188.2,66.4,188.5,66.3z M189.7,109.6c0-0.9-0.5-1.2-1-1.2c-0.4,0-0.9,0.1-0.8,0.9c0.1,0.8,0.7,0.9,1.3,1
		C189.8,110.3,189.7,109.8,189.7,109.6z M85.9,101.5c-0.1-0.5-0.1-1-0.8-1.1c-0.7,0-0.8,0.4-0.8,0.9c0,0.5,0.3,0.9,0.9,0.9
		C85.7,102.2,85.9,101.8,85.9,101.5z M130.6,78.3c-0.8-0.1-1,0.4-1.2,1c-0.1,0.5,0.3,0.7,0.7,0.7c0.7,0,0.9-0.5,1-1.1
		C131.3,78.4,131,78.3,130.6,78.3z M173.9,117.4c-0.4,0-0.7,0.3-0.7,0.7c0.1,0.6,0.6,0.8,1.1,0.9c0.4,0,0.6-0.3,0.6-0.7
		C174.9,117.5,174.3,117.6,173.9,117.4z M84,82.1c0.4,0,0.8-0.2,0.8-0.7c0-0.4-0.1-0.8-0.8-0.9c-0.5,0-0.7,0.2-0.7,0.7
		C83.3,81.7,83.5,82.1,84,82.1z M151.5,106.3c0.4,0,0.6-0.3,0.5-0.5c0-0.4,0-0.9-0.6-1c-0.3,0-0.6,0-0.5,0.4
		C151,105.6,151,106.1,151.5,106.3z"/>
	<path fill="#FFFFFF" d="M7.9,127.4c0.3,0,0.6,0.4,0.8-0.3c0.5-2.8,1.5-5.6,1.4-8.5c0-0.2,0-0.4,0.1-0.6c0.6-1.2,0.8-2.5,0.9-3.8
		c0-0.7,0-1.4,0.6-2c0.2-0.2,0.3-0.6,0.1-0.8c-0.6-0.9-0.1-1.8,0.1-2.6c0.4-1.2,0.5-2.5,0.8-3.8c0.4-2,1.5-3.6,2.7-5.2
		c0.7-0.9,1.4-1.6,2.2-2.3c1.4-1.3,3-2,4.8-2.4c0.3-0.1,0.6-0.3,0.8-0.5c0.3-0.2,0.7-0.5,1-0.3c1.9,1.1,4.2,1.6,6,3.2
		c0.9,0.8,1,1.8,1.4,2.7c0.2,0.4,0.3,0.8,0.9,0.8c0.5,0,0.6-0.4,0.7-0.8c0.4-1,1.1-1.7,1.7-2.5c0.9-1,1.5-2.3,2.7-3.1
		c1.4-0.9,3-1.3,4.6-1.6c0.1,0,0.3,0,0.4,0c2.4,1.3,5.2,1.7,6.7,4.7c1.1,2.1,1.6,4.2,1.9,6.5c0.2,2.3-0.2,4.3-1,6.3
		c-0.4,0.9-0.1,1.9-0.2,2.8c-0.4,2.7-0.8,5.4-1.6,8c-0.4,1.4,0.5,2.9,0.4,4.4c0,1,0.2,2-0.4,2.9c-0.3,0.5-0.3,1.3-0.4,1.9
		c-0.4,2.1,0,4.2,0,6.3c0,4.1,0.1,8.2,0.1,12.3c0,0.5-0.1,0.9-0.7,1.1c-0.6,0.2-1.2,0.2-1.7-0.2c-1.4-1.1-2.4-2.3-2.1-4.2
		c0.2-1-0.6-1.6-1-2.3c-0.3-0.4-0.6-0.2-1,0c-1.3,0.7-2.1,1.7-3.1,2.6c-1.2,1.1-2.4,2.1-3.6,3.2c-0.2,0.2-0.5,0.5-0.5,0.7
		c-0.2,2-0.8,3.9,0.2,6c1,2.1,1.5,4.4,1.9,6.7c0.3,1.8,1.2,2.3,3.1,2.6c1.9,0.4,4,0,5.7,1.3c0.3,0.3,0.8,0.1,1.2,0.2
		c0.8,0.1,1.7,0,2.4,0.7c0.3,0.3,0.7,0.4,1.1,0.1c0.6-0.3,0.1-0.6,0-0.9c-0.6-1.3-1.1-2.6-1.7-3.8c-0.7-1.5-1-3-0.4-4.5
		c0.4-1.1,2.3-1.3,2.9-0.4c1.3,1.9,2.5,3.8,3.2,6.1c0.7,2.2,2,4.2,3.6,5.9c0.6,0.6,1.1,1.3,1.4,2c0.8,2.1,1.9,4.1,3,6.1
		c1,1.8,0.5,3.9-1.1,4.7c-0.9,0.5-1.8,0.4-2.6-0.5c-0.9-1.1-1.7-2.3-2.3-3.6c-0.2-0.4-0.5-0.8-0.9-0.7c-0.5,0-0.8,0.3-1,0.8
		c-0.7,2.5-2.5,4.5-3.5,6.9c-0.3,0.7-0.3,1.3,0.2,1.8c1.5,1.4,2.5,3,3.5,4.8c1.2,2.1,2.6,4.1,4.3,5.8c1,1,2,0.8,3,0.7
		c1.7-0.1,3.3-0.7,5.1-0.1c0.3,0.1,0.7,0.1,1-0.3c0.2-0.4,0-0.6-0.1-0.9c-0.7-1.2-1.4-2.4-2-3.7c-0.5-1.2-0.8-2.4,0.2-3.6
		c0.5-0.6,1.1-0.7,1.8-0.3c1.3,0.8,2.5,1.8,3.4,3c0.7,1,1.8,1.7,2.5,2.7c0.6,0.8,1.7,0.3,2.3,0.1c2.2-1,3.8,0.1,5,1.6
		c1.7,2,3.9,2.6,6.2,2.7c2.1,0.1,4.1,0.5,6.2,0.7c1.5,0.1,2.6-0.7,3.8-1.1c2.2-0.8,3.9-2.8,6.2-3.1c2.6-0.3,5.3-1.4,7.9-0.3
		c1.3,0.6,2.5,1.4,3.8,2.1c1.8,1.1,3.7,1.8,5.7,2.5c1.9,0.7,3.8,1.1,5.8,1.3c2.5,0.3,5.1,0.2,7-1.8c0.6-0.6,1.3-0.9,2-1.2
		c1.8-0.8,3.3-2.2,5.2-2.8c1.6-0.6,3.4-0.6,5.1-0.8c2.2-0.2,4.3,0.5,6.5,0.4c1.7-0.1,3.1,0.4,4.3,1.4c0.6,0.5,1.5,0.7,2.2,0.9
		c1.9,0.6,3.1,2.1,4.8,3c0.6,0.3,1.2,0.5,1.9,0.6c0.4,0,0.7,0.1,1.1,0.2c1.4,0.5,2.7,1.2,3.8-0.6c0.4-0.6,1.2-0.5,1.9-0.5
		c2.3,0.1,4.6-0.2,6.9-0.3c1.1-0.1,2-0.8,3-1.2c1.2-0.5,2.5-0.8,3.4-1.7c0.8-0.7,1.8-0.9,2.7-1.2c1-0.4,1.9-0.6,2.9-0.1
		c0.9,0.4,1.9,0.5,2.9,0.4c1.6-0.1,2.7,0.8,3.8,1.8c0.1,0.1,0.2,0.1,0.3,0.2c0.3,0.4,0.3,1,0,1.1c-1,0.4-0.1,2.8-2.1,2.1
		c-0.6-0.2-1.1-0.4-1.7-0.4c-1.7-0.1-3.3-0.1-4.6,1.7c-0.8,1.2-2.3,1.9-4,1.9c-1.1,0-2,0.9-2.9,1.5c-1.7,1.2-3.6,1.9-5.5,2.6
		c-2.5,1-5,0.7-7.5,0.8c-2.4,0.1-4.8,0.3-7.1-0.3c-2.7-0.7-5.2-2-7.7-3.3c-1.3-0.7-2.5-1.9-4.2-1.6c-0.1,0-0.3,0-0.3,0
		c-2.3-1.3-4.6-0.6-7-0.3c-1.6,0.2-2.8,1.1-4.1,1.9c-0.7,0.4-1.3,0.8-2.2,0.6c-0.1,0-0.3,0-0.3,0c-1.4,1.1-3.4,0.6-4.9,1.6
		c-0.3,0.2-0.7,0.3-1,0.2c-0.7-0.1-1.3,0-1.9,0.5c-0.6,0.6-1.2,0.1-1.8,0c-1-0.2-1.9-0.4-2.8,0.4c-0.6,0.5-1.4,0.4-2,0
		c-0.7-0.6-1.5-0.7-2.4-0.6c-0.8,0.1-1.8-0.1-2.5-0.4c-2.4-1-4.7-2.1-7-3.3c-1.5-0.7-3-1-4.6-0.8c-1.4,0.2-2.9,0.4-4.3,0.9
		c-1.7,0.6-3.5,0.7-5.3,0.5c-0.3,0-0.6-0.1-0.8,0c-1.5,1-3.2,0.3-4.7,0.8c-0.6,0.2-1.2,0.1-1.6-0.2c-0.9-0.6-2-0.6-3-1
		c-0.8-0.4-1.6-0.4-1.9,0.7c-0.2,0.7-0.7,1.1-1.2,1.5c-0.7,0.5-1.4,0.8-2.4,0.1c-1.2-0.8-2.8-0.8-3.9-1.9c-0.4-0.4-0.8-1-1.4-1.3
		c-1-0.6-2.1-0.6-3.2-0.8c-2.1-0.3-4.2,0.5-6.3,0.3c-1-0.1-2-0.5-3,0.3c0,0-0.1,0-0.1,0c-1.5-1.4-3,0.2-4.6,0
		c-0.3,0-0.6-0.1-0.8-0.2c-0.9-0.4-1.6-0.6-2.4,0.1c-0.2,0.2-0.6,0.3-0.8,0.2c-1.6-0.5-3.3,0.2-4.9-0.2c-0.7-0.2-1.2,0.4-1.8,0.4
		c-1.4,0-2.7,0.1-4.1,0c-0.6-0.1-1.3,0-1.5,0.5c-0.2,0.5-0.1,1.1,0.6,1.5c0.3,0.1,0.5,0.5,0.6,1c0.1,1.1,0.5,2.1,1.1,3
		c0.5,0.7,0.1,2.6-0.6,3.2c-0.6,0.5-1.3,0.6-1.8,0c-0.6-0.8-1.5-1.4-2-2.3c-0.4-0.7-1.3-1.2-2-1.8c-0.4-0.3-0.7-0.7-0.9-1.1
		c-0.9-1.5-1.8-2.9-2.9-4.2c-1.1-1.4-1-4.1,0.3-5.9c0.4-0.5,0.6-1,0.6-1.6c0.1-0.8,0.5-1.5,0.9-2.2c1.1-2,2.4-4,3.4-6.1
		c0.5-1.1,1.4-2,2.2-3c0.4-0.5,0.7-0.9,0.7-1.6c-0.1-1.1,1.1-1.4,1.5-2.3c1.2-2.6,2.5-5.1,4.1-7.6c0.3-0.5,0.5-1.2,0-1.7
		c-0.5-0.6-1.3-1-2.1-0.8c-0.9,0.2-1.6,0.1-2.4-0.3c-0.8-0.3-1.6-0.6-2.4-0.5c-0.4,0.1-0.8,0-1-0.2c-1.5-1.1-3.1-0.7-4.6-0.5
		c-0.7,0.1-1.3-0.2-1.8-0.7c-1-1-2.1-1.8-3.7-1.6c-0.9,0.1-1.8,0.1-2.6-0.6c-0.1-0.1-0.4-0.2-0.6-0.2c-1.8,0-3.4-0.9-5.2-1
		c-1.2-0.1-1.9,0.4-1.6,1.6c0.6,2.2,0.5,4.5,1.8,6.5c1,1.5,0,2.9-2,2.9c-1.5,0-2.7-0.6-3.2-1.9c-1.1-2.7-2.1-5.4-2.5-8.2
		c0-0.1,0-0.3-0.1-0.3c-1.7-1.4-1-3.6-2-5.2c-0.3-0.5-0.3-0.9,0.1-1.5c1.3-2.1,3.2-3.5,5-5c1.6-1.4,3.1-3,4.3-4.7
		c0.4-0.6,1-1.1,1.7-1.5c1.7-1.1,3.6-2,4.6-3.9c0.4-0.8,1.1-1.2,1.8-1.7c1.8-1.4,3.6-2.7,4.9-4.6c0.4-0.6,1-0.7,1.5-1
		c1.5-1.1,2.5-2.6,3.6-3.9c0.6-0.7,1.1-1.3,1.8-1.8c1-0.7,1.4-1.8,1.1-2.9c-0.2-0.7-0.7-1.2-1.4-1c-1.8,0.6-3.5-0.3-5.1-0.5
		c-2.2-0.3-4.4-0.5-6.6-0.6c-2-0.1-4.1-0.2-6-0.8c-2.1-0.7-4.3-0.8-6.5-0.9c-1,0-1.3,0.3-1.4,1.3c-0.2,2.7-1,5.2-2.7,7.4
		c-0.6,0.8-1.2,1.6-2.5,0.9c-0.4-0.3-1.2,0-1.7,0C7.9,132.2,7.9,129.8,7.9,127.4z M32,116c0.1,2.2,0.1,2.3,2.1,2.3
		c0.9,0,1.8-0.1,2.7,0.3c1.9,0.8,4,0.4,5.9,0.8c0.2,0,0.5-0.1,0.7-0.2c1.2-1,2.7-1.8,2.5-3.7c0-0.3,0-0.7,0.2-0.9
		c1.3-2.1,0.4-4.6,1.3-6.7c0-0.1,0-0.2,0-0.2c-0.5-1.6-3-3.5-4.5-3.3c-1.1,0.2-2.3,0.2-3.2-0.9c-0.1-0.1-0.5-0.2-0.5-0.1
		c-0.8,0.9-2.2,0.8-3,1.6c-1.3,1.4-2.5,2.7-2.6,4.8c-0.1,1.4-1.1,2.8-0.9,4.3c0,0.1-0.1,0.3-0.2,0.4C32,115,31.9,115.6,32,116z
		 M15.1,112.8c0.1,2.5,0.7,3.6,2,3.6c1.6,0,3,0.8,4.6,0.7c0.3,0,0.8,0.1,1,0.3c1,1,2.3,0.4,3.5,0.7c0.4,0.1,0.6-0.3,0.8-0.7
		c0.5-1.3,0.7-2.6,1.1-3.9c0.4-1.4,1-2.7,0.1-4.1c-0.3-0.4-0.1-1,0-1.5c0.4-1.8-0.7-3.5-2.7-3.4c-1.1,0-2.2-0.1-3.3-0.4
		c-2.6-0.6-4.3,0.5-5,3.1c-0.2,0.7-0.5,1.4-0.7,2C15.8,110.5,15.2,111.9,15.1,112.8z M53.7,199.9c0.6,0.1,1.2-0.1,0.8-0.9
		c-0.3-0.6-0.6-1.2-1.1-1.7c-1.6-1.8-3.2-3.6-4.6-5.7c-0.3-0.4-0.8-0.7-1.3-0.7c-0.6,0-0.5,0.6-0.6,1c-0.1,0.2-0.1,0.4-0.2,0.5
		c-1.1,1.8-2.5,3.5-2.9,5.7c0,0.1-0.1,0.3-0.2,0.4c-0.8,1.2-0.7,1.4,0.7,1.5c0.4,0.1,0.9,0.1,1.3,0.1C48.4,200,51,200.1,53.7,199.9z
		 M29.1,154.6c-0.3,0.2-0.6,0.4-0.8,0.7c-1.7,1.6-2.9,3.7-4.7,5.1c-0.4,0.3-0.6,1,0,1.2c1,0.5,2.2,1.1,3.3,1.1
		c1.3,0.1,2.4,0.3,3.5,0.8c0.7,0.4,1.6,0.9,2.3,0.4c0.8-0.6,0.1-1.5-0.1-2.2c-0.5-1.9-2-3.3-2.1-5.4c0-0.3-0.4-0.7-0.6-1.1
		C29.8,154.9,29.4,154.8,29.1,154.6z"/>
	<path fill="#FFFFFF" d="M161,254.5c0.2,0.2,0.8,0.3,0.2,0.5c-0.8,0.2-2.2,0.4-2.4,0c-0.5-0.8-1.2-0.4-1.7-0.8
		c-0.4-0.3-0.3-0.7-0.3-1.1c0.1-1.4,1.9-3,3.3-3.1c1.6-0.2,3-0.9,4.7-1.1c1.1-0.1,1.2-1.1,0.5-2.1c-0.7-1.1-0.9-2.5-1.3-3.7
		c-0.4-1.4-0.8-2.8-1.2-4.2c-0.2-0.6-0.8-0.9-1.1-1.5c-0.6-1.1-0.2-2.5-0.8-3.5c-1.2-2-2.1-4-2.5-6.2c0-0.2-0.3-0.4-0.5-0.7
		c-1.2-2.1-1.8-2.2-3.8-1c-0.8,0.5-1.7,0.9-2.6,1.1c-1.1,0.2-2.1-0.5-2.8-1.2c-0.7-0.7-0.5-1.4,0.1-2.2c0.3-0.4,0.3-1-0.3-1.3
		c-0.7-0.4-1.4-0.9-2.2-0.9c-1.5,0-2.9-0.6-4.4-1c-1.7-0.4-3.3-0.2-5,0.5c-1.5,0.7-3,1.5-4.5,2.3c-0.5,0.3-1.1,0.2-1.7,0.1
		c-1.4-0.1-2.8-0.2-4.1,0.4c-0.5,0.2-0.9,0.1-1.4,0c-1.7-0.6-3.3-1.1-5.1-1.4c-1.4-0.2-2.7-0.8-3.9-1.5c-0.2-0.1-0.3-0.2-0.5-0.3
		c-0.4-0.2-1-0.5-1.3,0.1c-0.3,0.6,0.4,0.7,0.7,0.9c0.2,0.2,0.4,0.3,0.6,0.4c0.9,0.3,1.6,0.8,1.6,1.9c0,1.3-0.7,2.3-1.7,3
		c-0.9,0.5-1.9,0.8-3.1-0.1c-0.7-0.6-1.8-0.9-2.7-1.3c-0.4-0.2-0.8-0.3-1.1-0.6c-0.9-0.8-2-0.6-2.6,0.3c-0.5,0.8-1,1.7-1.6,2.5
		c-1.6,2-2.4,4.5-4.1,6.5c-1.1,1.3-1.6,3.1-2.3,4.7c-0.2,0.4-0.4,0.9-0.7,1.2c-1.2,1.5-0.8,3.4,0.9,4.2c0.5,0.2,0.8,0.6,1.2,0.9
		c1.6,1.2,3.5,1.9,5.2,2.9c1.7,1,2,2.2,0.7,3.6c-0.3,0.3-0.5,0.7-0.8,1c-0.5,0.5-1.1,0.5-1.7,0.2c-1.7-0.9-3.4-1.9-5.2-2.6
		c-1.7-0.7-3.1-1.8-5-1.9c-0.7,0-1.2-0.6-1.8-1c-2.1-1.2-4.3-2.2-6.6-2.9c-0.8-0.3-1.2-1.1-2-1.5c-1.7-1-3.7-1.5-5.3-2.5
		c-1.4-0.9-3-1.4-4.4-2.2c-1.3-0.8-2.8-1.2-3.9-2c-1.4-1-3-1.7-4.6-2.4c-1.7-0.7-3.1-1.8-4.8-2.5c-1.7-0.7-3.1-2.1-4.6-3.2
		c-1.9-1.4-1.7-1.9-0.3-4c1.4-2,3.3-3.4,4.4-5.6c1.1-2.2,3.1-3.6,4.6-5.5c0.7-0.9,1.5-1.1,2.4-0.1c0.8,0.8,1.9,1.2,2.7,2.1
		c1.2,1.2,1.2,2.4,0.2,3.8c-0.9,1.3-1.8,2.7-2.4,4.2c-0.6,1.4,0,2.9,1,3.9c1.2,1.1,1.8,2.7,3.2,3.5c1.6,0.9,3,2.1,4.7,3
		c2.3,1.1,4.8,1.8,6.9,3.3c1.4,1,3,1.1,3.6,0.2c0.3-0.5,0.6-1,0.9-1.5c0.7-1,1.3-2.2,2.1-3.2c0.3-0.4,0.4-1-0.1-1.4
		c-1.6-1.3-3.3-2.6-5.2-3.4c-1.6-0.7-2.4,0.4-3.3,1.2c-1.5,1.3-2.8,1.3-4.4,0c-0.4-0.3-0.8-0.7-1.2-1c-1-0.7-0.8-1.6-0.3-2.3
		c0.8-1.3,1.6-2.6,2.3-4c0.6-1.2,1.4-2.1,2.2-3c0.6-0.7,0.7-1.6,1.1-2.4c0.7-1.4,1.7-2.4,2.9-3.3c0.4-0.3,0.9-0.4,1.3-0.1
		c1.1,0.7,2.5,1.1,3.3,2.4c0.4,0.6,0.6,0.9,0,1.6c-1.1,1.2-1,2.9-1.4,4.4c-0.1,0.3,0.3,0.6,0.6,0.8c1.4,1,2.6,2.3,4.4,2.7
		c0.7,0.1,1,1.2,2,0.8c0.7-0.3,0.7-1.2,1.2-1.7c1.1-1.1,1.6-2.5,2.4-3.9c0.3-0.5,0-0.7-0.3-1.1c-0.9-0.9-2.2-1.1-2.9-2.2
		c-0.5-0.9-1.5-1.5-1.5-2.7c0-1.3,0.4-2.3,1.7-2.7c1.2-0.4,2.2,0.1,3.2,0.7c1.1,0.8,2.2,1.6,3.3,2.4c0.4,0.3,1,0.4,1.3,0
		c1.1-1.1,2.5-1.7,3.8-2.1c1.3-0.5,2.9-1.1,4.4-0.2c1,0.6,2.3,0.3,3.5,0.8c0.8,0.3,1.5,0.7,2.2,1.2c0.9,0.7,2,1.2,3,1.5
		c2.4,0.5,4.7,0.9,7.2,1c2.2,0.1,4-0.6,5.9-1.6c1.4-0.7,3-1.2,4.6-1.5c1.1-0.2,2.1-0.7,3.1-1c1.3-0.3,2.8,0.1,4-0.7
		c0.3-0.2,0.7,0,1,0.3c0.5,0.4,1.1,0.6,1.7,0.6c0.7,0,1.5-0.1,0.8-1.2c-0.2-0.3-0.3-0.5,0-0.7c0.2-0.1,0.6-0.2,0.8,0
		c1,1,2.5,1,3.7,1.6c1.9,0.9,3.6,2.2,5.5,2.9c1.6,0.7,3.3,1.4,5.1,1.4c1.3,0,2.3,0.8,3.6,0.9c1.3,0.1,2.2-0.8,3.4-0.9
		c1.2-0.1,2.4-0.4,3.5-1c0.6-0.3,1.5-0.3,2.1,0.6c1.3,2.2,1.2,2.9-0.9,4.5c-1.8,1.4-3.7,2-6,1.8c-1.6-0.2-2.1,0.7-1.6,2.1
		c0.8,2.2,2,4.4,2.2,6.8c0.1,1.3,0.9,2.3,1.4,3.4c0.7,1.7,1.4,3.4,2.1,5.2c0.2,0.5,0.5,0.9,1,0.9c0.7,0,0.6-0.7,0.6-1.1
		c0-1.9,0.8-3.6,1.2-5.3c0.3-1.2,1.1-2.3,1.5-3.6c0.1-0.3,0.3-0.7,0.3-1c-0.2-2,1.1-3.5,1.8-5.2c0.5-1.2,2-1.5,3.1-0.7
		c0.4,0.3,0.7,0.4,1.2,0.5c2.2,0.3,4,1.7,5.9,2.5c0.5,0.2,0.9,0.5,1.4,0.5c0.7,0,1.3,0.1,1.7,0.7c0.1,0.2,0.4,0.3,0.6,0.3
		c1-0.1,1.9,0.4,2.7,0.9c0.3,0.2,0.6,0.2,1,0c0.5-0.4,0-0.7-0.1-0.9c-1.4-2.3-2.3-4.8-3.8-7c-0.6-0.8-1.3-1.9-1.3-3.1
		c0-1.2-1.3-1.7-1.5-2.9c-0.1-0.4-0.3-0.7-0.4-1.1c-0.4-1.8-1.7-2.4-3.1-1.3c-1,0.8-2.3,1.1-3.2,2.2c-0.4,0.6-1.1,0.6-1.6-0.1
		c-0.5-0.7-1.2-1.2-1.6-1.9c-0.5-0.8-0.3-2.1,0.6-2.5c2.7-1.1,5.2-2.9,7.9-3.9c2.1-0.8,4-1.9,6-2.8c1.5-0.7,2.1-0.3,3.1,0.6
		c0.7,0.7,0.6,1.8-0.4,2.7c-0.9,0.7-1.5,2.3-3.3,1.7c-0.4-0.1-0.9,0.6-1.2,1.1c-0.2,0.4-0.1,0.8,0.2,1.1c1.9,2,3.2,4.4,4.3,6.8
		c0.7,1.6,1.9,2.9,2.7,4.4c0.8,1.5,1.7,2.8,2.4,4.3c0.3,0.5,0.5,1.1,0.9,1.5c1,0.9,1.3,2.3,2.1,3.4c0.8,1.1,1.9,1.5,2.8,0.5
		c1.4-1.4,3-0.8,4.6-1c0.9-0.1,1.4,1.6,0.8,2.4c-0.8,1-1.9,1.7-3.2,2.3c-1.4,0.6-2.8,1.3-4,2.2c-1,0.8-2.3,0.9-3.4,1.7
		c-0.5,0.4-0.7,1.2-1.5,1.1c-2.2-0.2-4.5-0.1-6.2-1.8c-0.7-0.7-1.6-1.2-2.7-1.1c-1.1,0.1-1.8-0.8-2.5-1.4c-1.4-1-3.1-1-4.5-1.7
		c-0.8-0.4-1.4-1.1-2.4-1.2c-0.9-0.1-1.4,0.4-1.6,1.1c-0.5,1.4-1,2.8-1.3,4.3c-0.3,1.5-1.2,2.8-1.5,4.3c-0.5,2.2-1.6,4.1-2.3,6.2
		c-0.4,1.1-1.3,1.8-2.6,2.3c-1.7,0.7-3.7,0.9-5.2,2.2c-0.4,0.3-0.8,0.4-1.2,0.1c-0.7-0.4-1.2-0.3-1.8,0.2
		C163.2,254.7,162,254.1,161,254.5z M109.6,217.2c-0.3,0.2-1.1-0.6-1.3,0.2c-0.2,0.7,0.6,1.1,1.1,1.3c1.1,0.4,2.1,1.2,3.3,1.4
		c0.4,0,0.6,0,0.9-0.2c0.3-0.3,0-0.9-0.1-0.9C112.3,218.4,111.5,216.8,109.6,217.2z"/>
	<path fill="#FFFFFF" d="M263.6,144.4c0-0.6,0-1.3,0-1.9c-0.4,0.4-0.3,0.8-0.3,1.2c0,0.6,0.1,1.2-0.4,1.7c-0.4,0.4-0.3,0.8-0.1,1.2
		c0.4,0.8,0,1.4-0.3,2.2c-0.8,1.5-1.4,3-1.5,4.7c-0.1,1.4-0.2,2.7-0.8,4c-0.3,0.7-0.5,1.5-0.6,2.3c-0.3,2-1,3.9-1.7,5.8
		c-0.2,0.5,0.3,1,0.1,1.4c-0.7,1.2-0.6,2.6-1.2,3.9c-0.7,1.4-1.4,2.8-1.4,4.5c0,1.1-0.6,2-1.6,2.5c-0.9,0.5-1.8,0.5-2.6-0.3
		c-0.8-0.7-1.8-0.2-2.7-0.5c-0.8-0.2-1.6-0.6-2.3-0.9c-1-0.4-1.9-0.8-3-0.8c-1.4,0-2.2-1-2.9-2.1c-0.6-0.9,0.4-1.6,0.9-2.2
		c1.2-1.4,4.4-1.7,5.9-0.7c0.7,0.5,1.3,0.4,2.2-0.1c2.3-1.2,3.1-3.1,3.9-5.4c0.7-2.1,1.3-4.2,2.1-6.3c0.4-1,0-2.1-0.1-3.1
		c0-0.8-0.8-1.4-1.7-1.5c-1.4-0.2-2.7-0.9-4.1-1.4c-1.4-0.5-2.8-0.7-4.3-0.8c-0.7,0-1.2,0.3-1.1,1.2c0.1,1.3-1,2.3-0.8,3.7
		c0.1,0.6,0.1,1,0.6,1.3c1,0.6,1.9,1.4,3,1.9c1.4,0.7,1.6,2.2,0.8,3.6c-0.6,1.2-1.4,1.1-2.6,1.2c-1.9,0.2-3.2-0.7-4.7-1.3
		c-0.2-0.1-0.5-0.1-0.7-0.1c-1.3,0.5-2.3-0.4-3.3-0.9c-0.3-0.1-0.5-0.3-0.9-0.3c-2,0.3-3.9-0.3-5.8-1c-0.6-0.2-0.7-0.7-0.6-1.2
		c0.7-3.9,1.5-3.9,5.6-4.2c0.4,0,0.7,0,1.1,0.1c1,0.1,1.5-0.3,1.5-1.3c0-1,0.3-1.9,0.7-2.9c0.6-1.7,0-2.8-1.8-3
		c-2.3-0.2-4.4-1.1-6.7-1.6c-1.4-0.3-2.2,0.3-3.2,1.1c-1.1,0.8-1.2,1.9-1.4,3.2c-0.2,2-0.1,4.3-1,6c-1,1.8-0.5,3.9-1.5,5.6
		c-0.6,1,0.4,3.7,1.3,4.5c1.6,1.4,3.6,2.2,5.5,3.1c0.8,0.4,1.5,0.9,2.3,1.3c0.2,0.1,0.5,0.3,0.5,0.6c0.1,1.5,0.3,3.1-1,4.2
		c-1,0.9-2.2,0.7-3.4,0.3c-2.9-1-5.7-2.4-8.7-2.9c-0.9-0.2-1.8-0.3-2.7-0.8c-1.2-0.8-1.5-2-0.7-3.2c0.8-1.2,1.3-2.5,1.5-4
		c0.2-1.3,0.7-2.6,0.8-4c0-1.5,1.4-2.8,0.8-4.4c-0.2-0.5,0.3-0.9,0.4-1.3c0.4-2,1-3.9,1.3-5.9c0.2-1.4,0.6-2.9,1.1-4.2
		c0.6-1.4,0.3-3,1.3-4.4c0.5-0.6,0.1-1.7,0-2.6c-0.2-1.3,0.1-2.4,0.7-3.4c0.3-0.4,0.3-0.8,0.3-1.2c0-1.2,0.9-1.9,1.6-2.6
		c0.4-0.5,1.3-0.5,1.8-0.1c0.7,0.5,1.7,0.9,1.6,2c-0.1,0.9-0.2,1.7-0.5,2.5c-0.4,1.6,0.1,2.7,1.5,3.5c2,1.2,4.3,1.3,6.4,2
		c2.1,0.7,4.2,0.7,6.3,1.2c1.1,0.3,2.4,0.1,3.6,0.6c2.1,0.9,4.3,0.9,6.4,1.3c1.3,0.3,2.6,0.7,4,1c1.3,0.3,1.6-0.1,1.7-1.4
		c0.3-2.2,1.3-4.3,3-5.8c0.7-0.6,1.5-0.3,2.3,0c0.9,0.4,0.5,0.9,0.5,1.4c0.1,1.3,0,2.6,0,3.9C263.8,144.4,263.7,144.4,263.6,144.4z"
		/>
	<path fill="#FFFFFF" d="M225.4,91.1c2.1,0.5,3.5-1,5.1-1.7c1-0.4,1.8-1.1,2.9-1.4c1.6-0.5,3.2-1.1,4.8-1.9c1.6-0.8,3.4-1.5,5.2-2.1
		c0.8-0.2,1.5-0.7,2.2-1.1c1-0.5,0.6-1.5,0.2-2.1c-0.6-0.9-1-2-1.6-2.9c-0.5-0.8-0.3-1.8,0.6-2.5c0.7-0.6,1.4-0.5,2.1,0.2
		c0.5,0.5,1.1,0.9,1.6,1.4c0.3,0.2,0.5,0.5,0.5,0.8c-0.3,1.6,0.9,2.5,1.6,3.7c0.7,1.2,0.7,2.7,1.5,3.9c1.1,1.8,1.2,4.1,2.5,5.8
		c0.3,0.3,0.2,0.9,0.2,1.4c0.1,0.5,0,1.1,0.4,1.5c0.4,0.4,0.9,0.8,0.5,1.3c-0.5,0.8-1,1.7-2.1,1.9c-1,0.2-1.1-0.9-1.6-1.5
		c-1.2-1.4-0.9-3.4-1.9-4.8c-0.5-0.8-1-0.9-1.8-0.7c-1.9,0.6-3.5,1.8-5.4,2.1c-1.5,0.2-2.7,1.2-4.3,1.1c-0.9,0-1.7,0.9-2.7,1.2
		c-1.1,0.2-2.1,0.7-3.1,1.1c-2.1,0.9-4.1,2.1-6.5,2.4c-2.5,0.3-5.2,0.9-7.5-0.6c-1.8-1.2-3.2-2.8-4.8-4.3c-1.1-1-1.2-2.5-2-3.7
		c-0.3-0.4-0.5-0.9-0.8-1.3c-0.5-0.8-1.5-1.5-1.3-2.7c0-0.3-0.1-0.7-0.3-0.9c-1.1-1.1-1.2-2.6-1.4-4c-0.2-0.9-0.1-1.9-0.1-2.9
		c-0.1-2.3,1.3-4,2.2-5.8c1-2,3.1-2.7,4.7-3.9c1.1-0.9,2.6-1.1,3.4-2.4c0.4-0.7,0.6-1.6,1.4-2.1c0.4-0.2,0.7-0.5,1.2-0.4
		c1.1,0.1,1.9-0.4,2.8-1c1.8-1.1,3.2-2.8,5.1-3.8c1.3-0.7,1.4-1.9,0.3-2.9c-1.2-1.2-2.2-2.6-2.6-4.3c-0.3-1.2,0.1-2.2,1.1-2.6
		c1-0.4,1.7,0.2,2.3,0.9c1,1.3,2,2.7,2.9,4.1c0.6,0.9,1.7,1.6,2.3,2.6c1.6,2.5,3.8,4.6,5.5,6.9c0.3,0.4,0.4,0.9,0.6,1.4
		c0.5,1.3,1.5,2.3,2,3.6c0.6,1.4,0.1,2.4-1.4,2.5c-2.6,0.2-3.3-0.2-4.1-3c-0.2-0.7-0.6-1.4-1-2c-0.5-0.9-1.8-0.7-2.7,0.2
		c-2,2-4.1,3.8-6.7,4.9c-2.4,1-4.2,2.7-6.2,4.1c-0.8,0.6-1.7,1.1-2.6,1.6c-1,0.5-1.3,1.5-1.6,2.4c-0.8,2.3,0.2,4.3,1,6.4
		c0.6,1.6,1.6,3.1,2.9,4.2C222.3,90.3,223.4,91.8,225.4,91.1z"/>
	<path fill="#FFFFFF" d="M49.6,91.1c-1.8-0.6-3.8-0.8-5.6-1.5c-1.8-0.7-3.6-1.4-5.4-2.2c-0.6-0.3-1.1-0.7-1.5-1.1
		c-2-1.9-4.4-3.5-5.7-6.1c-0.6-1.3-1.6-2.6-0.9-4.2c0.1-0.2,0.1-0.5,0-0.7c-1.1-1.4-0.2-3.1-0.8-4.5c-0.2-0.5,0-1,0.2-1.4
		c0.9-1.4,0.6-3.2,1.2-4.6c0.5-1.6,1.3-3.1,2.1-4.5c0.9-1.5,2-2.7,3-4c0.9-1.3,2.5-2,3.7-3c0.8-0.7,1.9-1.2,2.6-2
		c0.1-0.1,0.2-0.2,0.3-0.2c1.6,0.3,2.9-0.9,4.4-1c0.7-0.1,1.4-0.1,1.9-0.5c0.1-0.1,0.3-0.2,0.3-0.1c1.2,1,2.3-0.2,3.5-0.1
		c1,0.1,2.1-0.3,2.9,0.6c0.1,0.1,0.5,0.2,0.7,0.1c2.7-0.2,5.2,0.6,7.2,2.2c1.4,1.1,2.9,2.2,3.9,3.7c1.1,1.7,2.6,3.2,3,5.2
		c0.4,1.8,1.5,3.5,0.8,5.5c0,0,0,0.1,0,0.1c1.2,1.9,0.2,3.7-0.2,5.5c-0.3,1.5-0.5,3-1.2,4.4c-0.9,1.7-1.9,3.3-3,4.9
		c-0.5,0.7-1.2,1.1-1.8,1.7c-1.4,1.4-2.8,2.7-4.4,3.9c-1.3,0.9-2.9,1.5-4.3,2.3c-1.6,1-3.5,0.8-5,1.6C50.8,91.1,50.2,91.1,49.6,91.1
		z M35.3,70.3c0.4,0.9,0.2,2.1,1.1,2.8c1.3,1.1,2.5,2.3,4.1,3c0.6,0.2,1.1,0.7,1.4,1.4c0.3,0.7,0.8,1.3,1.5,1.4
		c2.2,0.5,3.7,2.1,5.3,3.4c1.4,1.2,2.9,1,4.3,1.6c0.2,0.1,0.5-0.1,0.7-0.2c1-0.9,2.4-1.1,3.6-1.5c2-0.7,4-1.6,5.2-3.5
		c1.1-1.8,2.7-3.4,2.6-5.7c0-0.3,0.2-0.6,0.3-0.9c1.1-1.9-0.2-4.8-1.6-6c-1.2-1-2.7-1.8-3.6-3.1c-0.8-1.1-1.9-1.9-2.9-2.6
		c-1.5-1.1-3.1-2.2-4.4-3.6c-2-2-4.4-1.1-6.7-1.6c0,0-0.1,0-0.1,0.1c-1.6,1.4-3.9,1.9-5.2,3.8c-0.7,1-1.5,2.1-2.3,3
		C36.4,64.5,36.3,67.5,35.3,70.3z"/>
	<path fill="#FFFFFF" d="M260,131.1c-1.6,0.7-3.4-0.2-5.2,0.1c-0.6,0.1-1.2,0.2-1.7,0.3c-1.5,0.5-3,0-3.8-1.4
		c-0.6-1-0.2-3.1,0.9-3.8c1.1-0.6,2.4-0.9,3.7-1.2c2.7-0.6,5.1-4.2,4.5-6.9c-0.1-0.2-0.1-0.5,0-0.7c0.1-0.7,0.8-1.3,0.3-2
		c-1-1.6-2-3.3-3.8-4.1c-2.9-1.3-6.4,0.6-6.9,3.8c-0.4,2.5-0.8,4.9-1,7.4c-0.1,1.3-0.7,2.5-1.4,3.7c-0.8,1.3-1.5,2.6-2.6,3.6
		c-1.5,1.2-2.9,2.7-5.1,2.6c-1.2-0.1-2.3,0.8-3.5,0.6c-0.5-0.1-1.1,0-1.4-0.5c-0.2-0.2-0.4-0.3-0.6-0.3c-2.3,0.3-3.7-1.4-5.4-2.3
		c-1.4-0.8-2.1-2.3-2.9-3.6c-0.3-0.6-0.5-1.3-0.9-1.9c-0.9-1.4-0.9-3.1-0.9-4.7c0-0.6,0-1.2-0.2-1.8c-0.1-0.3-0.1-0.6,0.1-0.9
		c1.7-2.5,1.1-4.9-0.6-7.1c-0.5-0.6-0.6-1.2-0.4-1.9c0.3-0.7,0.9-0.9,1.7-0.9c0.9,0,1.8-0.2,2.6-0.6c0.6-0.4,1.4-0.5,2.1-0.4
		c0.8,0.1,1.5-0.2,2.2-0.3c1.4-0.3,2.9-0.5,4.3,0.3c0.9,0.5,0.6,1.6,0.5,2.5c-0.1,0.9-0.6,1.6-1.6,1.8c-3.4,0.8-5.8,3.8-5.9,7.3
		c0,1-0.1,2,0,3c0.2,2.5,1.8,4.3,3.7,5.5c2.4,1.5,4.3,0.4,5.5-2.2c0.7-1.6,0.6-3.2,1-4.7c0.3-1.3,0.6-2.7,1.1-4
		c0.1-0.4,0.4-0.8,0.4-1.2c-0.1-1.5,0.8-2.6,1.4-3.8c1.4-2.9,4.1-4.7,6.9-5.9c1.7-0.7,3.7-0.4,5.4,0.2c1.3,0.4,2.6,0.6,3.8,1.4
		c1.5,1,2.6,2.2,3.8,3.5c1.5,1.6,1.5,3.7,2.7,5.4c0.3,0.4,0.3,0.9,0.2,1.4c-0.1,0.4-0.2,0.9,0,1.2c0.7,1.5,0.1,3,0,4.4
		c-0.1,1.1-0.8,2.2-1.5,3.1c-0.7,1.1-0.7,1.4,0.1,2.4c0.5,0.6,1,1.3,1.3,2c0.4,0.7-0.8,2-1.8,2C260.7,131.2,260.4,131.2,260,131.1z"
		/>
	<path fill="#FFFFFF" d="M146.8,235.9c1.4,2.2-0.4,4.2-0.9,6.4c-0.1,0.5-0.5,0.6-0.7,0.9c-1.9,2.4-4.5,4.1-6.6,6.4
		c-0.7,0.7-1.8,1.1-2.6,1.8c-0.4,0.4-0.8,0.7-1.1,1.2c-0.7,1.2-2.5,1.2-3.2,0.1c-0.6-0.9-1.4-1.5-2.2-2.1c-1.1-0.8-1.6-2.1-2.6-2.8
		c-1.5-1-2.2-2.6-3.6-3.7c-1.1-0.9-1.9-2.1-2.2-3.5c-0.3-1.3-1-2.6-1-4c0.1-2.6,1.4-4.7,3.3-6.3c0.3-0.2,0.8-0.2,1.1-0.2
		c0.6,0,1.1,0,1.5-0.5c0.1-0.1,0.2-0.2,0.3-0.2c1.6-0.7,5.7,0.8,6.7,2.3c0.4,0.7,1.1,0.9,1.7,0.2c0.9-1.1,2-1.8,3.2-2.3
		c0.9-0.5,2.2-0.5,2.9-0.1c2,1.2,4.2,2.1,5.7,4.1C146.8,234.2,147,234.8,146.8,235.9z"/>
</g>
</svg>
